<mxfile host="app.diagrams.net" modified="2024-02-18T14:39:47.331Z" agent="Mozilla/5.0 (Macintosh; Intel Mac OS X 10_15_7) AppleWebKit/537.36 (KHTML, like Gecko) Chrome/121.0.0.0 Safari/537.36" etag="GezxKDnbKQOkvHt1EeJb" version="23.1.5" type="google">
  <diagram name="Page-1" id="UpQfXl-DkcGahVSdvex6">
    <mxGraphModel grid="1" page="1" gridSize="10" guides="1" tooltips="1" connect="1" arrows="1" fold="1" pageScale="1" pageWidth="3300" pageHeight="2339" background="#ffffff" math="0" shadow="0">
      <root>
        <mxCell id="0" />
        <mxCell id="1" parent="0" />
        <mxCell id="Jn_WsU0XJ25JbZvKuPca-4" value="&amp;nbsp;" style="rounded=1;whiteSpace=wrap;html=1;fillColor=none;strokeColor=#009900;arcSize=3;strokeWidth=3;" vertex="1" parent="1">
          <mxGeometry x="1460" y="570.75" width="230" height="330" as="geometry" />
        </mxCell>
        <mxCell id="Jn_WsU0XJ25JbZvKuPca-64" value="" style="rounded=1;whiteSpace=wrap;html=1;fillColor=none;strokeWidth=2;strokeColor=#99004D;dashed=1;arcSize=4;" vertex="1" parent="1">
          <mxGeometry x="690" y="1440" width="600" height="430" as="geometry" />
        </mxCell>
        <mxCell id="HhDjFy-882UdEcM9TzjR-16" value="&amp;nbsp;" style="rounded=1;whiteSpace=wrap;html=1;fillColor=none;strokeColor=#009999;arcSize=3;strokeWidth=3;" vertex="1" parent="1">
          <mxGeometry x="880" y="570" width="330" height="320" as="geometry" />
        </mxCell>
        <mxCell id="4RIrmKNSk8DNVuc5E2D_-17" value="&lt;font color=&quot;#00331a&quot; style=&quot;font-size: 18px;&quot;&gt;@RestController&lt;/font&gt;" style="rounded=1;whiteSpace=wrap;html=1;fillColor=none;fontColor=#ffffff;strokeColor=none;fontStyle=1;fontSize=14;" vertex="1" parent="1">
          <mxGeometry x="1945" y="190" width="100" height="30" as="geometry" />
        </mxCell>
        <mxCell id="B7wULBrXCtLawlIh5vMz-19" value="" style="endArrow=block;html=1;rounded=0;fillColor=#b0e3e6;strokeColor=#0e8088;strokeWidth=4;endFill=1;" edge="1" parent="1">
          <mxGeometry width="50" height="50" relative="1" as="geometry">
            <mxPoint x="720" y="738.25" as="sourcePoint" />
            <mxPoint x="870" y="738" as="targetPoint" />
          </mxGeometry>
        </mxCell>
        <mxCell id="GKdt_yIYwA8y7xL2uswc-4" value="&lt;font color=&quot;#009999&quot; style=&quot;font-size: 30px;&quot;&gt;Kafka Cluster&amp;nbsp;&lt;/font&gt;" style="rounded=1;whiteSpace=wrap;html=1;fillColor=none;strokeColor=none;fontColor=#00331A;" vertex="1" parent="1">
          <mxGeometry x="1000" y="610" width="200" height="38.75" as="geometry" />
        </mxCell>
        <mxCell id="aHFL0GVCa_0QGIggF0Ww-1" value="" style="shape=image;verticalLabelPosition=bottom;labelBackgroundColor=default;verticalAlign=top;aspect=fixed;imageAspect=0;image=data:image/webp,UklGRoAwAABXRUJQVlA4THQwAAAv68GFEPUKg7aNJMX8Ye9/OgARMQF93BPji6UH5hecnmiqmrGj5dCC1abTZwbLKtqpdEoVFXRKxsYLVCtnWlofQemypnZPLp7UUNdM6FLmuVWCXtElF/eQnlQ2OxZadBGlUVehD3rj1a96s/9PltNY2wZVVafv+z5PP4L2fb2rGXidAdRkahp+d+YQzRA4Ukb8/xHxj8jTbtBxShjXtmzkDHcrOXKTAhkS0W3gSCStNo1wikPCLkHhTSOfDZRNupeotTgpyY0kOZKkvxCnxn6LZFVOV3gc/XOay1cEiQ6Axq0jhf3/r9nGgtix2/Q+8uKGQbx7EkLadqIwhCGEMIQQQgjhI4QQQghDCGEIM3i0IEmy20Zdi3gDezpBwG43wIvg/WH7/2uaEjlvaLK9guQd7Atmj5g9TJZeKntCdj909kD2QPZA9kA/G8ielNmlPnnUMM8sfDZz3++gsYvrnOuc6+L2WSNjFLsdHCw8VNnigmu3C8qS0q6xoixhGVeUxqULA40o7jRQjTMqBdu2k4jS/Gfw3d1dW5BHKCBOPDhFpV0nING2raa1xJj//7pXvbE3OgcORVDDkLa2MAo/QghDCGEIIQwhhBBCGEIIIfwIv8GVxdpW0Ep7Y7QUcNoxfRUQm/CXeJZaQWyjVrBqBRpD1dpG0ohSK7BWrWBntYIsagVdK0CLtCiyfqtsEFUrGFWt4KiPp3u4dtVt8Nb1awUvjaikw363MVOtwKt667BXVXmjtaRfK/jRKL1+47SgHL/E9IKyEVKtYA6jNQxHjc72Wa2golV0sgZm87xWcKOFNPPGRK0iWkrRalSmGuOJbhEtp+g2Mu2DxrW6MkujE6QNQV9g1InO0Bk1UpX0inbWrxeWb6q0s7O56DVKdZRolXSG2Qh0enRH2bCDVkcZ7OrjVNJrj5Cac/mo3cOpox/oPfkOxgnRrErk61PVxDhtOwHey88LjCWG2nAjjAVFHtiVtDHCMbsjunYZ0KpS8OXdfOhd9jvgi1UVzJWA226FJf3vUQFuawZxHfnQYEAiWzfZekzI1vVui/uzP1XY0tJSW7tiMMYZ5uFrxJpqrk3I1rds/Z6XraPN+a8WJ0xNBK5dW3VMbLEiW5+y9SNb/y8g8MGuT1ZMTHSqkM3GDfjksvXx7gcvIPLBu28Z8PmLVpAnpmmms2SXbL1eQGf3Lp0FWRreKWuWYhvksu0m275l279sO4Z4e/8Stt2fZmGXmNpwBZdtd9n2K9veGwb59OP38O9aQZmYorfMZNtDtj03jHP0a/TWaDeUjdjOJGyL30aZwe3aEE5M7/bCtnhu5MPgTVlbHWSHdKf7M/5zrLyqrK7VC9qUNS+Qkw83w3AznG6G2PloWp32BGTKavrW7GY43AxzgKFrr6M3WsKpDsN/u26G3c3wDDB16hL6NS5AE9NOS7mXm+EeYOyJaey2SwDVYbqtfcPNsAZYe+YRep8kqOoo0Y1YJ/evk/t0co+9//0U264NmTpMe2NO7h8n96fBCK/tRfcQgzQxdQofTuGXU3jG+On+8EtZjWdZYvbtFL6uG+Sdt9Ezv8DYyXxGLbuF7FayG4Z5+SR6lh+Qians5rJbLjrITx+jp6yBaMTKbia7adFRbm1Ht2tDMDGV3Zbs1ovOcmgnfsoaeompHBZy2JfDcJqO9dpbWYMuMZXDXA57chjOM/Fx7a2swWbEbr91aJEADl+q0V5dG2aJ6c7Li0TQX6e/lTW8ElPZdciuKbtCCFMntbeyBlZiKrua7Hr3E0N02tO0spq2u+RQyaEth0IOc834L6eEUmIqh045tLZIIq3wU9YQSkxPyWEph0EWH54KnpS1i+1fy2Emh52UNF67qcwTfP9yiukLrOy2Dy0Sx6Ev8G+LoZmYBnvKarhDJIe6HPq2iKTootu1AZKYyqHW3iKUdu79lNW0gSmHro0tUtnoez5lNRxMyKEhh/4tcumMPJ6yGr5zduXQu0Uywy66XevpxFRdycYW0Wy0c/SU1cOJqY4RSzhphZ+y+j0xlVOHnJpyKsTz6k+8mrIafqBXTjU59Q48wLk30V9O8XViKqdKTu2BF7jypZdTVnRLWk4NObUG3uDBdQ9+FJ/ha6aY5mJaiml4heaG515OMRwhi2kmpp1L3qGfon8Unz8TUxG2RViLMDzEq9fxU1Y/GrEiLETYf8tTnHsT3a71YGIqQl2EPhGK/VRUjp9EeTrLijff/JW+ExJqxlppz7FFQX8aetUM1xfRU1bPJaYi1ESo7F9XwpLRuwKzPU9ngcYzYuODAXrK6rPEVIQt6yspEqfM8SEoFxy10UATmLCPn+CnrL4yYt8UYfmW3ZTXXo69RARv+k7sragQ/43bb6LbtV5KTEWYi7Br+9SoaDKSpwsDNl684oGU1XTr1indbDBhS9+GAZn+B7+H5JfE1Cnd65QuN/P2kaIcHcX4ScR/Y34H6SmrYTfKLeBxCzhuAXgbaLyMtSL6rVsOllsA9k78mOyXUwy7zG4B4Rawu5mbpzMhMbIEB938PbKL5JTVdHrk5vC5OZSbA94uL612ofLuff4+nKP3o/hMp8JuDt3NIe8z99X0nRA6M4fHZgM2tj5DfzmF9MTULaDVdnP31YhQmrFWKoswYB9foaesZCemr7gFrG72Ps8jEbFeuLCyi8iU1XR/xS1guAWUEYsVw+JufLuW3sRUzu/hFnC7+btOxJLhwifn0VNWYhNTOcXllCenYICBBi04CDTfviaVfvXxwIflADrM8KWP0VNWQhNTOcXkFMkpfcwBXUMtTZmT9Tt2U6hG/0V+CfHf6B/Nv+qp757Rl14qgvC5cDGEY/tvPENPWak0YmXIkiElQ3ACRCVd0+a/F62Dav9Iz/YiIvJMVmeKMqR+RJRda/jMlyEhQ3KnG+S4Av4H48VygfbH4H9GlmCvzhgvTqKnrOQlpjLEZMjd6QifRGxhjEWgLTDLK1Bnjpur6CkrbYmpDJEM6Z2OqA1YTRfZfBBp/+JRgzbAGMTOrTlKUlbTz9vKkPnPlbi87B9+/2G6C6c5gogyZx+fkfFRfIY/NUyGjIs73SHQIgGx9/n3BAr937hnsKg6s7y4B/2T55zo32H/6C6YkEuOXIJLtIM48fx7Aon+vQKxQJ3eNsz1d7H/mO3fKcO+pLlgPhdMfeSSlhAPuOABCuuWI2BaGOzGvklnlqcrPeTE1C1Nd0uTdWbZDlsw+e4ZwU/uzdrHJHLK2rM5icmQE1MHoDkAxwFgmH4SCIDnvm48/54YJ2M7rDtnoNOJOmV1c2Hew7UWHIBwAOY544RcaHChi8zfixZkP0UyOWein7+Oa5b1cjub/SmuZehUMJwKyqmAcZY3DuR8/jK2Dh6FtL3sMtK3vsI1wdORhaoVHFxPwamgOxXcXQZ6EsDJ7jiMHiDQIacCZrryLq5n1rbOtumheoUOmOaA2Q4YRpq+VyBxBtQPiMpx2UlTXfgc1QvvlXa1+1NMI9YBEw6Y6YCpk0YSaB1RM21CB3/VU2pGjeXciXtTmHZtalO1VYqZmDpghgMmTxrq25B6OjMAWtsCreOAYa7XptUpqxOhWx/TMxJLhliSJ401Y/0Cre0Y5ZnTSZNN1jC90r4laiIasVML59ylAgHg81as9s2Pk2a7MIVo1zbtGBAfjd9WicMqYQG4FBsO8lJM3ofGyx4WlxLQyxgqKxFbpthSYgtO06Y+p+8a01E1gc5xKsN033uGeSYY7+OhPfAitrjYkq7/JnYBHptD/bBIRpvM94bY4miPy/RKwwNWq1+szcTajlgbzpO+V7CNLbjRizqhA5oNPPlTZU8AUIwOWEvF2rZYWx9xX6LkB18OGNTPB0Gd0Aoc2fdYvdC+0kS6H4m1hVhbHSGA8hNQ0zWoQjUCYAnPHkI6ZNPcgNODFGtzsbZ3hAT8BKk7rJrUBnV7aps13Hlf5bbYVZooNqBTmXAqM8UWiMBPPU4cFKWbLOLROyrD3KJSodyIPrVzE1V67uuGp9R67xlKM64yEZPrnqzq/p01KFCJktyoOlFY57yvGfUYWZKoKRw6t1SfW6pyS8Ui5pkTa25ZxvuziqfRrEjbyh78quSWKtxS/bduVZtYx7OH6t/hbahvCB9cUN0FVS4odnEJcVgRUZKwj8dOwcsQ90FV+OCCmomEbWCdLWEjP4KXWoEwX/4EDy6ocEH9ieqMfity+rUXwKWFt1EKHVxQzQV1E/Yh0Fnq5jWr/Do7cfr/nkBLirbNEDq4IB8XZLkg2UhAbxiD2qzmkKXs5HWLwW0q6OCC7HZaDq1Td5GwKF/LcadD1gpytQCfKjivlaRA60butuRuEIVveah7NDLKWaCjWnt5HWjmpDmGCq3rEIFDbZ5N1CPw0PGGKFlCnVqbBeD9vjDjyfZKAofav+KIT8M5YByP2lo7hrKn5dGaOGKaUzjUfrDR1Oxl8zhj+6q1ZchTAwesFRxYF1HkZ4j8QBnp5wrggkEiYqIkx58GLecDmBnThro3MOvngchPk6YdwqR6FnDtd4nwbMe5BzCTFRi+FKCWhdjNxG4tdoM0SjgSwIpHT+V1N63n3YOwkwbWpQdtdFDs9h8Txzph0U+iSU1WLOzH45cPgrapIKoVFKgNKbJdkQ3qyBoKARRC0ndVTYlAcQsqsl1Q360DeTkQ1KMX2dYSeQpgABk8j8E5vbTFreguUO++j1hFWtY7OoG0CHlU/24AqUE7+gB25min5ZCzUeTHRH6KQhX1gQCMkY/cIRUnzZLcfhVyR8i0x5Dmo8jPWSGRNgARvWkeQ5as4TJoS6/XOyDWqA/pFopsc4lGinpPaENMIJS3WtyaimxR51lUndWaRwGkaiKbiWy1RCRtpKEXtOT4U9yerEzUSdpwDlJBrjoi21miUjcEZIwuhyy4EBUnxaIsnYe0ACod9QCticUlOpmvDDT72QAbylpOxa3qIqBl39Nx4CFjke0TqoYFF0JA7san2hwREPNxu7IOGbU03hAEjHctUcopAfq4H1dzU3nRASyuwbIs7QKMmuojA8YTIlsvkco8NER6++FbK8o0LS6AgZ85xxs4cmQCMFIeuA8Yi2xaolWTL0aB3XsUdqeoyhRQGuMMOX5qx3yVlYrz86mNg3FO/hgw6iu31h+LXE3k2iJXiCWADUSQyN7YG1V3QN/cLQhbKk4Su7cjz0a+5Qb9C5U5XQp00HCAi+99XWcE3LhWMAD3FpGrDpDLRvxdPPf29vZ2V3UnT3CiA6xo2FFZ44A6ngt0wOWAvgpo83WBjzzVCrzemOLCwGSc1/swJRps9DOL1yrXeAgK5tUV9cYUs8Muy8Y20eTUIVarAuTZdQGPRohc6wDNhX5ht2XOhsi1AN5rFzKfJuMkcl0HiGajLZb4lGi2kX53z5JxpJDZjv4/ksg1D5BdkoS0MFpuUBzeJcKh5tM6Fw3AbK5/qRG5+gG6ibeRkeCz13iLkS/7jn5jIK9j4OiffXIvR+4Fwllecwkibgyz8XnpJIXItgDWhkn9qM4dQt/GGerPy710QToF2ksSkLE9DgyzIccnlF9T4qR8qD87HC/9ebm/ptxfEM8HG2VKf+wEH5+LmZD6vEQTlMr9NfVnx8eo+vNuxfeE9V1Cgd4iE/0TbFheC1NC7HMxo+QG/GFL16P/71BcxMtFXDXgoL6NqSUMHOXj8pPQIuR+4iidB+H1s5numschOEh0BwkG65w1Ko28KmMTwsAbB+jcH3rtCfSJVDtmdZBYB6oL4zuw3w5bjjNrTGsULItC5VvVo9KvnAjBupGO9tCOEMBquVw/eXMQvw7iqhH9DOT45KsOAkMzM28Igi/Za0+x2+Ls9Psv0AduGn93RQux6J6V+9YLr0GFbc1UOohfeOt4PuYqo31UB/FwEFe9eMMYtgmc72kv8ZTaO7/0KRpH7LS8VZqpnAAXOhqzpfYap+avU3PViwp+7XlAoWlWVjRCEpw+fCcFdGQOXscwTeUl8BOZXvDWG4JT81Wd8YsvAxZrCrcF3niK3cAFUDEPrnAvxvQAtbM1p+bXk1GgPYExPpJC+vsvEPQbYoBoRETAbWwdLbduOJRpL0Z5pyRhsT/7PUkphexujlUUvKOEllvXGYJT8+7JSAiE1//ksZPS4h5YOEjEgxA6ITV2I+3XjpyaDy+GnwPYWfydlCbPbAcVuIWGE+BOMSOt0y4Ep2bTqZlqxjwbVM3PvA0oNM7HKehCGS6Nk1gDbl7JtknbrXNqdqo1HlqqGeiiM0BWFQ1HglOzA66xy7SaDiE4NUsPxhSktJGUVvdwWT0AN5EX26S957j3IkAUAdCT0uzi7ARZjRuhiowAOroSt8UCTFlDBiCc0q6OU1vUOyTs01UnSbRDc3FbIsCUBCRK6WdNY5spEu5rR+dJAujWB9eBinokas6swPyi8k4hPbHH09nwUgLQnpYicZ5FPc5ZfdUKhrbEtUhcC74hzwUYjltCUs0IDXOAh/9D4E1t5eqefivYNANaM1lVtBwhGqeUvrYH1yaXgM+zeLpEWhQVdv7XLIav7TRw1qSoGAFU43gxZtgjSqpoQDXft5/ihD8X4zhuAwGqAB7T0ayusqOIDl6VSEtdA5+i4wwgoQGI6y1xvfENfm5g+HivDRxQ8hS7EZLaLkL9tuTBq5wQQarg+TxRIoEBiNtb4vbGN+C4YQNTSuKUZKJCnfGCdr8MbvVQEmZA8M6oOUPJHiUHCKKDW5smteyg+FnEz4JvwHGfg6zJ9dF97aaBoT94AB4GhsT1krhe+AY/1wSxuhjhoG+5qBtSTWpJqTznRbR7PHzFKlvjpaVGQr/9CNgn1vV1RcoiIAQOhPBHx6zAoHfsUg8/H3o+fIBK72ZOxZekGnqorbfqialXXxVqUGtRqXIseCkqWqZ+dVI02fruq6QfV3wyzqm11wDE7SVxe+EJ6rOGk+6BUIt6q6Jheqhk1B/miVJXevS77meVd1yOj5JC4NxFIsJs+rn94J0QlfoIBT7e7WKrUJl+/jrGImNcs2a+PuKBCrp4RShNvHteO+d/aMrY9EufVOu8EXhjypQEx5IC8IkdJnwMR7wO5ZhrFQ4m6nUe0WEBOTBl4KjdOo/D+Wbh4pVHuo5o+CnGmhXr5ZG34WJCGNmsheakgFk3cZRZnXkjENdT4npCNBUtlRMC4WU4QIU6rCXSqPqIZnBur/NRegXGqaNwry+1hz4W+5dcjhnsV8/ZVfPLkl0ehneEo61dlJ9dk8gHXJ3VMZTqPAtdrcLTBDjVivM7HQF5Iw3d9SzcDQtXk8dA+LkCfZWUNTlPJqPW2KuwJylVaEARdzU25ayjTa5NRq2xKYjzlDhPqKVIW0lhbdZ4Ur3Iqs7vtDy5Zu5TUKX5bSKfeU/rRcScUNIbiJOMz/6zBtzPMsrL3poNlIqOIsN3M8eEv3PA8ztV57n3/V9bI0AH4K3W1qOeSqRRV2dMNLmDCQF9fnf0s/6tTQrc+e/f/QT4wOqs9lltENQOZgTk+d3aYamUYuPJ3Lx2F7OLEK8t9gtFTHEgiji/mxw+Kmjnn+u/0Wocrg5mozYBKrxN5zOfSf9eZ9fX1wczM2P+A4u2cHT4c/580XUqMFiq22JY+/7dT76nf4B+8PVvmwQ/T/HzhEyCHZWWaqKR9cGcyhpfW5757sf/zJrX8FrdR/jGzMyT9fUIJDtGXZTe95jwXLr5wZJ+n7o9iSLQXiy/k3R5E17B+iv+nv6xCu1tteehgvXveC7ehEJtIW0/h2KQLq+bqeShMF28CWWEqSoRvFNtdMJE/+7zU4168SiEdZQzZsrOib2QSuYCTMicMkpyvddlHlxPcT0hkbcEzwD9ieH2X/8esGGvcHTFW0LG7kJjbaL3mJ9URhl83PyyiccKv/vxP2j9O/hJUqyM3TSES5mwyUTE9ZC4HlDIFXwHBUOvAbQN9+/6KtrDwxDbSVLlOfSQhW94SUUKCJa2uU8YBvf7/ugegPTvrpRj6mGVlkgtqT02QLmHnoX2BHZvy5vmeGLM00k8UL819Xq7WBUp8PChd6FeQz9hk2XDzONwsA/+UX2dpJL17Q/NRZyHxHlAHhXdIYnuJWwYE2WgnFCngR6p11JMokiDtacZKc5DHlIffnGshKOnMT7OnDNs+oEV/2hPw1r8s26V5GP8u/R4IAnOP1DSa6dPn/Y61Gtb3DhYn6YP/qbHfVeSirRX6ntW/MGxAOK6S1x3iKOi3SVRLG1u2lFmsXSlHB9uafWsn0sh7rrF1xe9owJjCYbF2SnFxVWs/t0nxqBE4twlzh3iQJ3Tj6f42EbpoZH0OxHnLt/ILyRUohFGbK6DlTUm5eSQCGG9iauR5cTaLEwZ2+2VRMJSeGbxLnScGVFfnGpFyrhFbTBtshnDGWZsQuKXH5izW14ZTCvlRgoD1ThnAHZVJ1A9v/ZSzMgS+iB0D1TSa7i1Qas3E5V64Gxv4tYGrRZcCI9M+vkLs7ZRc1GfAGU8MS0CZ9lKbQL69gXGqj54keSjzm/aqYG+MqfME2fLCR6cgaVaBayoPuC6i+sOYfiWQkP9jTH1OGWUes9Sct3lFaEeuzZbrDQPTCljELmtVRxOrkcemMeYbjDWAmfWA9OHrsBxycYZ9MBkxwDzjHMrdntgBrEt5m5Zdh6eGYvVgyjK+wK/nrptse7A8QvB+4KphLeYlWte9+6gynLvUH3enc1/gyhxrhLnCl1YhTznbLeTp/+lWcsuqkhrK6UIGL/gvDvxlVJWG9jmcsbDA29fm2NMHM5270vmfAKzhjHhag9xLhLnAl3kOcvAouDDW69usJQLPlGRVpAZzbq6aNAD4xecGJdwRMA88MBUdAs442xphnPOA9OAuBT4AzcNts8gyvLCXIezx7RebtLghXkA5yl2M62n8urqA85VnCuE4ZecGNb9aRxOdvQO2sqrXtFBMSvziMAp1kr1AddVXFcoY9Csq4HnEATx6rKtfOoX5VsgmhKzH738C1OtWCnemFJGIZi30oOHsPJPH56EsC4nMCtbx4BdaNrqqV82OTht0GouQukUGs3zZjtYyikxppAzgsDqE9UAnIs4F2hjtSG3I0ilxgWFrDEqo5utGi3lh2It5QZn2rcWoa5f75fMcZb/Kad8o3wHTBmkvlnbvbLX6yFIFm0v5gX9m7euP2I+XBdxXaCNIF4IxrZNy7ZrvFtrsZLwb1TkOuoY3X9tkJWPfaPB/aLxlgSm3KbXtxTHUfgFs1/DR9L0cQ9DKTugmH9izxE1O70aTCRju+k6SpOehUHfUggqjbUbIfT7YFxL6PxMSprKqT3UcURQbljyeeUUrgZ8vXvPtxai1/0jpmYjD+R/3ob1Pfo/vAfQ+n3rCT6ThoyE6yyuM+ThF5QggwVHJ/v1MmmJyPVWvApL2S5ju5B8JvmWLIhn9P8jtz2kuG/JWIee7ZQ/ayX9/ChWQgiFRhEi0xLhF5QXoVEYhz3UvzbKt2SNK8gaA6Ez3xrGwTmLc4ZAtohw/f0EYQa/Iiw7oiCZ9b+YjNItG2jtekn9aYlA/1odU2bOnafYjcWvg/vSVPua40to3eI92JDvDEE7Y+gYbH5MGHXwHmzwrZmgnVzVH5uJCtHt3uKkrcUoxJklzgyJlJPZgktFNERqLnLP60LgVGFrmaBzwlOaKDCa6PzhaLp/Eh7fTAt24puG23er02IS/HTn/TJyfic3or9Zgvn5H+HJzKLp8UWXmmDMc8AghGYJzRBJ5pzo+ul/Gre4/9rDr1orPyCTrqjKX2jQ0zYbE7gliolRKTTLW6rAo1bR4vZMVOB7ydxZUQ73X3H5RZfa+8OlKwrzpztvGsyZcjLzGsQCbBWSRsO3w2ZMxJ3ct56+ZtM8DzrO0P0606dtNhiF29UiQDO2i+cgVqQl0eeaoTjoqZ7wuM7vabFYOZltIdrHoulRRQpogsPQQ9pzEOvQ/cN6M1ERjveEGA6PrxGtzlXgUaxSvzzMoc77tPfqjuKdEZgjnoPYFjHF1unQjzBEpqlvvQ0Avwr2RXU4PwnCt2aGwHUS1wlK8S2ZIaQlopRtDoQaxJPsiOD/uD++B2ALuEz1qQAsVbHiDlDIdZLfdH3OlKVKy+hC53H9/nCJavM3SwAKrWbAOYlzglSCZDJnwlLKNzUqizXXqouWaJQ2rKshcI8JUVtMWADmBgvQvqe7Vqddk5CVIVBbMueE/wJy2xYNTA5G9donABvNgFy2sGZuWw3U3dNo5qO67YYUYgJcs7hm6CXXA8b4liyIR80IC42EzPS0zX4nN/S7aHqI2jI6a9Yu1yyPCPjr5tqq2YzzLdSxPTZIQBeAXA8MgDOLM0MxpXw1x7OMTz5A+zFEph2/kxsUzgASP9AuZ5Yf9SBIRhyLmBt8oMON0PO+oWgVaN3VJOChCRANv1TZ0XnjgSZzA4C93n3RKI9VvtOqbzAu5Lxq3jfSfpSNRYnoUpM5JyZAN41piWAVq9W/MJKabiqigFZ0/nCO4hwhnCAZXGCCb81K+WpMsx1qusjYoUb7G7DdhEinjE44ZGot1syYdtVH9uFoJUSJ1RQawQCIxy931Butt8cI3KBkho7okJK7JkD+ROYcEW9RkJYIWLUsk8wbDMADrLpA9O3w/z4yRqQoGSRk3kC8wGu3N+hPf3fVGJWlfKVuWYtWwqZQ9nAfxX3EF5SxSb7XMvaLzpjswSkVq05C/f0OUFlHqZpOzd40IY8QpINCK2RNnpY/IhvqVsTYgknT4BzEOeAZSvni9oVW1FeDfKf45WaI3m909mSUUfc78KUJ+YfcYGAYGhpaqeUXXwb+hUlP28xkTBzIP9zFwKTOyKrdyAv6VybtsMnD6VN3v2KPUJVQxT/keQ3DKzzUiFIJ2afEt55e0ex8CGtV/eQTIfPqagftBMduUxbuNthu0Y6HlYyufBQ0uKF+zI1Rk0uxptjDfRD3Af+AYg8Pz0QlfXz6Pg3v0WwewiqiNbOH1Tn3aCeEZwYLthy0D9AiNLQSEj34x68djVeLiAAMs3abP5wqTsU/oOhm4ma0Y+MuUVNGR926XQ9iBUlHeFyF0KImYys+3P3gD3cVd8U/oGjiYtaEIKM5kPRnVJPvpSbtZmEswENpIbj+YAxAkHYYofFdhgadmloFkMX8PjLURID+dxmaaIu7Lg8phcHfr9gwJYCoS0bsG/L3pML/Plo5NTy0iV+uMFzvZpM4LRHUAzDNQ5aabgLP46lWcMNO3aPEA6v1gYZCvU5JUynAdwXMXYy74B+OoR7UsTFIP9ISAQtGh5o6ClcB3xVwoask0FQ3BRzeGGsP2ADHx0hIdFVAvttn7lr+2QRHEyMz9gI2aOI+tI9nAZVCIXf9kO/2OdMWd81Q0zHwjSfgjuyi6QEc5+s8CQXkO7vO9M1Zz27CyexoQUfTgy6cgd40KtVdKZ+q2QzyHZtz6go2BUknYysE6ADyzv+OMfDlbd007IZ8x+Yt/Y59sKm7lM/gF6MO3lnRO87MGPzS5CDpVMLptL6l13QYB6fgHRT82vPAHz4ACnXwstAwqFuDvaPqwdz3AzJpwQzKWconHURq7xlh33U/p3y/KUab1dGDvLnj0MzMfKX7ZrC3dpTTHUTc0f+u+2H/Dws45XhHf612GH41giD56GBm1ohElyyXjg937YLPYQFubho4ZfpF905nzoHgjJ1mFlHDgJ4OMl6Dz00Dbs4pOMV8ojI6eKJj8I60RDx5h9UhnbEV5DzpoONT8DmnQM4lxx2PTOn7j33HHk/mO6mDjquIueRAzhHJklemTNx4QpyDkDh8jkiwc7/CKeEH5QZN9zh6aYk4y3Snul877elIO3zuV9BzOsOZmjNBP6V8NCn6nfwooxfdSsRkGe3tpvQ1xJzOoOdqhzNd+nVWaMx3wm42BsmPGAlnd9MaRszVDnoOhhhlMgrEs4x8xITK2IUoG4vVTv9IrN+6X5bySZTYGvgcDGmYWyVGadq16pDQeWgVo+M8OwLNZeZbIUrth7o2EXOrpGHOpJjLYS5QzlIxob0FRVoihu/y8QU2eKLz++gy+nGX3FkNcyaV688yF6d+oA6sNjRu0fMh3DYNc6GVdPRnmWsyV8hmqZhV3liGOkw84uQy2sl30sLjC41vPRUa5hEL44g5DtMyd2nMdZE+MAjc3omeQ5iYTS+w0SMmfkLL3KV1Af//JzlTUd2dRy9fenn5svPLCnvR4aO7uVlGe6c7awAvruZssd5d283GdsycxOmZazzOJJp1bRKVduHWyJgbzwyN74lvobaNHEAlnby2m6MX/HJx+uzZs7GaJ5X5Tr/F7ZV1w7tHfO4vr9Q0h4Ccyd4mWYiWzC9KL9+wNtq+UdM2OoA4v+8Qy2u3Nc0hYFetJumjswLl3rdNb7NQ++/Ba+6IVTdmbhDRc/5YZ0TwRrgt+Aa46JTYMWLOH/FzeUn4aBLGF6SX0Vmso2FgGlrH+ubysoyQkReW9bbN4m0DRl6rFtaS1Dj3ppy8OBlaKaMd2L6+em/M6rEVtqsee77hE5i5N9U6p66c/GlV1uiADpTRWV2OCsT71uTjWufUNekBRpwcpAqW55uXxqw+rwpEa64atc6VbVJBRpx8KFUMvK1v096rLag58NU8t8WcbJxchK6H5dBrK9WjXW9j5rZY+5w1v0b5+t5Z3eZEjxpRc9asby6qyV10DVBKuE07R2Y0DnLNhnH656I6yXTORXIXFRoKnog4TcKGcZi/CZ0vvwxdQU5GThqcBI1MAipkZynUMOVja61nM/rIAT+t/yhcwkmLRJXRD1HTT8LlqCZIWrZj+OWqOqeCS9FTSBwl4+GkS6ESoDWPVcJyzL0cymOBlIKg0lBa52E4TjJO+gQqBlrbMbpvN7rJeOUpzrhu8xFywI84uelrG6UlArALKgfUmS1XAvCk0VK9biGoAcnJ44fk+rKjZIzatBrnhwdA3bfY1ZDyISiIZc+dB3eGOAotpaaNjDY1Dbfs5fb6oRngkSf9GkDbJNx5EafsAWAeGzftcoNiL07W3wivClAbMvZKKuvzrYmSRVuDkIVbQ8m0BXdY9qJ+3w24C6h3nzDnxZyhjIXHQ8kIISPqawjPWsp2UrdHj7oP7CIUm0QWUeIb3mZn+Txhv6UZYbd8YOce1j9kzsGcm07NUmpF8j78VMFhCP0nZs6DrPJP/QxSWcco4VIxstFSQYdhgqQyhRbm7Mz5e1D3lNTYh40RdEhLLCWtCC3M2ZjzC391WopBz4zBIwOXhDmJOUERzDlhGe8m4CFLMBnCC3MK5tQhr+On4cMwQVXZgxfmZMzphbuY05uED70SV0k3RbgkMadNzkLe2ZaKgU1iNxFu8qlG1ILk0QJfU2FOzpySmsL6vP6EPdj6TPVCmJ5GCT5VxLgsMafJnIoWsaqvI0urcxg3+FglJmhGjAsTFxsXi4uhhPTzTd0bxiIfPmPLNlnCo3c0bu+aAarBAn6onYudix8h8i0J4/a1Zjvw6QXlA6j6d3e7ylDVvOTi4OIiQ9lRY9xunuslG/DejKqDNkQZjNSn81Sk0g3i4s3FTYQKzQ7whD1rtpnPS1eVjmon6jfjzBbdm5HqZ+GMxhkPZ4QESnkPcBGwPc+53Z833a3TqtOhHSGD2YK1kDM6Z0wSCp/+q7n6+dV5wzk+p15q0aBxP0I6ZMIZJ2csApQ5e2z7pe8zm8m7Rs4EgwfTJlUb+0fdryPfMoBrvk29b0LKmpeOquOwNEbI0awoaDtxsXHxdV1ltMX2OrIg/sdg/uuOxl4WDsoeJIBC+TAVhweHk8O4zQjT60Onbxrr3kT5CGIRAfQTW6jSCKCtvDlxeHG4nNY2ARTC4rrvbaby9ISyknYEkFaJPXRBJVWeyRw2DovD7bCC5B8Af/4f8A1vHMZzOGIm96YWlFd12O++mygxXS+EnrIODjuHr8Mla7REYxGDcVqu3TSStdeVlQB/8WViGe0IYqisg8PB4e+symiL5fhLTSYy/UhZyTCCaCf2MUojiExdh7M7TQtxmjsRwD4X91JXkkUQ6SixkbwXI2arhIuMi8RFuIlfDBiOl3hx0jne/1CnRQ7sgVlKFoE/rbIOLnIuSjfLPljQueisn3RNy8eUlRTAX3aW2EsXuDA2lec2h4JDxSEcpEmYjW8sr992i8e3lNfwZoTR6yZjcHNhqq6DQ5tD7WDJDYKAvPce2bjlLbed0v++oq4kdW6phmcEo6NsoTCzMfNhZpxjGf1n4fEQkGF8qjszUUvfuhctTrGPmU3ZCu9EF4+J/aMrr2fMPJg5nSv/1I/A9xn5zvENV/f+WdRkqeiYxP2Tyvs0wh+zrWBf0prKnRg8GVwMxjFyvSBQWwnuH3TGoPfqo2PK320T4SZtMVqeAqZdmzBYDG7Him+JEDeAu/qehp7eyaM29WeMYflJomHEgj0zy9HzChFT1sfMfN3bBhHxN7++cbneqqeX1/MI4OatFlN8hZlNJzGFeuHOUaXILRZmDrfqiKLv4/nZWMD/Hc+oMTuZRW51p1XiBnqWIWbKysyLmcupIlruz0vEcOgLncQUbII7g+Ez/zEzi5nboVJodgwo1osWI4iceIx/lXYKw3c0ZnZmfi4V8m1Dlvlz+r99uYbpliqDg8F/1RmW8g7x72ToPWOCs6f0n1W5iOkbG4PXsjtl4fEg5KYRS88Wgq9djoLtLCnrYJAx6DAIV1hG/qon4+WpMw6QN5WVILigZDDqIKesDHIGpTMTuV4gYvWMA4yGysQUwYglhSxFTlkZFAwqV8o/ycFNkmRn7Fe/h5yYpllCDSX6vycGbQa1K1udsVBstoH+90lEJYavf8xkzHSZCUd4gbUyZ6SV6Lnd9rPjNv59lwwMt2uYaTBTujLxT/3At0baGL+wkb/X5/Hb05Rgur/CoOlMHUt5J2sEWjj3AmuZsJOOG0YsXSkrg+RKHf+7Nt9S37oXSLYVms1aE3ZSupGYkpayckXnipcr4gxl9J98e4hCq/DSEhEtNKuHN0zwR1zRnUhMyUtZuWJwxXzkEKXsx6rsqNRXPSTX9vq6VfdumOHcQ0sTU4LtWq64uGI/cowg/s0vei/1hkHePe6GEUtkysoVjSvqkeeYPOhEYkpoysoVnSs+n+l0dCIxJTZlfcgVv6/08kP8xJRKTD9vyxX3XR/p7h4Dz3kbgeSU9SBXPP7RZwedSEzJTlm50LkwuRCv8PoUfmJKPugXSw4GB4uDeIOl/fgJJM2YToU5KA62H/TeVQNPFhjBAykrIxojXkbEA0w/sjQx9ZJdy4iDEZN63TvhhBHrkZSVEScjFuVamHIjMfVKyvqIEcWITbVeP/PIicTUOykrMzozXmaEZG6+Zmli6kG7lhmDGT+9Wj/hhBHrrZSVgYuBzUBIpe7/zWgx9VjKykBjoCjV4UtGtJh6LmVloDPwUambJyzSYkr6yykMDAYWhdr+MSMuIfFkysrATV4ddf0ELaaew/Cnht1i4KFNkUv6R57zIIYjZEZwRkhGgCxOHtF/CYkfMX2BZYTJCEWTGqaMGPzOyykrUxBTaKYAOXT6XFtMg8CuZQrGFC41am84YcR6PGVlwsGEyYQQwv/fdCIx9XzKep+MXv7sfTcSU++nrLcOkdDL33nolqWJaYDYtYcZ4U04z+3DThixwZCyMkIwwndb8zucSEyDImVlCsvhfl9n5EZiGhgp6wZTkKvqbxCSmHr15ZTD59w0Yp14hSRQUtYdztm1Dav0t5iGBqZfwGGEzQjtkh4es8ngd55+OYURjBGOO1o3YMQlJMGTsvLjBj8u+XE4gdwzosU0iFJWftzkx5X9mkxwbTENMrs24XLics3lsJp3riROGLEBlbJyOedy12a9yeXMicQ0sFJWhg+GT4bHUo585URiGmApK8Mvhi8bNXHe1sQ0AO1ahjeGl33aveiEERtsKSvDO8M/u7TyrhOJadClrEw+mHwyeazh7h4nEtMAS1ntnLi7x0BiGmyY9sb23LViyokPvwvElDVh8s7kL5Nvk4ovrxrIBkIP41kWkzcmv5n8N6WLTH49NJD5hSDmM2omP5j8YfKFr4Nzx41k+WGIDVfw40xeqLtfPH3czF0rWKmM/MKZnDG5yeQOk/tMDgROvP50zchpXSUhS5lFQ3/eTC6Y3GZyl8mlvq4ll6b1L2B2GrGBlbKau5ivTU8zOS0sXKvDwsLC9PQa7FZlZWIamClrLCzpeY2KaGViGqApa+z0jV/Uy34nWpKYhqJdC2ZodPPRMEY7jdigS1nBpE1DC0bNNIIp8iS4aXUixoKqRL5MVWOXWJKYBqhdi0GvPcqRLlCjdi9ikPaTUKdsRiQ6w2wECsC6o2zYiUg0yyTg6RYRkV7RzLLWNsbde7aRZe1CdRWxMjENzJTVGTqjJPwps9QNpVmZNATkTUuEnJiGfR1mhFxJQ0HL8AROjNNoTLgz1bhW18yThoUys6zn18nKpLFhNLRHw1HSAFH2ezao1y+TRonc9IJeP08aK/JqaMjHS4dVnjRkdPvYq9Jhv5s0dHSrdoGyaVq0q27SGFK2+lmhe7i0KLJ+q0waUVrbqLIxVGMidL+SAA==;" vertex="1" parent="1">
          <mxGeometry x="900" y="580" width="91.79" height="100" as="geometry" />
        </mxCell>
        <mxCell id="aHFL0GVCa_0QGIggF0Ww-2" value="&lt;font style=&quot;font-size: 20px;&quot;&gt;kafka-broker-01&lt;/font&gt;" style="rounded=1;whiteSpace=wrap;html=1;fillColor=#b0e3e6;strokeColor=#0e8088;align=center;" vertex="1" parent="1">
          <mxGeometry x="955" y="720" width="180" height="48.75" as="geometry" />
        </mxCell>
        <mxCell id="aHFL0GVCa_0QGIggF0Ww-3" value="&lt;font style=&quot;font-size: 20px;&quot;&gt;kafka-broker-02&lt;/font&gt;" style="rounded=1;whiteSpace=wrap;html=1;fillColor=#b0e3e6;strokeColor=#0e8088;align=center;" vertex="1" parent="1">
          <mxGeometry x="955" y="798.75" width="180" height="48.75" as="geometry" />
        </mxCell>
        <mxCell id="aHFL0GVCa_0QGIggF0Ww-4" value="Producer" style="rounded=1;whiteSpace=wrap;html=1;fillColor=#60a917;strokeColor=#2D7600;fontSize=20;fontColor=#ffffff;" vertex="1" parent="1">
          <mxGeometry x="600" y="708.75" width="120" height="60" as="geometry" />
        </mxCell>
        <mxCell id="aHFL0GVCa_0QGIggF0Ww-5" value="" style="endArrow=classicThin;html=1;rounded=0;fillColor=#b0e3e6;strokeColor=#0e8088;strokeWidth=3;endFill=1;" edge="1" parent="1">
          <mxGeometry width="50" height="50" relative="1" as="geometry">
            <mxPoint x="1220" y="739" as="sourcePoint" />
            <mxPoint x="1440" y="738.25" as="targetPoint" />
          </mxGeometry>
        </mxCell>
        <mxCell id="aHFL0GVCa_0QGIggF0Ww-6" value="Consumer" style="rounded=1;whiteSpace=wrap;html=1;fillColor=#60a917;strokeColor=#2D7600;fontSize=20;fontColor=#ffffff;" vertex="1" parent="1">
          <mxGeometry x="1510" y="705.75" width="120" height="60" as="geometry" />
        </mxCell>
        <mxCell id="aHFL0GVCa_0QGIggF0Ww-7" value="&lt;font color=&quot;#006666&quot; style=&quot;font-size: 20px;&quot;&gt;Metadata:&lt;br&gt;-Topic&lt;br&gt;-Partition&lt;br&gt;-Offset&lt;br&gt;-Replication&lt;br&gt;&lt;/font&gt;" style="rounded=1;whiteSpace=wrap;html=1;fillColor=none;strokeColor=none;fontColor=#00331A;align=left;" vertex="1" parent="1">
          <mxGeometry x="1220" y="570" width="200" height="120" as="geometry" />
        </mxCell>
        <mxCell id="m6WEReeCqeJL14BGaEDR-1" value="&lt;font color=&quot;#006666&quot; style=&quot;font-size: 15px;&quot;&gt;-&amp;nbsp;&lt;/font&gt;&lt;font color=&quot;#006666&quot; style=&quot;font-size: 20px;&quot;&gt;Java Spring boot&lt;br&gt;- .Net core api&lt;br&gt;- NodeJS&lt;br&gt;...&lt;br&gt;&lt;/font&gt;" style="rounded=1;whiteSpace=wrap;html=1;fillColor=none;strokeColor=none;fontColor=#00331A;align=left;" vertex="1" parent="1">
          <mxGeometry x="590" y="780" width="200" height="100" as="geometry" />
        </mxCell>
        <mxCell id="m6WEReeCqeJL14BGaEDR-2" value="&lt;font style=&quot;font-size: 15px;&quot; color=&quot;#006666&quot;&gt;-&amp;nbsp;&lt;/font&gt;&lt;font style=&quot;font-size: 20px;&quot; color=&quot;#006666&quot;&gt;Java Spring boot&lt;br&gt;- .Net core api&lt;br&gt;- NodeJS&lt;br&gt;...&lt;br&gt;&lt;/font&gt;" style="rounded=1;whiteSpace=wrap;html=1;fillColor=none;strokeColor=none;fontColor=#00331A;align=left;fontFamily=Comic Sans MS;" vertex="1" parent="1">
          <mxGeometry x="1490" y="780" width="200" height="100" as="geometry" />
        </mxCell>
        <mxCell id="m6WEReeCqeJL14BGaEDR-3" value="&amp;nbsp;" style="rounded=1;whiteSpace=wrap;html=1;fillColor=none;strokeColor=#006633;arcSize=3;strokeWidth=3;" vertex="1" parent="1">
          <mxGeometry x="820" y="1090" width="470" height="190" as="geometry" />
        </mxCell>
        <mxCell id="m6WEReeCqeJL14BGaEDR-4" value="" style="shape=image;verticalLabelPosition=bottom;labelBackgroundColor=default;verticalAlign=top;aspect=fixed;imageAspect=0;image=data:image/png,iVBORw0KGgoAAAANSUhEUgAAAyAAAAGwCAYAAABRiQECAAAABGdBTUEAALGPC/xhBQAAACBjSFJNAAB6JgAAgIQAAPoAAACA6AAAdTAAAOpgAAA6mAAAF3CculE8AAAABmJLR0QA/wD/AP+gvaeTAACAAElEQVR42uyddZwcVdaG33urqm16etwl7glRPEjQ4JrA4u4uK/AtO8siCwssiwcW9+DuECRASEKIEHcb95me7q6qe78/qqq7uqdnkqCBPQ9U2qurq27N7751znsOA0H8znnssccGfPHRG2ctX7HqiOam1oqOcNgf000FTIGqqQA4pBSQUtqfYGCcQwoTzlOMxV8BICFMA5BCejRNZGb623Nzc1fuMHqHB8fvsvdrp5xySh3tdYIgCIIgiPQw2gXE74knnnii8K0Xn7lp2YqVRze1tGYJcK5oPiiaB6rqAVc0aN4A/KF8eH0ZAFNgGjHrw5xBYQoAQNr/ClNAChOAjAsUIUyYRhRGLAI90gEjFoZp6DCMGIRhwDRj8CqKmZ+fXbPjhAn/2vvAwx+eOnVqBx0dgiAIgiAIEiDEb5xHH33UN/OTD66ePevrqxpaWkNc9UHz+qFoPnj8mfBl5MDjD0JVfQBnYIzZUQxmRTUYwCSDZHZ0g0lHfUBCWieItO4DgBTSui+tWyksYSIhIIWEEQsjFulEpKMReqQDphGDMHQwacjSooINu++9z3m333nPO3TkCIIgCIIgAUIQvxGmT5/uf/n5R//z7dwFp3V0xTSPPwhF88Pjz4I3kAXNFwTjDBwKwAHOOMAZOCwBAm6LEOa+BRhjkLDTrWT377WEB2zxYT8jkxcIASElYAsS0zRgRDvQ1d6AaLgVhh6FqUeQl5XRufteEy9/4KGnH6IjShAEQRAECRCC2A658JzTT53x8Uf3N7d3+TVfEKrHD8UbsgSHooFzDs44GOfg3L5lHIxxS5AwDjAGzmzR4bpNjoow14nBgLggcWQH4hGQxK31nIAlQhKiRNhREgEhBUxDR6yzGV1tdYhFwzBjXSgvLaw+YcpJky+79toFdJQJgiAIgiABQhC/ItOnT/c8+fC9r837btGBTPMzxRMA0zLAFB/AOBRFAWMKuMLBuZIQIYqSECGwBAk4s54DA+MMYBwcAGMc4PatJUNs07ltOU8SJIiLEBaPhFjPSCldIkQCkFY0REoIW5RAWhESKQRMI4ZIRz0i7Q2IRcLwcmnusvPO//f0S6/9k448QRAEQRAkQAjilxUewQfuvOWrpSvXjtT8IXBPAEwLAkxNP5AZB7dFR1yIuBbGHBGyhahIanqWLUbi6VluEWJbRhxBAkhI4TxyCRJpP45HRqxoiBS2IBECeqQTnS0bEevqADNjcuedxzz2/MvvnskYkzQaCIIgCIIgAUIQPxPTpk3TXnzq0RmLlq3YzeMPgXuCYJ7MbRqqiqKAcQWKLUaYwsGZ0i01i9sihMWjIjwhRMB+dtO6OzIihIAUAsKMobN5EyIdTRCxLrnzzhNuffG1d/5MI4MgCIIgCBIgBPETM+WIg2/98quvr1Z8Iai+LEANAHZa1A8hEQ2xRIjiEiGcK3ZUxBYgP6VpnblEyDaa1i1BYsIwdISbNyLS3ggVhnnQoQcdds/9j1D1LIIgCIIgSIAQxI/liguuqHjz7edXdhnco/pDgBaK+zF+kkHOmCVE7EgIVziY2y/yi5nWAUiR1rTupGqlM6231a1CpKMZZQU5dVdeW1UxderUGI0agiAIgiBIgBDED+DQ/Sc+8e2C5Sd7MrLAfbk9ejx+Kn4e0zqHZdXYWtO6/e82mNZj4Ta01q2CGW3HPnvufeZjz01/hEYPQRAEQRAkQAhiK3nqqadCt/7juurmsBHQArmAmvHLDnzbtK5wd1rW9m5aF+ioX4P25hoMqChaOOPreTvQSCIIgiAIggQIQWyB00857oj33//4VdVvRT0Y137V7dmuTOsyIUR6Mq1HOlvRWrMcHuj6JVf/JffCCy/soFFFEARBEAQJEIJIwxEHTnpu9nffH+fNzAPz5mxXQ/AHm9a5HRX5uUzrdiUtt2ldGDE0bvoeRmezPO2iM4ZWXXPzchpdBEEQBEGQACEIF7tP2GH1mk31/byZBWBa5vZ7UmzBtO5ERX5t07opBJo2LUZncw32PXD/iY8//vRMGmUEQRAEQWzvKLQLiF+CXceNWre2urGvN1RkNRTczpFSQJgmAAlhV6VKLqGLeJoUhCUQhNtcjoTxHBKQTALMiXIkQiDMTr5iqVcFGAO3b5lLzHDHEA/LIO/PKoQQOpYtmn/GsUcdPHPe/O9X02gjCIIgCIIECPE/zQH77/neyjWbx3kzi8B+YbP5jxciEkKYrqpUrnK5UsBykTv3E1WspG0kt4SItKwfUsIxfTgZWBIp6VkuESLtVC53JAXgliDhLB5t8WcWwNSjWLpo4SlXnH/2GzO+/LqaRh1BEARBENsrnHYB8XNy7eUXTVi0cNkBnmA+mBr4zf4OaffkiMUiMPQodD0GQ9dh6Dp0Q4dhGtANA6ZhwDANmKYBYZjWrTBhmraIMUXiVgrIeAPChPHcybhikjnhkLgwsaoDMztNLNHDpKBiBDJyS/HI08/OmXbbbfk08giCIAiC2F4hDwjxszK4b1lMV4Ia8/3+5sRbZ1p3Kmf9EqZ1gZpVc2F2NZonnX6up6qqStAIJAiCIAhiu5tD0S4gfi5uvfHGcWGDacybvR1unQSEYadQ/TCEEDAMHboehRGLQTeiMPQYDCMG3YjBMK37pqFbkRGhQ5gmTMOEsCMipjsqIuyoiO03iUdFZOo1A9vQHhcw3E7TUlDYbwykFlTeff2FtTQCCYIgCILYHiEPCPGz0dZUO7tL5yHm2f4qXnG9FVOOPBDlJTnIzlAR9AIwwjAi7ZBGGDCjgDAgpWlN+xlHbwHDbTKty5/PtM64Al9GDmo2rc06aPK+9Yu+XzKbRiJBEARBENsTlIJF/Gz0LSs2WUYh3x5L7lYWeHHNNX+GaZpJixACpmlC13VEIhG0trZg06ZN2LBhI+Z9twjCk7t1J9a2dFrnHAw/baf1hk1L0Fa9Uq7dXKswxiSNRoIgCIIgSIAQv38BUlkhWKCYMcWz/WyUlJDSBIs1Q9MU5OXmIT8/F4WFBSgqKsTgQYMQzMwCYyxJkLzzztuY+c33QKqRXkQhTR1MCoAxSKaCKV6AJbIbE53WrV4iTEn1iGxjp3XpVMVCD53WGYQwsHHpTJQXhb759Mu5O9NoJAiCIAiCBAjx+xcgFZWSZ5YATP2lVQakMMCkDmnGIE0dkJZfI2YCMSEBrkEyDskUSK4BXAW4AtHVgmsvPBVjx0+IR0XeeOc9vP7aG/AoDKrmAZgCxlUUF2Rj0qS9UFJSAsYYhBBoamrC7NmzsXTFOkg1M0mIcKeZ4S9kWm+tX4faNQtw/U03h84888x2GpEEQRAEQZAAIX7nAqTMioCovp9ZbwhIMwqYUQjTKpEbMRgMNQMI5ID7syC9QUQ8OYhq2YAnfS+SIn0j/nXmJPSrLIdpmjAMA4+89D6eXemBNHR4Ys3wRhtRwhpx6WnHIicnt1sKl7MYhoHHHnsCrVEVjGvJJ10PndYVV2rWT9FpXUqJDUu+QHlBxspPv543iEYkQRAEQRAkQIjfNQMrSw3Tm6swT9bPoDl0MDMCUw8jGo2hS2qQGflgWSXoCpQg5isE+NbXWKiIrRS3nn94w4C+lVlSSiUSiSjXT3uBfdSQnxTFKDY24j/n7gef1wvTNBGJRPD6ex9jydpqhHwq+pUVYtwOIxEI+CGlxKOPPoa6Ngmw9NuiKAqYLUISERJLkKSmZ4HbvT/s9Ky48ZxxgDtGeVh+EiYBxtC4aRnq1n2P62+6xXPuuefqNCoJgiAIgvi1oSpYxM/G+LGjDmpsbi1nWvCnUh2QRgdEpBkdna1ol35Ec/qjtWQ3dJXvhmjuYEQDJTC15NSnLa1zBFZ1PnfLZe/271uZ4fV6l9fU1s8588ZHB82LVipWSCHx3sP6m2t3Gj28QVEUT2c4rN5075NsRmQQarQ+WI9SLGrxYs7CZcjXulBZXopx48Zh/tyvEYnqYExF0vrQW6d1mei0LlM6rUNCiq3otC4BzRdEuK0OwUytbs6c776hUUkQBEEQBAkQ4nfLbXf859W33nj1j4o38ON8IGYUItKMcEcTWqUXkbzhaKnYG9GiMYgGyyG0H9ZhnYkYJuXUNrw27cb1oVDmnoqi5Le2tcsz//n0rqtQ2W2DPV11uOPioxZkZmaOUFV14e33PxyczXbwCZ4w2UuuIqzlYuO6Ndh9eAWCGRkYOWIY3poxE0q0GQyGFakQEaiiE4U5figyikhXG6RkMIUEpICAAIQlRIQtKIR0+oIkSvnKlFK+zO5N6FTv5YqKrrY6RNvq+q/bWHsvjUqCIAiCIH5tVNoFxM/F0Ucf3Th+5OCGxs6WfB4o2vYVGGGY0Ta0RgyI3P7oqtgBuj/vpxn4eidOGqWuuefG2/1CiB1M08TylatXHXHto/1rWFHa1MQM0S7z8/IyhBCaaZrjm9pjTPjSV/iqDgzFWx9+Ls444WiuFRQid8huqGX58NR/j3JzA04/7TRkBINxz4iUEl9//TW++uY7mJ5swDQhnJQsUwFTTChMgbBTtCRXIOJ+EWF5RIQC4Tatm5ZHRPH40NbWVkIjkiAIgiAIEiDE757L/3zdgD9ddXmrR/FiazuiSyMMM9KC1qgEKx6O1rzRkKr/J9smv96Maw8b8t21l507RErpN00T85esWH7gdS8NbmGFPX5OgMPv9xt2aV7BOO85z4sxbKpvavf5fG/qul6RF9R2WRUOeoaUVOCaU06Ol/cVQtgd1Q1MnDgRQ4cOxeNPPQ+hZtmpWSYYM8BNBSKNaV2IhGldcAEuOaSQYJxZaWiMQVG8CLfrPhqNBEEQBEFsD1AKFvGz8vLLL0enHHVI9fKlyw5TNA966wkizShEVz2aOiOIFY1Ea58DEMnsA6RUkfoxhGK18r+XTP7sgtOO3xGAh1lVpGpefOO9aI4SMUN6g+Qd1YoaaeJmLAITDLC3OcZ9bI/+/o19K8rLFUXhS5cubl3UqPglT6PjpcAeZbJj4i4TdlJVtfKbRas71nR4fMeN8q8Y3K+Ca5rm/3LWXEx79nW89/YbWDjnK4wdPx65eXkozM/F4iXLkn73j+m0Hg03AbF20dDcdgONSIIgCIIgfm2oChbxi3DoQZMemTd/2elaRh64J5Q6W4eMNKOlsxNmwVC0Fe0Un/T/lBQam8w3/3XhJzuOHbXfFt7aKYTY0NTU1Lpq7Tp2ze2Pjvy4uSgAAOO9G9re+e+NnaZpFnd0dCybcublgxf4xnGR4nHJ6VqPu87Z57shgwfuYJqmedrfH+YrO/3KK388YLbf58tevnz5mhuf+eyAzcER8EdqkV/3NYzWGvzxysuRX1iEBx6YhuoW0eMpmtRp3YmM2FWyUjutt9etgk+2N89fsiqXRiJBEARBEL82FAEhfhGWr1z72gH77J6xbvWq3RWFweoNYk2uRaQJTbqCziFHoyt74DaVz90WAmYrZs1dWPrWJ1+FP/3q245vFyxuXbxiVdOGjZsam5tbmnRdr1cU3qgoiqkoSlEgEOhXXlpa9uZnc/TFjUwDgBrd721f823N5Em7+3w+X8lRB++7fNGHz2W0tLVrQpjwRptQFl0tj9mpYt3hBx84QFEUpbm1bcV9H60q9Jsd8uzDd69TVXVYdU0tXl/cnmtomTDUINpCQ+DNyMLi2Z9i3732wLBhQzFz5le9RH8kpBAwTWOLpvVwaw0G9i35ZPmqdc/QSCQIgiAI4teGPCDEL8ZLr737x7POO/3dD99450NhRJniywYUHyAFvNnlaPupyvX2QL1Wwevb4Ecb/FgdBhAGUJ14QywMZoQRkBH4EUFu0GuUFWTH5tQiAJZpTfu5B9PmRga1XHvrpv/eem1zXl7e0Bcen9a+fsOGeavWrFMyM/ysf79+AVVV+9sNCdtuePiNvlFfPmTYYJwrwuPRwLgSFIo38d2MoTE4CK3eYixftQajRw5DKENBa3TLv8s0zR5N6yYEhB7Fvsccddab739Gg5AgCIIgiF8dioAQvyjfzvluzYMPP3Lz6sXfTqmrrc53ytK2d3YgWjDy5/nSWCcQ64QWbYE/1owMsxU+oxXeWDN8ejP8Rit8Rhu43gEFAlA1tMkAGkWQrw37tBhPMcBzFYualNDzz7/gH1SSvWzIwH4ZuTk5/fr1qSwqKS4u8nq9OYqiIBbT115yw/2ZH9aGAmAMJtOw3+DQhrKSovJIJFr7+peLc/XUJo2MoZ/aIMaMGsGa6muwZtUKMMXfrX9IOqyeIgJCmJBCQkJA72wAYm3iuadfvJpGH0EQBEEQ2wMUASF+caZOnRoDMOz222+veObRBxZsrm/KNrsMwIgA6g8r1sS6WpAlm+A3wzA6m2B2tUF2tUFG28GNKJjQIUwddrsMe8YOgElIMAASPs7BGAMDEJASpuIBuGpFabxBcH8WeEY21EAWOlkQq7R87ah/fza87I7nzcN3G1E/cmBph0dR0NTcJuav2pDz7vyafk2ekoSNQ/Xiybc+L79n/Gg5auRwb7l4SC5DRZKyYKYOXTe+55zXZ5UNntQU/YblyHpwX/5WN1eUUsI0DZiGgBFuwa677HTt6g2v0cAjCIIgCGK7gEzoxK/OpVdeuuOzjzz8TXjYsejI7L/lD8Q6kavXQA3XQW+phtnRBB5tAZcCmscjGedSUVVTUdQoGI8qihJTVVWoFl4hBGOMQQjht9OkRCwWi9i3USGE0HXdFEIAkCoD8wHCJ6X0MAmFc8YYY4DqhfRlQ80shCenGGFPPtr9pb0a6IPRWnx46+mfl5cWT3x2+ssrbnnl28ENgcRvLuhcgaf/dsp3ebm5A//6nydb3tmcUR5c/jpylS4ogcJtOmVFVwO86NSXrd7ooVFGEARBEAQJEIJwMaRfeawuNFJrLt4tzUzaRFbXRng6NkBvXA+jtRZepkNRNQmumEJCr6io6KioqMjMycnxhEIhKaWUuq5D13Wp6zpisZh07vdwKw3DSH0/7OdlLBaDrusSAOOcc8aYUBTeqSo8k4H5GKAySCY8GVBCxfAW9kWHrxSd/tJukYuBbGPki8eu38A5L5v+0isb7n3y1cHVrIh5EcMRY4s2XH7hOSVCCOWimx/u+qQ+OwBhILTyDeSgA0qgYKtOWxlrQ7S9FudcfkFZ1Z+qNtMIIwiCIAiCBAhBuNhj5zHLF9RhUOvgo23RYSArvB5K8yrEaldBb6+HKRL5UwpnUDmDpmnIzAwKCSY5V4SqaTGP1xvJzs5BKBQKBYNB5vP5hGmaPQqP1OccsWEYRtJzhmFIAFAUBZqmQVGU+MIY44ZhGMI0dcaQw6TQJBiTGXnQ8vshlj0A7YGKuBjZQdvQ/tGjN21UVXWYrutr165dWxcIBGR2dvZo0zS9Tc0tK3a/7L+Dw96C+P4ILX8VuUoE3F/Q+840OhFtr8X++048/bEnX3iMRhdBEARBECRACCKFSy8+59zHnn3zAXXYAfC0rUPnpmXQ2xugm6LXz+WHAnj97ydKIWTz8prW2Lcra32L19X461s61I6IzqKmQFQ3paIoBlfUsM/nj4VCoaxAIMAYY2JLUZHU5zjnUBQFqqom3Tr3ncemaSqdnZ3tpmkEIcxMaRhMhIrhLRuB5uBQGN4QBimbYndf+Yf5e+yy4yjTNH12Z3QZjUY3T7385rwvWgqSDDHMiCBz6YvI86tg3py0+0PG2hDrbMCuE8ZWvfj623+nkUUQBEEQBAkQgkjD9OnT/eefdXo4HNW3KDrcHLr7qPA1x+4S6O09UrLO2avrop/OX+1fXd3kae2MsI6uGHQhBFfUsKpqEa/Xm+n1eqVpmiIlCpIUFXHERmoEJPVxihjhra2tXZGucEiauk8wL1OKBqGraBy61CyMy2mPHLzrDg35IV/HhrrmzOc/W1yygZWldZyrejsyFr+A3FA2mJbhekVARJpghFtxwL57nfrIU88/QaOKIAiCIAgSIATRC2UF2bK2uWOr3+/VON658bSwT1MCWzXY7VK2zu36hva2l2cu05aur/U0tHey9s6oNCWiEqxdUZQg59xMTcFKFRc9Pe4pShKJRHhNTU2HoUcLhICGgoGIluyIsL9kq393TsMchBoWQQnanzHCMLqa4WW6eeLxZ/evuqVqPY0mgiAIgiC2V6gML7HdYBjmNr2/KDdbbkl8pIoOgMVbavQpzApdcdRO8fdGTRGZ/vkSMXPBmvyalg7W0h6WppSduq5HpJR+xphkrn4cjDFsy2POOTIzM0V2dnZAShmurq6OtDSvztSa1/p9+YNZa+lEmFtoxsjMKGTN9+CBACB0iGgzYuFWjBw26MP3Pv7iAMaYpJFEEARBEMT2DEVAiO2GsoIcUdvczrZ24F509N7Nf9hjUM7WCI/ehIj9QreToalTr3vw7dmZC1ZXe6sbmlkkZui6YbYqiuLVNE1sawQkXUSEMYbNmzfHamo2Z0DLCKDPLqw+NKLHU7Owegb8ravBFA16JIySvGDTmVdfNuz8U86voxFEEARBEAQJEILYBgaUFxnrahqVrXlv0Kfh3RtP0zmHlk58JAsOR2wkRIc7MpFOfKQ5VSLPfP595L2vl2ZuamhFZyTWBcbCXq/Xq2maTBUh2+oT4Zxj9erVsbq6mkxWMMRXWziRCTW5A3teeBW65r6ADJ+GyrKSxpPOuHTC5Zefv5ZGDkEQBEEQJEAI4gcwcnBlx9LVmzO25r2DK4rEY1cczrdGeHSLfrgFRzfxwdKfFTL+DwCYM77f2Prm10t8i9bUoK0z0qFpmhoMBhVVVeW2eEJS3xuLxfh3878LR5XMnI6Kvb0d3kIAQGakGur3L2F4v+IN51/6x5EnnXRSG40YgiAIgiBIgBDEj2DnsUM3zF24snyLg5YB151ycOOBY8ryUsWHW2xsWxpWQnj0dFLIFCFi3ZX6nNVNTe/NW6l9Nm+Z2t4Z6QyFQoHMzEypaVqvYqO3KMnGjRuNxavWK7L/3jmd8MO39FUMqchd++XsBf1opBAEQRAEQQKEIH4CDtx3908++nTW3lt6X6bfg/duOlUA4KmCo8fIhxPpiEc8uouPrTkZuokQ+74EIE1hfr2yvv3lL78X3y7bwIREZ25ublYoFDJ/SOWsrq4u/ukXX0WjsVh+eY4vvGDZmiCNEoIgCIIgfusotAuI7YX9Dti3eN68Bftt6X2VxXniqN2G8oTo4EkCJHlJfo0797nrde56vsf1uaIqjIE5AsYWNPZrvCI/6Nt/TF//ifuOVorzcrC5oZmv27CJNbe0NiuK4g8EAnHPh9PU0Lmf+tjn88mhgwcpjfV1USaFevSRh70zZ978GhopBEEQBEGQACGIn4Arrri68603Xj9PyN4ryR6717j2sf0LvD2KDt79Pk8SFjxJiHCWLEZ6XK87suISHt1N7gwKgzKoJMt/8PgB3qkTh8tQ0O+pb2pTVq5Zp9TW1XdIKdVAIMBVVe1ViKiqigEDBqC1I9y1YMGCsw85cJ/IgkVLv6bRQhAEQRDEbxXqA0JsN5imuVlTeK+d0L0qx0l7D+M9pVylRiiSBMJWpGHZ99IiWfwfuP91buK3Kfi8mu+YXQf7jt5lEEwB4/356zNmLFyjLlm8iOtChjMygl2lpaVZRUVFJoC0vUTGjx/vWZuXF/v8y9l/O+7og/o///I7F9OIIQiCIAiCBAhB/AhWr17d4PGoCMeMHt+TGfDBo7JgT2IjrQ8kSXg4fg+37yPVA5K+DBZLESHOEwwSEs5tihBJESUKhzp5bGXW5DEVkFKKeasbOj9etD5r/qr1nmVLFnOP19eWk5sbLSkpCRUVFZmapsU/PXDgQMXn84lZX31x5qXnnvnCf6Y9/BmNGoIgCIIgfmuQCZ3YrigryJa1zR09vj56UGXswYsP9iSLj60RIN3TpJzbtOKDJWmPpAduI7rbhA5pPZaQae47S7rnJHRDVE+6+qESw5RQFQ6vR4PX6xOaxxPxeH0dwcxMQ1EUKYTQW5oaSwf1KVn04Rezx9OIIQiCIAjitwZFQIhflaqqKp6flTXmg/de+0t+fsEXn332uUBzB+/p/f1L8jrAWG5v4iO9UbznNKx4RKQnSc7cQsSOdCSlXSWHOXrIxEoSNDKl6pam8hK/R0Vblw7dFNC7oujoinKPygOjhw1SFy9b5hk+oCLWryTXmFnT6enoDBfR6CEIgiAIggQIQWwjmZn+va677tqPi3JDck7Ht8f2ln4FAF0x3WvHN2zhgbSG8d59ID2nYSX0RnIIJDm1KqE+4mlX8XXILasPsLgIcRPK8KOtS096zu/RsHrdes9dFx/dMKw8Oz8cMzo+nL04UF5Z/jjmfU8DiCAIgiCI3xxUBYv4VfF72fUNNfWjn/vLseL4vXdgXPV2rNpY5+3qQYiU5GXLyeMHqD1UqhIfLlhf0xrWu0rzghndK2Mlql8l33JXtazeSvpiK6Mp1n3J0P7wB991/fPpjzyvf7VUbGwKR3YeUqYhjcABgC+WbDA31bcmRX+klLj17MNqR/XJzQNj5mXT3g0UlpRsfO/jLw+j0UMQBEEQxG8RioAQvyoHTD7yggXfzj/x4mkfiLvP3V85ca9hmcdNHNJyzPXPZNe3dXV7f2tnF08nDiQQPehP//XWtHSUeBSOM4/cu/7Cg8cX9CwckqMgliToJQ3LHflISrtyJVwxRKVkmz/9fh3/z/RPKtbXNGSGowkhtWj15sCS9bX6fRceogDSJTSsLxw9sCI8a/H6TPfX7jpqYHRMv7yiNe2o75cpC4SQIjMjRKEPgiAIgiB+s5AJnfjVuffee4M3/u3a9pf/ekKjoXpNxYgEY4ZhHP33p0Ot4VjSeweUFYjp1x7XTYScc+erxqzFa+OCWuEMZQXZ8sazjlgzYVBRgHFWyMCszulJ6Vdb4QFJEiGOidy698mCdfW3PvVefkNLG9NNE1IC4ZgBp5WJV+UIBXxQVY6G1k7opkSfolw5/bqT2jwKstxG9DX1bXVT//5kofPZ3KAPr19/kv7kp0u6Fqyq9t1+5r6e6576NNbYZdbPXrCsnEYOQRAEQRC/RSgCQvzqXHjhhR0VhbmyM2ZEMxWZe9UTn3puOGHP9vsvOabhjNufz4/oib4gm+qa+Kq6jnUDi0N9HPHx3dq6jfOWry939IMEYAqJ9bXN7LSbH+/v91iZhpxznHf0vo1nHzQujyVFQexPpkZCkrSHdAVAGFbWt2w6959Pl66vbSowRcL04VEZ8oJ+lBflmQfvPqLtD3uO9nAuMyAl1ta2tF31wOvBVRvr+X5XPpD1yg2nN+cFvTnOZyuLcqKawhAzJDgDTjxwl4Y1de2xZ96bVVpZUigBoH9pXnTtd2tyadQQBEEQBPFbhdMuILYXOqNCQsK7at0mfuwNT2flZfv5qZN36eCuxnwR3cR5tz3fR5joskQDM/9432vlMUMg4FFx/dmHdey+Q3/TER2mkOiIGOiIGGgLx3D7M+/mHf+Pp/U19eElYKyd9eYB4azb85Kh48QbnzIPueLusjXVjUxKiawML0b2KzX/fPLkpvmP/CX65X2X4/nrTlZO2WdsjqqyDMcU36coOzT9upP509ed2pzh03D27S9m2zlhABiWbmiUhmmJmbxQBk7YY4hyyd2vlvYvKzYHlBdEunTRNrpvcSQSiXpotBAEQRAE8VuFIiDEdgHjXDaHI7wwU+vaZfRgY9HydZnH3fBM7lN/Pr5+xncrMpZtqI+rkKaOLlx8/1vKA5cchjtf/aqrrrUzmJ3hxZPXnBIeUJoTPHb34dANUz//Py/zRas2KeWFuaJPSUFs9uIVvub2COYuXasdcNkdw3yqggy/F1edOLnh+Ek75PeYhmVHPl6dubj92gdezgxHDQR9Gob2KTSvOG7f2r126FssIRUpZa7T/yOO7L6+oeV5Oe//61z8+5UvY6aUUYUhBADPfvxtkZAAZ8Bx++5cd8rtL+ebUuLf5x4gP5i/vuv79U1yeGU+DEOnCwcEQRAEQZAAIYgfNRAVLuubu5TBRRkyJ+CVT/7pWHFU1dPKCTc9W3DvFSesuuC2pwa0RxIlartiOmeMYc3mRl+fojz54t9OjgV8noATvfB6NO3RPx7vVK/iYMzHGMPampbW256fEVizuVb1eb2yT0m+kR30eRjjYEnigyX382ASQ8oLZGVxvjj9sN3bj9tzhyxLdKA0WXEAkrF2KRAGRAaDCKYty8skLj9qV6+U0ivtzy9ZvdkDANlBP1bVNyorN9bzKZN2bPd71Mz9d6jw17ZGWEAFB3m3CIIgCIL4DUMTGWK7YHDf0tgxe+7QftRO/bK+XF7fPHFIUX5bxKw5+JqHi32aht12Hlv38effFBq232LXUQNj0y493OMuqZu88KQmhXC/Bucx0lTDYj0XwbLN5zL1VqLzr4++h49mL8qImkBU1xGLxQAhkBnwIiPgk/vuOLLj6mN28wCW4HAW4dwXEntdfh/aunTsNGZYy7yFS7MzA154NA9eue54KWWia8gx/3gO0x572nfwwQdHaeQQBEEQBPFbgyIgxHaBwrnR1B5RIKHsPrgwnzGGp2YszCjOzZL1zW1s44aNuUMqCsX362o5AGT4PMIurAtXR8L40haO1f7rxc9C85et87V2hJmUEl6PJovzc81zj5jYuN/YAYVWVV7r/TEDm5vbOz0lucH8btI87j93Gg0mGg4+/sG3rf9+5t2sjEAAmxvbuv0u3ZS489Kpm+98/pOiQ699RLn+jEMaxg4ozHevF5CIGkZHOGoEAWB8v+Ku5StWZx85aULLR18vynrqs+WtJ+4xKDt+1YABra2tJQDW0sghCIIgCIIECEH8ADweT6y1PaLEO5kD+PCbxZl/PeXgmuseeaP4xP12ainK84fPvvmZSgnA7/XIuN5w/dcWidWfecvz+R3hrsLm9jBr6Yi4v4atq21Wl6xeXxQM+HH/H09qGD+oNL+2qbNx74tvK1UVBQue+GtM4cyTpECYjN+4O3/c/uJnHc+/93XWU38/s6PBP9D36dxF6qaNG7Fx0yasWrUKXV1daAtH8eyH32Y/dNWxajRmtlwx7c2s/qfu35bl94Sc9UowrKlrMZzoTkHIz6bsM779myXrgn/Yb0Ljsx99m3vSnoPhpGoxxrB+/fJBJEAIgiAIgvgtQmZWYrvA7/N1NrR1Jmb9jEHXTew4sCArKzMoJ4+pyBvft6DQqW5l9R6MKxAwBnTpZlPVEx/m3HL24S0f3Ha+ed3fqmRVVRXOOP10jBkzJr7qgtwccf9VJ7Zd88ArebXNnS0leZl59119SpsQAif+48l4+hbvls6VuG8K0fHhrO8DX95/dXRUn+LgYfvuqt5z15146L8PycMOOwycJ06taMxUGBi8mpJ9z4WHK16vv8tpiOjIp8r8XCjc+vkF2UHj3MljMzRV4YfvNMjUDcN9nsZisRiiUSNCo4YgCIIgCBIgBPEDCYYyautb2jyWuLB8GKqqAICvsiQ/yjkYA3zZQT8AQDfNpOgHLOM5/895h6qDK/JyGFfV8847n115+WVyp513QltbIj0qEMxgE4aUh96/42KZk+EXjDHsN35Q6JN7rmqev2y1Z/7Kumpul+HlcSGSKNXLOENrWJgv33hO2KMpXsYYOlZ+ZVx62eUYOnQYu/nmm9HZ2QkAyPBpuO7kfVmiIzt4QJNF8S23xVOGX830qtbpmJfll4wxXlmYHWvujORcctTEdicqNP3LFWGv1yeuu+4fn9OoIQiCIAiCBAhB/EDG77jnJTUNzVpjZ7TGee6qP0yKCimMoqwM3QlzDO5TrANAJGJwd/SDgUFlyHaeAwTefHW6OXrsOHbeeedj9erVAICK8jL88bhJYTuiwf1+LdcRFmUFWTlD+pUZF935dJH1HI/3AnFEiBMVKcjyZQX93mA8MhLpVI2a5dHC3CxkhzKRk5WJ8vwsPH/9meHsTJ8XdsSDuYQHkqIgULweFZwxBH0eCQC5oYzogupwfVlBdpsjzKZ/NCd73Pixj9OIIQiCIAjitwp5QIjtgltuv/2LPXYes/rCu97sN/3aKZIxxkb3LWl54eu1hgGW6eiKqZPGts6YtzK/vSuixKfuTgWrFD/IDnwD9tltR1laXMSiMR2lRfnyhN0GdE4cXhZMqooVr4LFMGFon673vl6cwZijzZ2sMLnF33D9aQd4pdzfrm4lnEpXAenqlC5t3wckixvQJbMe+70etIdjyPR5GMAQ0WPqyzPmlvQrzI7GgOi+O1TWGaas2GHC7me9/OYHNGgIgiAIgiABQhA/houvvGbY5ReeG733vUWbygtygnOWrM6JGBx+r2o4YmDiiMqQT+Po7IxwR3gkp2LZQoQx+FSm/PXw4WB8hCM2GGM82L1kb0KArNxQ78200rJ4ch8QuBzoiVe6yxLbKA6WeJHZJXsBMKeaLrOfkQyOncWjqpIzxrwq9zIGtLZ3qRIcVx65oyYkmo+5/qmKYcMGz6iqqhI0WgiCIAiC+K1CKVjEdsPUqVNje+6z59mvzZhdVhTSOm86dZIn08dYbVOrH2B2FVzpycrwo6WzU4m37kgTAYErxSnpv6Rqvcx1ay3ra+q1otwskzupVzydET3d4lpnt21wtivxGO7H9q/g3PqMV2OZAOD3eVjfwlBESujH3/RsfklZyYaPvpg9iUYKQRAEQRAkQAjiJ+LZ51/77867jn/4H4++U/roR4uarpmyu6wsyNRjpuh0xMYuIwbEwpFYUvpVPB2rWypWQogkezC6iw/GGJpaO9mgsqKYJTisxREhvEfR4RI+6cQQ3KIjWXgkbCAMCmfQFA7OmR9g+NMxu3n+dPQu7PibnvPl5uU3zvp2cSWNEIIgCIIgSIAQxE/M2+9+dtYxpx612yufzsu+6IF3+N9O2MvwqjzoTO5vOH0/U7Xm9Ua3KAiQPOlnLmngEiLJbpGEqOiKxTB2WJ9o+q7qvUU7ekkHS42IpIl+AADjDPnZIek8bUoZPvYfT/mycnNbZi9YWkAjgyAIgiAIEiAE8TNx751PfHXbXff7dSk7Drn20cCKmtY1EqyRAYJz7p84dnBsY1O4uVfx0UPakyMeUrunM8bDUd3E7qP7m+kjHsmiBWmER2oEBC6N0eO22fdVpuD4/SY0xwzUvL1g0+aj//akPysnt2XuwmW5NCIIgiAIgvi9wGgXENs7hx245/Rv5y6YIqXEUZMmtF9y+E6ZgsGIxsyOTL83m8VTpHi8T0e8ZC5PLp+b7jVHXKyuaa7f5YzrC+rfubNLUbjfcZ5LCaeiVcoiIIWESPvYroIlXBWxhPW86OH+V0s3t+04qNj7hxuf8TS1dWJA3z7ffzZ7/igaAQRBEARB/J6gCAix3fPGe59Nve/hx0OapomGtqgAAIUxNejTsrsp6eQgQ5rXuqc/WVERhrdmLvRqigJFUfwJYcLTG86dT3Z77F6r87U9bVTytuwypCS0oratuq0zgk31LZzEB0EQBEEQJEAI4lfiiCOOaA+Ggp0t7e1aN7XR04QfvU/4E3et+7OXrPZ6PGqvla7gFh5Itx1wZ4SljTH2FnaMdEVUzrmkI04QBEEQBAkQgviVyQqFNjc0t3mSJvE/IokwxQOODTX1ms/jgaNJOLeiH+hB2qTqHNaLKNpaNE2J9wwhCIIgCIIgAUIQvyJ5hflzWzvDyWP2J5yrN7V28FAwIADEfR+9fsHPoBN8qsKkkOTNIgiCIAiCBAhB/NrssfekpyPRGIfsuQ/5tugCmfLmzq4o8nNCpmU8TyzOu6V0xyZk8prc2yR/uEIJ+DSKfxAEQRAEQQKEILYHKioGfsd6lxPJ922FIXu47/wrrXAHojED/cuKYu6qV0I4QsQtNuzKWN3ER5qt6WmzesCjaZBS0MEmCIIgCIIECEH82hx//PHVtq1CT53ky26T/OSZf6oIkYl/AACmlEbUMLHriP5hp4SuECJN6V0kR0F6fCx73Bb0IohUldM5SRAEQRAECRCC2B5gjEkGJg2BhnQhBpkSYpCOCEid7NvCw7krpUR1Y0uHKSSG9imRUqSIDiFgCNl6yZ3TI3uc9y9x0j8ej+qGCCdHQbpHRbpvk0xK+0oXNfFwzl3hFoIgCIIgCBIgBPGrDlhFkUuqm/S00QaZXoS4hYdMER7O8sm85VxI4Lhr7i6cv7ZhqZCiWUjRsqamebNuigiHzPrXRUfLv5x2aPO8xSu91zz0li06UoWHdG1O8nbJVHGURphwzhQ6ygRBEARB/J5RaRcQvyX8Pl/0s+/WZI4qzwWDBCSDVTNKWkVyJSCZNblnTjEp5kz3WXzCn+ol2W34QKUiPws1ze3Y57wbhvo9KjIDPuTnZoVeu+WizqwMj09lzH/gjoP9Bz5VBSllwPGOOIt0C49eoyA9p2GpCicBQhAEQRAECRCC2F7IysqsX7xmcxHkeEiGuAgBugsP5zGk078jfQ0rAKgsysqY98R1EEJgyYaGmDBNZYcBpQqsKGGmFDLJsJ7uv4QYcW5kz1GQHjwggCQBQhAEQRAECZBfgGwALXQ4iC2RW5g/b92KVYehW/QDPQqR+EQ/XQktmfyAMYYRfQo8AEspweu6dQRIqkG9mxhxC49UP4p0eeBdaWGQmvxR7RUJgiAIgiC2b34xD8j4UUNWZWd4ZV6mX+Zl+mVu0CdzM/0iJ+gTOUFfU3bQJ7IzfCI7w2cG/R4RyvCZOUG/udsuO55Ph4lwmLDzHo+3dXTxnjwXSRGH1EiF3MIi3LcisYjePoeUJUWMpBEibuGRGgVhgEL6gyAIgiCI3zO/WASko609NGV4FsaXZ0A3JXQhoZuSWbdwHkMXkummRMQQ7KuNXWhu7RhPh4lwGDRo6NdmPA2K2XN1CeYKcUi4YgjxCEfqpD45HYvZ/1qfZmAyzTudRoRJEZBEWlZS1CNVAMk0ERAklwOWAKSQGh1lgiAIgiB+z/yCVbAk2DZc2FU4g8JZfIpJEABw0kkn1QASQqIlKQLijjCkTvgTZa96jYCI+H0BYT9OfS5+64qKpFmvQNL3p0ZikLYcsP0PowFPEARBEAQJkJ9GfmzzZxgArkiajxGJMcGY5ADWNnQ2ym5m79QoRHeRga1Kv0pJwdpiGpYlOj6Zv6724D89ID9dtHFzappWkghyCRGZri8JaW6CIAiCIH7H/GIpWIzhB3VX42CCDhPhJhAI6O/NWR4676CxTgZWishNP9Raw3rLpwvX6oftMoQrHHnxrKte0q+QtEYJU7Kmb5aui81bvslT19yhhg2TKd4g84Vy1UAgM7OiuCC2x4jS8vT+E5fgkEmulSQh8gNPFYIgCIIgCBIgPwUKUww6TISb3Jys+i8Xrio8b/KYRH8PRyb0FDyQQMivZs9duqbz9qffCQwbPiScGQwxj9enezya1DSNMyaMSCTq5VIyhcPwMCY9Pg0SnHszMmVecblZUFjE8ocNFQftmd/i8fgydF3P13WdR6NR443pT7BbzzpEpo2QoHvkI8k7YguRRRsa60whCukoEwRBEARBAuTH8oMu6zIwRZIAIZI4durJ+9/6r5u/j8Zks9fDctI7xrsNJUACVafsn3FrMNCZ3X9CrKCw0BcIBDwZGRnIyMhggUDAGwwGEQgEWEZGhmo/xzRNQywWQzQaZfZtlvOYMQbDMFqnP/5gxkk7lYmMgOpPTflKXSTSd2SHlOLPD7xeOHLMyPc3fziTDjRBEARBEL9LfjEPSLwZ9TbJD4AxxukwEW6uuuaaxQV5OV2XTnvTB6Sf5PdmOL/66N0ytPrF2tqVy7mUcptT/FjCJq7Pm/N15LE7b/RfNXmoUlmY5U8VHj35UFIjHxLALS99GVU1j3jvgy8m01EmCIIgCIIEyI9n2yMglgKhbu1ENw4+9Lj9F6/a5DdMsVH2MtHv6bXT9hsTPGvHbPOb919WFsydxTra22JbO45rajZ3vv/Gy/rdN1yD0dgo/n7iRK9H5Xzr+oQg7XY2t0cbPvj6e/8Bhx2yP2OMTCAEQRAEQfxu+cXK7QztW1q9Z6FRPK4sqQ8I0vQBid/O2hSBN7/8kW/mLTqTDhWRyqih/TpUMM/TfzpWYYxxxhgSix2pcB4j8Tzsx9b/1u3MRes7vlzVoBWV95EFJeVgigcejwcer0+aRgStDQ2yramOr1m5DAeO7WfuNLgsw2l6GL+V7hLAMq3Y6L4ISCnlUVVPoqy8fNVns74bREeWIAiCIIjfM7+gB4T9oBQs3aTGbER6rvjTdfn/+OtfOq988P3o7ecc4O8+eqRj/Ygju6tuCYDtNqIiuPuISvujXQC6kt8VAtCvAHJ8vvUhS2zI5hhfk6XJbCZFbrwkcDoB0uN/wH/emtusGyLnoiuvGfrZ1Kl0YAmCIAiC+F2zfadgAeAQlIJFpOX000+PXHHj/xUuWr3ed+uLs1oT5W57jTbYPT2s3h5Cyq66CF8fM7E06XV3XxDh+oz1nNHUZaxa0hDZHFKMbAiRK1L7ifSyuPOxVmxu3vDGp9/mTj70wKOnTp1q0lElCIIgCOL3zi/YB+SH5bXLX1YkEb8xLjr1osYr/nze+KemPf1tKNPTcN7ksflbI3UTkRAZyNdkZYeBjQ2Cr2PSVDI9nlYvEx7OASYREIx1RAXCnTEj04SiKRAsx8uLsjyeYLysLlxRD7j9J8lREbcvpStmNpx/xwsVY8eMeufBh599lY4mQRAEQRAkQH5CpJQ/SICYoBQsonfu+OcD806YcuQFT739/n0Bn1Z9yl4jSxyJ0S3lSgJW2V47OUsySCaRobDyDMUEGGDISGGnLmICUgcY41KG/Jqq5HlYANIA3L08knwgWxYgjvgQQoaP/ttj+UJKFPcpv5eOIkEQBEEQJEB+ati2+90ZJJjkCh0mIt3wOGf8eDWkb/TscPTJGfe89cZNQkhMe+mTkg4RxgWTduwmOqRlOXc9102ZABJQGPMEVcWDlJelq2yu849Mc7sVAkQcf9Nzfk3zYtDQQXj7tbffnLTLuAUffzV3DFXAIgiCIAji984v1wfkhzQiZAyS/XKVuojtnynTpys33//vvgcduvOXn7dUdz69KdJxyW331q5fVZ097oRByM8L4plXZuGWt7/o0Qfi+DWETPKCoJsHRKT4QZzPinTrSbe+9CWBL37gbZHpUxiDwNnnXoor/3wNVq1Zt8PAiiLjykvOGk9HmSAIgiCI3zO/2OR++IDydRPzYpXbUoZ39qYIRFbJW/MXLTmUDtX/uPCYMkXRgl23z5ox9+K25nbu82nILcnAmmUNKKvIQZ8puTB1FTnfSBy3z6jW6x7+IGvwoFJ5wwn725V3GQB3GV4kHjunAuv9hEhEPqw78agHYHc4R49pWLCjIDe/9ik6G7tw/uET5OdLNpkzNzWqB049HKXBfnhq2jQsXLgYw4cPnr/X/oeNq6qqEnTkCYIgCIL4vbFdG7wZJBgTZEL/H+fQo/d87avPPjQ+fPXTS0NFPj7+yuEYedEAhNsM5OYE0WdKLgBg/UvVOGrPkZGAqmT985zJ7fU1zeySB9423FGK5EpVwvV8InIhUt4ff5z2cykVs9yRlJTl2dmLsG5NA847bIIBMLb7sHK9eV0dZtS8iudW3ImiQ7Jx1CWHYe2adaMfe+Ae44wTjjvxl7xIQBAEQRAE8XsTIPKHfIBSsP53+etfrxg7qF+xOfOD2YcXDsrF+KuHofiIAjAViFbHUF/bioHHFlhjRQADCnKR7VN9AKAyZF57wl4RLwz1jDteEcnCwSUgktKlRFLKVZLwiJfhTZeGlX69bvExe+NGvPLufPzpD3t2McZU++Tz7zWmn2j7JgxIoClah3Xacgw9vxKVowrZ2+++/dTOY4bW3XnWWUVVpaWBKVOmkB+KIAiCIAgSIFvPD2tECMFo0vU/xpQpU5RJe++w9L7/TPvWNAXf6bIRKDokLxELMAWWTl+Hsn75UEPW8Gj5phN7jOqXmrLku/ionfXyXD877bYXpZRSpo1WpIoQtxBxCQ+ZFAkRW+j7kYiC1Ifb8ff7P8BfT5kU8Sg8qWHiPuMGNDQsaoGMnx5W6lbGRC/GXNAPDc2N+be+9mLN0l1H3DIuXwvd8sczMkmIEARBEARBAmRrxMQPrO7DKALyP8XJZx982qzPP9IXz18zZMTB5RhybiW4D4n4mQSavmyDrgtUHJUXr67WtKIDI/vk691WKKGdddA4c0BxCKfe9hKkFKK39CuZKkRcQiJVfHQzrqcIEiEloqaJM25+AVefsKeRm+H1pW6ej7HCglAGwFl8wEPVAE0F83sx+Ny+6Ld3OWZ8Muuipz76otboW9xv3KRJoao33giA0rMIgiAIgiAB0is/rBGhYDTJ+h/grosv9u6y45CGd6Z/+mhWvo+NvbAPMkYGAc6tBRIwBaRuYOXMTRi4R5kVVBNW0CMvmAGVM28Pq1fPOHCcGFKejVNvfxlCSkuEiC17QEQ3D0hqJCRFiLirYwmJU255HicfMF4OKs7pseR1aW5IiigDNM36rbZRHpwBjCE0LoAxlwyE5Ib2n2vvmf/RK4/P9OhN/n/OmROaNmcO9ckhCIIgCIIESA9S4geV4WUKmdB/70w9fv8//fPZJyKb1tXmjf5DJcqOzLEm4Tzl0Jsm1k+vRcDvRfYEOyzCGKCoyM8K9Di+OOfgnCtnHjjeHFyaxU67/SVY+VjpPCCJ9CuRVIo3ORqSLg1LpERBLn/4Tew6rBKTdujLOOd2Ja40AqQoJMKrols4FSQqp+Zj5DHlWDJ/+bBpF15Zv/ql+88NK+0ZVZ98otIoIgiCIAiCBEj3KdS2f0JKMElpJr9X/vXEvzLG79Cv7eO3v/xnycAsjDinDFq+PSQVBRC2ppCW+NAbu1C9rhmDjy4HuAJmR0cYZ8jwe3sTH+CMgXOunnfozubg0mx22h0v2xpkS+lXoltVK9FTGpbr9t535kZ8TMGpB4wz49vQgwjxej2G3mRuScADjMFb4cEOFw+AojD26gPTb1nzwvMHeDdvzrzrrrtCd911l5dGFUEQBEEQJECSZlA/RLNQCtbvkcv/etGo/1x1U0ddbXPm2NP6oGD/kB3NUMBUFUzVAIUnxoEElr9Yh6KSbGi5JmAakMLuXm4Lgi2ID2dRLzpyd2NQSTY7+67XpDvyIWRPhnJXOpZIKbMrBFLL/L6/aF3rouUbfNectE+EM6bEt8HejlQRwhl6r9FgWtsH04A0BSAFBp/RFx3hCJ6576nnH/rLFY3fzHv3+k61M/DPKVOyzhkPSssiCIIgCIIEyA9F4cygw/T74qSzDzrx2XufWJBdGMCIcyug5KhWJEPVwDSPZcJ2T9Il0D6/HeHOGPocY/X8kIYBmIY9KTfQFY2lTOpZ0qQ/RYholx2zh9E3P5NfcP9bpltMiBQfiHALj5Q0LCG6C5FVtS11T779TdZN5x0SUbniY6kCyN4mtwTp6IypWuZWZlEJEzIWhdQj8Pu8GH/JIGTme9l7L3926UP/vLNxYxaOza3PCl5VhAyQSZ0gCIIgiP9tAcJ+UFdnxn9Y9Sxi++SY4yfd894Lnz9VMaoA5cfkgXk8YJoHzOsFNNWKejgGbAc9huUfVaPv6EIwNf1wqG3qTPQ0ZwyMc2thLLG4RICiKNrVx0/SS7ICysUPvmdIKY1kH0jK0i0NS6SkZEm0hCObrvnv24V3XHSEnuHRfPGIR5rtYC5/S0NzBw8OC/RyEiButk8IEWF51aWBksOyMe6SfvCHFPbs9Lf/O7O49Ptgfrm3amBu5hSASvYSBEEQBPG/KkDENl+OtfqAgEzovxP2P2inzz97Z/aFgw+oRP4BuWCqmjjQjCWiHjw5+lHzZjMUVUH+nv4e190SjUAX6IwLEHtJjTy4oxGKomj/d+oBsQFFIfXUO15Rooaol1tIw+oW+bBFS3NHtPb8/7xWduelx5j5mQGtp+9NFSMAzOWbGhj3soTnJem0sap/pSKl9TvBAMYVcE1FxTH5GHtiJdasrS55qi3W0DVpx4oBlVmhKoBM6gRBEARB/C8KEPywhBBOWSS/ByZOHLFp/tdLJo46cSBCY4PWcVUUgCuJalcS3SfhUYm1S+sxaHJpr+vPHxzCvNW1/iTxkRp1cD92IiJgnquO2wdnHbqL/MMNzxTc8NKXUQERTi88uosPUwj981XVNRfc/VrRPZdPMcryspSeIh7dtokxdAjUtnfFukd94gJEWCJDUdKcSlYZYmnolkgREmoex8izy6D5GXv6tW8WhffaY9dIZVYmiRCCIAiCILYXfrH0jILcrIv7BURecaYGIbFVS3W7DunL3Fhd2/AoHarfJtOnT1dWLJvTuWFNbe7o8wdCK3D5o+0r+ElIATAef37FI+sRCPhRNCmzx0rOTFHhK/dj+YxqtueoPm7DedKipDelg3OOgaX57Lj9d2xbtrY68PfHP/Is2NAY65JoLsvLalA4YpAwAUQlQ5shUPfYjAXav1+eqb30+SIl2x8IXnfGwZGCUMCTvGFxmZD8E1333/5mWUZnOWe+Em/3egsSthHfEifxVzmHNCRq57aiZKfsxH5z1syA7BEBoBmY9fWyEwfuu9envLW2vqQ1qi/+gf14CIIgCIIgfip+sauiXMptLqhrFT+iPiC/VR5++JbM//vTZS3RaJSPumQwFG0LA0AI+4q/5QPpWhVBY0M7drxkBBiLJc+ceWJiDsYBhaG2oxM1bV1dZdkZfhbXACxt5MMdkXAEiZ/z0BVT98EFR+0Vnbt8g7Zw5aa8+1+flV/X0gEhnaJcDPmhQMHIgWX414VHxYZWFHJpClUI4RNCQLq/Q4ju322Pa2YJjMaP56zMG3BOpSWuBJKjIMwtZJj1m4UATBNMyC0WiCvcLxNMSrz83mdvn3TspJ3Hv//pshdWN7eBRAhBEARBEP8LAuSHIWGYkky0v0GuvvWSQX+/9tZlWkBjwy8asHXpd1ImeUGWvboWlcNLoQQAmLY5XUqrVC9XrMm6tCboUtdReUQepn+y0H/F0bumn/C77jOgWzqU4xkJ+lXvpDGDsM+4IfF1JDYx4QMRUnqEEBApaV+SMauHTcr3OVWlnfe+8e3K7JzB2Zao0NTelbhw7SMApr51BaoL9g+hq03H9Nc///rsYYNLqtpXm1X19R00QgmCIAiC+LX4xaIL8gd8GQMgTMpd/61x2vnHTnnylseWZxVmsMFnVQDC3MrRyG0fiEDjx83QTaDkkGzA0JPHBeOAqiRStUwTEBLcz7C2sQmr61uj1vtYXNDETd893HcLCCciojiLolhLalpXGk9H6tLT93XoZu17Xy9TcvcOAZqWrJJ6E2i2AJGmxNaaqiqPzoMUJnu5vmFlZKedtKrT9vbRKCUIgiAI4ncvQLD186WUjTMpAvIb4qhj97nj7WffnV4+NA/lR+cAhgmp64DRgwixU4rck2vETKyatQmD9qsEU+yZuXC97kQ+uJ2WpKr2cxLlR+bgkTdnezljMbeQdW5ToxDYgoBwCxGuKPFGglsSHHHhkyKo7VOh46anPiqqPKwoufpXfJ/IZL+LBCAFpJnYh1KXyQ0NOU9ej/PYbu445ORyrFtXE1ydbd7gLd7FXwWqLkcQBEEQxO9cgKTzG2/NZ4SUFAH5jXDA5Akff/HBrMsH7VGE/P0yrYmyodviwvZ3yJSJtmFaAiQWi793zXM1CGT4kT3Wb/e/kHB/UBqGFRUxzbhvhCkKoKpgHgWiQMErs5apSNW8vYgC6+XugiQeDVGUbhEPd3Sl29h1fWfSq1LG7nr1ywxWrkLNFtbvT+3xwVyiC7B+pyPSnLfEnLdZa2eKYu0D2z/DOLdECOcAJJRMDf13LMLn7311Qcjn83YUwU8jliAIgiCI37UAkVKmnahtQYJQH5DfCLvvNmLdd18vnTTyiHJkjvYBpumaL9vH3S4pG79vCwhpmpaoEAJmewy1m5uhR2NYcs9qrHxsEza+1ojGGW3oWqVD6rBLz9qfkbY7nFsTcKZ5kLtvNt7+eimvbu1s/9Hj1lmkTJFBSYN7K88BGA+9N1vboLexrAn+uECT0Sig68nqRZiAHgNisUT0Ix4B4hDgYGBW53iuQBoGpLN/GbP3h2qZ4e1yx3l7ZIFBYvqHL3+terM8VRQFIQiCIAjiV+AXiy4IKbe5owdngBRUBWt7pqqqir/28uPtq5dtCIw+pRxKyJUxZxqAMwGWLuHhJEPZnc+ZrkNKq6cF9wE7XjAAZp2JaL1EV30U4TYdjQ0diC7WYaSkcjHO4fGoKJ9YjNBov3XF3xToNzUftzz1SeadFx3WxWFd7Zd2mpd0CQaZIpK7LZbZ3DK6p7zmrEumW5cjTBLCpe2Olz7P3CDaWd6kYMrJISB1HUzC6o0iTEjTtKIYUlpRDc4twWYrFAEGxgFpGgmPjROVkRLS0O2okGYLFwmoKgYfVo4lr67ps/+B+wRboq/FUGs1byQIgiAIgvjdCZAfgjWXoipY2yv33lsV/M9t01oi4aiyw1nlYFr6RnoSVnQDqmpFwbjL9yCsSb5TdBmcg3sEeB8PPP0UZHJ7sm6agCVIrZQrTYOUHKLBwKpXN6NmTiNCo0rtybcB5gFCO/lxx4sz/X88bk8B+2q/7E1sOBWubDEEIF5W1y1S7ApYED0JkmThgdZorO1vD70d4kM9yB0aSL8zpYQUpiUa7PK94IpjWgGTLk8HGGQ0BgaWHH2x9wtg7yfG7bK+ie339/fB41Xxzppls/fwZg2rKvAw1NdHqgCDRjRBEARBEL8Ev2R0QbIf0AfEmnkR2xt//vf5/W+54e42KYUy7JzS9OLDNTGOiwgn9Sr+dgmmOlWg7Ek251alq8TQscSH6brSLwHGBCQHmls60feAHOt1IeKr9vX1YLNowetfLWHpREKPAsQRGEJACAHTNGE6t6YZf16mdEVPFyFZtKE+evndr4SCk4MIDvV0V9ipIiQWtX6HE/VIcU45qVhG2ATnLLFv454UDiiqJUTUNNqdcQw4oBiLFq0tei8ze5N55Lg+kcqszKuKkFFFKVkEQRAEQfzOBMgPMKEzCCEZHabti9POOfLIx294ZlVWvp8NPKN0y8dVUSxRoVopV3ZHv/ikO35rB0GcigXSNCD1GKRuxMUFhLQ9IJZnYtn0DSgqy4aWb6cr2Q37mKoCnCN370y88c1itnRTQ6y3iIdbcMSFR6r4cJ5z3uP+TPeIiHxv3gpx2ysfe8uPLwD3IUkoyBgQWW9aDcxtYRA31Kuqtc8MO71KmElnj5QCZrsJriSeY5pmiQ6FJ0zs6RS/FPD196C8MgfNTR3+B16YuejTwuJlwfE7ZqJvdugcQKMRThAEQRDEz8kvl4Ilt65xWqpgkVJQCtZ2xLHH73vj29M/vKZiZD4KD8ixJv1J/oTu4oMp9jDjVknYFJUJgMVTh+Km9J7W58zYpUTL7FaEwzEMO70kLlgtsWNVkGKmCWnoqJiSi9ufm+H594VHdoYCngxICZYS8Uhsi7Uep2iCuxFhavqWcHlE4lERKSEkwre99Jl/WaSZVxxfYhnyhR2tsBspLnx0HYSZ8KNwW3RpHhXeDA2BXC8CpT4EB/qgBi3BJo1E5CjWaUBxRziciIlToliK9PtPWA0SK6bkA0IgtsnE8jerCx7ZWL/5oIN2OSX3o6/euly0Rv69EV002gmCIAiC+G0LkB8AYwAoArLdsP9B49/99J2vDxwwsQTZ43zJ1XEZ7z7pZcxKpeLdvQhxHJ+DYNbnOQfjHFI3ep5E22pg5We16D+hGIwnxEP8ljNAWpEQKXUUH56DqkffzfjX+YdGGWNet8+Dc26JEM4hhUgutesIGySM5fGKWHHBIePiI2qI1msffjOro5KhYM/cxKSfSSsHkTEwVYXf70GwMICSQ7KsqI4podcLdG2Moas2hq7GKFo3diL2uW55UuBoPQ7Nq8KI6QiEfIl9b5qJyBJDd6Hn/ADGIEXit3vKFIw8txx177exV1754sk9J43+78C5i/5Y1bdVVq1FhEY9QRAEQRC/WQEihUztiLBVAkRKEiDbA3vuMXLV/K+W9R9xZAX8/bzxia41mU1pnKcogJTxNKiklKtuE2Ik+l1ICShWU0EmJaQuUkQFj1eG2vhyPTxeD3J39cVfi3cUj4ubRGRGyWDgQ724+9WvPJcetVvidXsi7hYb0h35SBm1TklepKRcCSHQ3BVpvfre17OC++Qgq9QDmAnvi4S9PxgDVBUFw/Ow8bt6lCq5kLC2USti0Er8CEmfq+SuYgkyQ4cZE9A3mghvjKKrKYZgX5ehfWvOEmb/AtFd2BUeEIK/xIPPPpl/lthzTHDwdwsvuHhgq7x7JaI0+gmCIAiC+Cn5BT0gkm17ChZpj18bKSUbP25A64rF6/uPPq0C/v4+awLOuFUqlsGOblipRUxVwZg7iiGtibjstuK45wHSXhzfgpnc9duJGjiN9owIw6Y1LRhyVJl19d/BdE2snQaHLDE7Dwz3YHlbPftw3iqZ6vUQLpN5fBECwu39cJnQzZTPL6lu6jj/9heyco7Mg6/UY0/0TcB0+nOwuKAAgKzdQoh0RQHJEvuA84QHxvnpCo/vV8WrwDfAg9y9Qyg7MhdZY3yOurf2p7GFQlam6LVnSeaYDAw7uByff/bd8et2nXBxnpHtnzIFlAJJEARBEMRPyi8XAbG6HGybALFMIKRCfiUe/eRR37CBZR3hzogy6ry+UDQGaYp4Gw/LK2GLCSdNScp4/w9HRgLSFgMs3lSPMRYvqetusMfsHhZJE2Vpr8eOrKx4ciOKyrLhLVEhhWm9bpqWb8MxG5ki2XTErIl+weRsPP30t2xQZUG0T17I60Q4ZEqX89T0q6RNcadhSYkPF6zWH3nnq2Df0ysBGEAsCiiKta+E3UDQsMoQQ+qAqoFrDKrK0blaR6APB6RtsmeuDui2eR+21yTJsN9dKIJtqSGiHblJ2t+MQ0rre5nmQWCkDwNbivHJh7P/PuC4g14YXy/kC3ihDT30YCQIgiAIgthWfrlO6Ntehdc2oVMZ3l+DP/3znMq/n3R12DB0Zdg5ZeDMbo6n8MSknHMwd08PR4hwJZFeBVhiwDQgI11W12/DgNR1S5Sk9LHoJj4AOzpirbt9YRidnRH0Oa4I0NRExSjn87oBGGa8iaAUVhSEqZqdEqag4tQK3Pj4B95wzOhMjWSY6apfuRZ3RESYpvHER3PFk5/O1fqeXhGX81JK63eaRtJvkbbPxBFIOQVB1H7VkGgkmCounPcrdjPHXs4gxnliv/ei6KU7SsIYpBRWt3RbHMI0kL1LCFm5frz4/hcLW8LVvOq007x0RhAEQRAE8dsTIHLbU7A4Y5DUm+AX59xLpkx+8vbn12Xk+dmgM8pcLTusJn/SFhDJaVK2n8IwEHenM2Z39TZ6rmrVfaC4oicpCIlIXRSGaWLl45thdtlpX7avgqkqmMcDqAqYx2OJI2lPzlUV8HgATQVXgILDi/CPJz7IEELoZro0rNT0q5Q0LNM0wrc8/4kys3ojL5taZIksw0yOMHTbfmFVsjIMgAFFO2ejtbGzR2HhNCWEUxWslwiHtX9lz8Z96TomDnZpY2lX5nL6q0AK9DuxDM2NrcryoHYn+vb1AZQPSRAEQRDET8M2p2BNnz49WLd5za6bN60dqmpe5BYWz8/KKvrm9NNP32LFnB8ygyET+i/L0Scf8H+vPvnuP8rHFKNw/xzAMMBUBhmL2QfEFhuOeZxJMEVJXFl3VV+Kp1nJbT7oYJrH+qxprVcKAQYT+XtlImcnP9a+0IDZ/1mC/KIQ+h9XAu4FoLpM6Pb3xsUHTx5GWr6K1koFj7w3Vz39gHHJ5vMe0q8cYqZovPbhd/LkAA/yxuZY32kaVsqVlFuo3pVIEfP388A0TAiTg3M7ypM89sGcpoRbo96lXRAgnX5z+qigh9dU1TpD7ePKuET/3Uowe8b8kycec/7lVaed5q167DGqikUQBEEQxC8jQN5++23vEw/955nZ33x75GUXnM05Z8jOCMguPYZozGRSCAzrV2qMHDXs1cOOPfW0U045pTPN7GibJQhnlIL1S7Lf5J1mf/X2rAkD961AaHzQNnVLuzO3U+bWfThE/Jgyx6/AuSVG7E7hlodBbMXBVuKpSMzu5cGka0pumtZ9U0DRgAEnFqJvVwFWv1CLb/6zDEVl2eh7XBGYT0uII48n/ZAzBaBwZO0UwpwXqtngpRvNXYeUKayn6leuyX9LJNZ47bS387L3z4O3WLUm/bFYws+yJRGu2SljQkDqOnw+Dc2z2pG3ezDh/YjvXgnJpLWftyTi7OgK49JV9jj59EvykaSenbGY1a/FSeXiDNm7ZWHt17Xs87cff2DnE089G489FgV5QQiCIAiC+JFsURGcd9Yfrnzr9Xdv82qqPOWgnTbtv0OfOoXJkQA8zpzMkGzJ23NXD3jxk28LG9u6sMvOYz664s/XT540aVI84XxQeeHKoweoA/rleqGbErqQrlukPLZuN7REsbhVaVhX3VBAh+rn48Y7byx68p77NnW2dylDj+8DtSBhfoZp2gZvEb96z6zUuLhHIS4+hLRN5iLZ17A1xCMnLLE+07Q8HOnStxQ1boQ3GgVWvrQZLa1hlPTLQ8WxxeDcjL8nrQABbD8GsHraelx32gHhimx/ACkixM2qhtaOW5/6KFh2fBmUoO230HVIPbZ1J5um2dEYbvlU9Bhq3mlGW00Ug08t7P5+VbVN/S4B6G6LmKYBJFPt70gtfazriShWr9vocXVTBxo/aEHD6g559tP/zYsaGe1VrnOaIAiCIAjih9BrdOHIg/Z679WX37zt9EN3XfvMn49tmDy6slxhcpxLfABAtsrkrodP6Ff4xNXHtJ11+O71n8/8Zt9TjjtGP/W4I//9Y1Ko7LpKlIL1M3LMHybffvc/bq1hXCojz+sLNZ8lV0uSwtVdW8Y7lTsVmxhjVlREUeyqTUriKv9WH2h70q95rEm6Zk+gPZo1oeY8JfICq9qVvQ1qvoKhZ5dhzAl90dHQiW9u+x4bX6qHjBo9DywGQI8BuoF+p5fj5sffD3TpZotIY0AXpomZyzfptzzzcbDi5HJLfNjrkVsptJjmsSIyjlCz/RgFe4TQ3h5O+xmnS3q8vLHXa/cSQVIPkyQRpyrJ0Q8Jy3OyFdGZxAdYPJqVu18uOtvDzN/RXBiaN0+jM4YgCIIgiJ9NgBxz6H4Pfjt34QGP/+kPiw4d26cvgK2JQoSO2rFfwfS/nbrU7+F47pW3LutfWmgeuMf47znn/m2ugsUYJAmQn4Vp06ZpO+88rOGzd764ov+uxeh7UjEkLIN5vK+EbR6Xut49jcotRuJlXZk1AbYN4U7Piy1PzjXLv6GkaVqoKrYwca2Pc0DV4k0JbTkCb5GCEeeUY8yR5Wje3I5ZdyxD9WsNyUlDupHSl0SCaRxFBxbi+ic+zDYMM2Imm9HN6V9+L576aI7W59RSMK8ddTAF4FTySoctGqAotvjQkgSXtY80KEEVkAxGS5rMJnvfxqMatjCIm9PTaocUv4i089j41mUySlMkvZcpgM+n4v0HH3xCz9JVOnMIgiAIgvixpJ0h3nvv7RVPP/HMU/dccsTKwpB36Lau1Kfy/KN2H1Ff29LlX1ndxDVNCzU1NmaPKfaybL8Kp3n2lpaOqInaLhlp7YjcQofqp+OiP5++z8P/uW9Fa3N7YIdzB8Lf32+lTBmGHY2wJqBS9FJ5yZ5EJ6VgpbzOnEn0lgSIolrCped3JJoW2sqBAbZXwTKZM6fKk5RQszgKx4eQkxfExrn1WPdpLbR2FcF+WrzpoRXFkXYEh0HJZOhoiGHFsgZl/MBiWPZ6dNz7+tfe75sbeMmReXaZW+v7pa733PiPMUs0MG5JI03tbiK3I0yMM7QvCSNWbyA02NejEAfjCQO73Q8l6dgwbgs5pftxUnhiW7YUCZH2PnFFsEStQMO6psIhaxpvn7F2LRnRCYIgCIL46QVIS+2m73foU5hx4Lh++T90xZyzjD1H9ZFF+bltH3y9MCMrOzuap+pqWZZn6wVIzERNmOHYIw4ozw2FbsjNDl5flJv9f8UFOX8a1Lf8rN123WnI9Tf+c9bzzz/fRYdy6zjggB2/+PC1T/8vvyLEBp5aBq7C6r3hGMZh94PozVRtG5WZwu3+EzzRLJC5Jr5wdbPvRcgwj6f3Kk8iTXNCMLsLO0+UAHbqHNjv8xRoKN45B6GMANbPrsGGmY3wRDwI9NFcjRHtr2Ycgf5+rJhZzRhTRVl+qPnmp2dktxVKljcp2xIfSsLczWQvk3m7E3y8CztLMYU7z9tRJSXGUbesFYXjQz38fqu8MWN2apTT2NH9/ZzboqyHillO1IXxLYpCxnhCUDIGX1DFprn1yvCc/Fv3W78+NoOM6ARBEARB/Ai6zVSqqqr4g3f/23z8T8cty/IrQ7ZpZa7ype77tW3RdRfe+VKfto4wjh+VhSH5vq0yode0xzCn2sCOw/vESvJzYkX5oXB2MKPDo3IzHI0Fl6yqyf1u1UZPR1dMDBky+O1Djz3hmHPPPVenw9qd26bdlv/Ibf+ubmxoVYcdVAbfIK/VBdvpJM45mMKtPhVSpDU4J2SrYk1Snd4RCu9VPMC0Gw+mEyGKaqdX9VJq1ja1W+lhriv/igLm8VqTeyEhY9G4ET4ublQra0gaJlpmh7FmVh1MCfSfUIDcXfyJ9WiWrUkyYP6/l8Gjauh3YAn8QwJpohfo3XxuR1WYI44Ys6IgqftF2H04DIk5d63EhIv7Jq8jZX8xRbFS1WxPjvV7rUpkzFm/83pv6Ia1P4VMiioliUKv1464cAhdx8J71+LU/GC+V8lur/r++xidUQRBEARB/GQCZPr06QOvuvi8FS/+33EGtrJMbzfhYaffWM9bV6oFUH3lA28Vz1u2nh0+NBtjSv1bFCC17ToK+gyKXDFlD18vXx9pjxnz7n75q3Gzlqz1jB67wz0vvvb+JXRoE5x46kE3fPTGl9cGgx4MOKEQzJtI4YlXWpLSnjAzu78HrMaDTm8J+7FlguZWqs/W9KZwSvnGYmkjBs73xzt5pxM0ElY/ECEhTctQzRTb6O5EQcCsDuuOhyVFMMFVgrb5izBWz6sDuIIBuxYie7wfTFMhTYH277qw7ss6DD+5Ekq22l04OBiG1e2855Mi3lSRebyJ3ySB8OoIWha2ob22E+H2CIQpIMEw+qRKqNmucscyJcKhWP4aK+JjxkUdU5wW7JYpHx7Plo+LYVjrMY2EsHNvvqZZVcS4tV+//fdKXHLx6fvx+oZvoyN310tUNXruuecaoGgIQRAEQRA/VoA8/vjjY++/5bpv7zr/4K1bgbt5m0t4JDVzSzwfffSD+Xj49c+8E/tlYc8+gS1GQPoPG2WcsN94uaauXa8oCLbmBjzF7u12eYkR1s3Zf3zgrfGdplJ/87/vLp/0P14ytKqqSn3vvZc2r1yypqD/+GLk7GbpOKYo1tVvZvsv7BSk+CTZFg0wzEQFLCclR9nKpnjxia5pfVaPJZoVuibVVtldHu81wpQ0k367O7fVFVxASgHGHfGhJIsCQ09evzuS4I6eMI6GD9uw9vsGMIVj4KQyyI4YGld0oN9JZVC0RCWo9KV8TchIL3YICYTX6GhZFkZnYwydHVFIU0BCQtMUBIJeBAv8yBoSgK+/Nx4N6fE883jsVC5bmNgGdekWDs7nFcWKYPSGlPFyxFKPpewblogs2SWDZ/1rKRiAktK82J5H7fOHCln8SbRzg1ly6p5d506gqCNBEARBED9CgDz33HMj777hLwv+fe5kttXCo9tjZmehpI+GLNzQWHvhbc8UDS/w44CBmTBEdwGyriWKmes7MbRvqfjHOUd8V5HjHw1AYUhzyVUmpIgEup6esVBM/3ieb9+DJ+99332PfPG/eGD/VHXBxOcfmv6ZHjPYiFP7QcliCZ+HUwrWmZwzJKdAOX0ynKiBorhGC7NTjLZBgDAGGHp3AWJ7I1h8e2D3sEixJjnb6kzSme2DkLB/g20qT5Myxnz+bmWFpW20lqZ1v/rNFqxZVo/yijz0OS7P1VSRWevkSndztykgI12AADqWRdCyOoKuxhjCnVEIaflRNE1FIMODzJIgQqMy4e3jBbMrisW7pjOXIEh/orl8MrYIdHqj2MZ0KRJlkZ11MU3rPRJimpDRmP0bU9KwuGJ9n0uQzrltKYYd1A91cxrQWN+O7OygmLjr8JOKFq1816iLxm6rrQ2DoiEEQRAEQfwQATJ9+vTcv1x2QeOzf5mSvnV5SpSjx+iHW3gwBuaYhu3na9oi84+55sHRY0oD2KMyIy48IqbAVxu6sLS2A1P237n9muP2NgDk9DjhdYVApEuMbGwKr736/lf6ZOYWLPpk5pzRjLH/mcnRgYfs8sm3MxftXVSZg4qpRcniIbVHhGkkRIUz4RTCmvQ7huf45Jb1HBFwiwUp474Mq9+GYaVOpU6ybdHDFCWRcsR5sgAxU8v/iriYkKYJ5nReTze4NQ3Q7G7oziTbTPhDnHSuzvkRROp15O0bTEz64yV+re0UpgftCzrQtrYdHY0RRMJ293MAHo+KQNCDUJEfocE+eCo98eiSFCKR2gYZ7xK/dWcntz3s9j6x/SwwbE9NXECyHpo1ujwy3YShkdiW1OPCOJjPl/S5BXcsw8gLB1pFC2IC66fXoL66HUOGV2zar619B//O4/SuR17vrAIE/VklCIIgCGKbBAgA9CnJN++96LCOwpAvlKw90kc5ens+KRqSJEIYvliysenyO5/LPXhwNvrnedERNfH6sjbUtUdx1cmHrj91n5GlANQtX26XSalY0r46LiEb/v3Kl8EZ3y7XDj3ikAn/uvOh737PB/PRf1dl3/bAw7V1tc2eoQdWIDgqIyEoeJoeG0JaXgDN7lHhCAcJa0KrKgkxsjWpV07TO2m/354Up/MYxCe6qmJ7Dbj9WWE9douN+PartmnbnnzbZYN7NrfbvUWcJopOV3HO7B4mAqINMFp0eMqtfWM0C7Qs7kL7pgg6W6OIRnUADFJK+P0eBEJeZJUFkTnYBy1fJFf9ileiUhLfISUYmN0vZWuFR8I/EjezO7+fweqibuhbVeLYqlamJPqQmMJO4UpETJLS1pyCBB7N9s5YAmf5/asx+Nw+VuREt96vN5lYMn0zsrKC5plHHlpsKka0K1DZWVVVRSKEIAiCIIhtEyCHH7Tv457O+lP+OGX3tOIjOcrRXYikPt89AmLfB8NNz3woXpkxjx85PBsfr+5AU1jHTRceu+rQCYP6OzVcWc+b2k18uCMhjhBZUt2y9Ir/vDhkx113vuyZ6a/d9Xs8kKedfdhp77786aNer4ahZ/UF9yV6VsQn3e59qFi5/VYdWkssSGFa3gpnwuuIkd52f6oAiUWtybZdphcSvVaLsnqAqImr+MKa1CcaHNpH3+NJCCJH2PRQWSvRuM8RBq5IgWFC6lb0ou6DDrTXdqGzI4qYbgAS4JzB59OQkelFZnkGskcGoBa4hYyIix8ZFwAs0aHcrhwVT99yGiVuweORFkWBk3LInE7zThqWoUPG9G5lj+OCM3WfaLagcIoCGEa8y7w0jURPE0dIOWZ3e/+2fh1G1o5eO5IVP9kAASx/og5en8c4+7CpRebYsdGrTzmlk/60EgRBEASxTQIEAAZVluhXHrubOa5foTed+OguNlIiH8573MKDMTDJxCeLNxi7DCk1MzyqXwKth/zpwayGljbohsB9fzp5xe7DygfF+0ck3bBtFh/ObUfMWHj6TU+N7DNo8KOvvPXRmb+ngzh58o4fzfly8T7lQ/JRckRBcpqUsDt2w+5S7kyKNY+VfiURT0VKTHxVMJ/LxOz4DQDXVXyGuA/DETS6YYkN5/grijX5TleZirGESHG2U7GFiB5zTe7hEiCa9bXCimTEt1ta3x/vg+H2PjjCwxkX0Qhgmlj44CbEYgbyijIRKvcha7jf8sk4pXtVNSGA4pW2kBBtThd4+zuZk97GXU0ZDd1K0xIivTBgaXqkMJbYf4zbKVwskRbmCCtTJJvHba8OU61mi93EmdOokMHyfig80e9DmFb5ZafJo6olts0ptexEnIRpd0tnCXEEjgX3rUW/oZWbD7npppFRI6O96n+8AARBEARBED3TYwOHE884t+Kfz33qWVrdGu5NgHDGwLi9MG4v1vPx1xgHZxycMXyxbHPX2Tc97rv3g6VvbGgOhxWuZF114oHRqC7w0P+dvmqP4ZWDOOdgnIFzHl+Y/VzyYr/OEu+x7jufTdxmerVRz1Wdtq5+w/rTjjl4vzt+DwevqqpKnTBmQOvcr5fsM+LAEhQfkp2mhK10pQRJSCGsJRaFjMWsSWzqxNi5Wi8kELOvtMdilpAxreelrkNGo1Y0wdCtibmqJEriOt+t8ITISMUWJdIxljs+FN5DV3Rnm5z1qhqYpoFpaiJy0y1NzJVS5kR4AOgxE0Mnl6PvlFzk7hqwxId7nzmVv+xmi/HVqopLFbN4Wpd0fDJSJCIhjr/CbkzINI+rmpjVe4R5fZa4crZWUazfpKjx745HImTKvnPEjS000nakd71fxqJ2+pTlhbHEuTUeoNoRFmc/xkv+2sKKwapO5vFY22dvF1Ot7Rx+fF8sX7imVP9+xVDU1/voTytBEARBENssQKqqqmqOO/mivn97/AP/grUN+hZFSC9CxHm+PWrGZiyvv54xJqc9/epxT3y1/pUP5q0U9738iffOK05Yu+vgsgGMs7igcIuLHpe4+GBJYoUz1y2zXtc47/vIn/6wbtXKZZed+IejL/gtH7gb7rmyzxP/vTdWW90UGntmBfxDvNa0WNcTqUx2Dw/pXOGOCwvRu39ASns9dllbYUUbpBT2unTX+q11ScOw18niaUoyPjmX6b9D2qlATpUpJTE5j0dc3O+39YQlUpxeJPZkWeFWhMTxs7j0h9VJ3PIuJAzrEr5KNeUrJExdINKqo21TBxpWtaBhWT1ql9ejcV0Twk2dMKP2fnQLDGk1FZQxPbF/7WiII5yhqICmWeVxFSXJ4A5m9QphqvUeqHYpYntyb20tkgOAjMfT15hmiYJ4VIr3IOIYc4lNmTCzS2kVjFBVa/s0NdH1PdXAzuxImmKJEce/oxapCGX58cZDD7ybVVCg0p9WgiAIgiC2WYAAwC23VK0/7cxzjvrzQ29pXy7ZKLZKhMSjHgkh4kRDpn+5vP7x6W/e6qw/Gu4qveKuF/mJB0/ccOD4AX1ThUVcVLAehIg78uH+TOqt6zVNZf2evPaUVd/NmnXPXXfdVPBbPGhTj93/j3df9+Bar19lI84uBffbk1THl8Ccq/4iOXWmJzN4Og1ipOle7ggXIbqnVAnTajboeCRM004hkj2br+Prlt2v3Kc2H3cEU6rXwblyryjJk2UnNcsuzytNWyDZ28LSfIcwJKKdJmLNMewU0nDmGC8u2DWIs8YGsXOmB5H6MDpbOiwxlrbylrTSk1xpYUkljG1xwpjdVBAADNvH4YiU1I3iitX3xIm2iEQVL6t4mf0dHo8lHOzoBeO9nNrpigmwbSiv7ESqmEsQKhyV+5Rg84baUETtZFVVVZz+vBIEQRAEkY4er1Reet7JZ3/yyed3v/niM9oZh+3R/NG3K7NaOiLy8F2Hsl79IKmL7Q9ZsL4x0mwUTnTWf+0fLznvvvsemnTJ8fvXH7/nyDJm59qn3lpztx5mRczJQZeAZJDMui8lwKSEZBJMMkhmpa8wySAhkenTBt58wVF119w9bQOA31S6yP77jJvzyQdfje83rgC5uwe6v0FY3gCm/gQXoVPFytaIl27vsbut6xKrntqMkp2zERiU0p/CPVmW0u56nlp+F1ueHAuXoDFNAJZYkmlLzTJr3LjQIyaMlhiOHB5CRYkXgQw/VEWBEAK5ORFUVit4cUkHzBwNikDadVoixLTHL0uY0p2SxMKKIgEAU1y/DXbHeSkA6YoGcctL4wgeJgEwkWjCKGzvhtvrkljp1h0/zl37mP3g4eId6IU0re/4fvhwRn9eCYIgCILYKgHyxBNPZPz37ltXf/35l/nXnbTvsv75gQGM8Rw2cYj+0PvzxaPvfes946AJ0uU6d5lm0y+mYLHX56z/7JEX3lgLAA8/fN+Qv/7xz/cftPvo2EWH7ZotGeOsm/hwl8DqyYLeXXzAFhxSsrgIgbTWKSHjWSo7VOYX7jq8j1lYWPDtxzPnjNveD9S0adO0++++uXX+vOX+EUeXwVemdldj9qSUxcvMmj9qQvmjYMwyUCuWcXrdM5uheLzY8EULzBkGCvuHkD8pCKaklNGVPbSfcdKtXC/LWMzyTzgT6HglLXf1KdFz9SmW3NZSD5sYXxBEeYkH2TkhZGeF4PFoMAwTbW3tYAD2bBWYx5mlBGTyJJ45qU9OSpbbIG6PZ7cYkrDSnuLlhhlLL7QUJVHeWAiEV0dRPbMJLU1hjDp1ADw5hvVxj8fVWJDZVa/M7utydz2Pb7+S2BdCJqJJWyP8nEPHrSYgXkVlxcGgailAgiAIgiCIlGmH+8HdD99devsN17bsMrRMve/CgyL98wPDGGMeW19o504e4ykqyG3953MzGCQzekvJci9vzV0Ve3j665MBYPr06cHbb/jH4j6l+fJf5x3WAc40K0XLnTZlGcdTTeXMtUjGY5xzmUjJSl4Ht30nTvpWwp+SSBn78x/2bVi+YvXY++67L2d7PkhXXXP+DjdXXRNtbmz3jz2nMo34AJjCwWyDcLxykdP34tdAsSe0jCHWbKK9OYK+p5Ri6AV9MPSkPuisj+H7hzZh7XN1MJpjQEy3fCd2p/C4cHIby+1O5jAMyEjEElkxvZs5WwoBaZjdq3t1l2xJ6BETg0o5An4fskKZyMvLQXFJIfLzc5GVlYlAwI+h5S6xY/9OpmlW5ShFtSfu0vLcOL4YxycTL8vrElupC2PdgxeMIbZeYs3TdVj60GZs/qwFBSNykF8UROt3bbb/xi6l66R+qYrl50iNhAkJpqiJMrvOdjjd1WMx675hpt9JvQmQLiAciWL2I/dfUZopAneteNtLf2IJgiAIgkglPjuZPn26/x//d+W68w/brXqn/vkVzsQnRUywQyf0zyrLz6r700NvFv7znMOimsK8dqKVqxxvYmnqiEa/Xtl8w2WMSSkl22e30Wu7IlH+7m0XreGM94O7fK8T+UhKweoeCQGAdXUtsl9hFotHP6R03VqRECvmkYh6ODMq53lNkUXH7jVGPvPoA7MBDNweD9AxUybd/sR9T15RWBZC+VE96KSk3h084UGQv1Lzd8fszKyIwNrp61C+Y7GdcsShZCvoe3IRpCFQ90Erlj61CZpHQcUeefAP9sab8FlpfYku4u4+IUlmauZSFM5P5myLfTckk0nzaymAgF9CVVVoHg1+vw/FRQWor29EW5sGRVGgqgoAE4wxSKeUrfObVSXRTwNbl67mdHOPRxKRSKWKbtCx+YNahDtiUFWO4tF5yJzgA5OWkJFdfjStjyAfAZgagyINMGGvS0hA2j4cVXX1+XBEmkwSUlI3kvcZV6yIolvAuL0taah7rxYeVcFHL350rYiKjDHnnHv9tDlzxLkTJuj0p5YgCIIgCId4qZyGDcvW7jdmkLLfyLKC9JEMHo8glOZmZAzrX7bpLw++mbPvhMERr6qoTtWr1OW/73/b/ND0t48EgOULv/lo1uzvRrz5r0tWZAW8AxLm9USlqvhjzu0KWtxVzpfFq2st21AbqyzI0RzB4r5NEi0Mrtlp91SuwX2Km+5+7v2yN95+98bHH398u+rgvPdeo1bOmfn9IQN2KUThvpm9TviZ0ylbSqvikxQ/rQDZ1lQuxerA3bkqhublHaicUuRemTXPVhgy+mkoHBeEz+fFhpmNqJvdCt6pIjA4GG+U53gcrGZ+yWZ0xlJ6Yzhd0rcgPmpmt6JkQnZSsa1ou4FB2V5khTT4fT54PBpiMR1dXRF0dHSio6MT7e2d+L5dgoEnpVUxRzgwnjDdb61nRlo+GXAFsXoD61+uxeZP69C6ohP5w3JQPqUYBTtmw1eqAC5DuhrkqF/QLgPt/o7vX1/v7VptIGOgF4rKwIS0x4BISrlye4Ms8cRcjQVdCs7xdXE77c0uuwwpLR+KtNO8XONi+RsbMGivcuQPzMKcd+fvkuuPLVURXL332NdiM2ZA0p9bgiAIgiDiAuS00w7bZcPK9ZddddROhpVy5VSz4snVrVxLdsAX2mPs4E2X3PlS7i6jBkQzAx6VpwiWhevq9EU1bPe5CxfWXXHRede+9PJrZ9511UmbRvUt7JtaQStJeDhCxEnFYskiZFNDm54dzKgNZfiyWUpndZcG6SY8UmZ+AAC/Rw0sWl2Nz7/8avSK1eue2x4Oyr3T7w2uXbigc/2a2vxRx/dDxmCtdxEQ9xjYfR1M27DMlXhXbsZdpV+Za+LIbK9AStUkpxeF1WODJ3o/bO3EGpZ5etVz69F3/3Jo+Wpy127OXRENDk+hivyxmcgZmIH6b9uw+dN6RFbFEBoctCInpqt0sBMhiVe/srcrXulKdt9XzvttgVAzuxXFO2Ylvc2ImtCiKkrzAcYZpJC2+Aijra0d7e0dWLYuhhp7TDGu2A397AaETgoWsxsTbmUUyugANr3RiA0z6tG8pAO5/bLQZ2opCnbOgr+vF0wKq6mhmVz+l3sZGud1sIPa2kpKj95zyeaV1Yet/bSWx9boCI7yQVEU6xi6+xE6+8ypaCZlQnTES/jaJX6tQWTdCjOp7HA8amN7RWTURHRlFEX7ZcJb5oUnrGL+xwuP3H/kDnfw5aX4YMECioIQBEEQBJEQIB5Tvnj6geMyynIzQszxT2whCsIZg9+jhA7ZdcTmP93/ek44qmNwZZGhqgp33r+xOVy7YO2mM4vysi5774OPjzjp4ImdJ+87NpdZ9FLKlyeLD7cIYQzPfjCH7zN+sJ8xpjKge9SjR+GRfjK447D+LfdOf2/0y6+/9atHQS64/A+TH77lwe+FKfmoCwZBydOsfaKolr8jnYHYLUJs83W8R4SU1uc0zWpyx+wGfizF/O2kvDlX4z3eRGNBJdFgkNlX1JmqJkrJptkepqpo/rIVnY0GSvbLsg8HT06Xsifq8eqvUoL7FeSMykDRTnno2hTDug82o2V+BwJ5PqghljyRdkzpdtpZvGxwXGAlJsiWN0a1th9AzTctKNkpy/JK2PsGAtjQGEGxV4FPMxDTDYTDXWi3Ix/1DR14b1kYSqYVrWCqq9eG06U9Lurs/h/uQgCO8AIgDIaa99qw8bMmNH3ficySTPQ7vhSFu+Ui0NcDJg1bdFmLdAsA1yFr/K4DI7m4Jf+jhXNebO6oOvnSqV+snr/ypHUz6llmUQY8eVoiYuFEyqR0pYq5/xoo9nsUwKMlShvLlEpi0qpBEf+MvcuzR/rjoiajvxeNc9uwrnrlqYU5/vtLFq7QF4OiIARBEARB2AJk0OC+h5w6cXAfzrl/S6Ij6XnGoKo88/DdR8a6BKv964OvZ62rbcbgimIjw+fhZbnBzP1HV4qFK9flejRN3n7BETpj3Nt9XT30E3H6fDAWvwWY+dZXC+Wk8UO1eOpVXIOwrRMeKQ/9XsUXyPDrdz34xAWbaupv+6UPwpQpU5RTdxkYDPYteurdV2bcVFCeg/5nlCcS5OyO3OBWak2PfTXs1CPm9oM4nbvjvSaURPQh3cSUc9tQnSbPn7tT2OzJdNp+GFZTv9Vv1mLgMSVQgnZ0oKcsLgZbHFhX463IDRAcGkThTtnwMBXrZ9Si7tsOqLoCf5kVEbKiFCLRfDElwsMUHu8sDlVNNAcEUD2rCSV7FNudvJV49TDmUbGkJgbWCXh5F2LRLrS1h7FsXQzvLe2EEVDhCaiW+IgHD6S9n1P3l/39dqqSFAzNn3Vi/UeNaPyuHf4ML/oeV47C3XMRHByALafj0Qbp9FtJNa+7aPyuAztMnvxMS1Gk6ZuVTebcmQvXNLV0Xr/bvqMOX/zB6hKPUOGr1MBMe2Od9LTU9Slq8r5KEbcszWcYs8eYYcaLA8QFqZTIKfVjyecbM3YbNPTBwsYlkRntoCgIQRAEQRDWFPcvJx4YLc3ynN6T+OC9iBJbNCjleaHMo/ccrVe3dBmX3jndM3f5emRnZoiCnBB/5t1vlEevOWWNwlkR491FzJYW7vKDzFm2XmQFM7qG9inyJqIeWxAdae8mPzmiskiu2Vzvy8zJPX3Nhuq7f4mdP336dKWpfd0Xc2Z+89Da9rYr5n+7YofBe1Si8OC8nj/kCLF01a1cE8R4laPUXSMTYoVJEU+vcprXxftX9NTIjtueC8bS9+uwqXu/DZAq8ncJWtEB3kPzO+d77FQsp59M/Oq7acJbqCB/bBDZfTJR/XUzNn/dAn2TQGiwP+FxSLMvrMm0lvxb7HVXf9mA0j0Kk4zfXGHQMjT4crxo8KlYFtPwfZeKJV0qqhmHluOFN9Nji14Wj7ZI6YgmllZdtc/pxLq369Awrx0AR+XRZSiamIXMYRlgGhKpTELaPhZnIr9lH0/Log7w7Cy9H0o+nrF8eXyCv3pF9YOHnrRP+Lv3l+yv6RoClXYqVjrxwTmYptppZLz7aSREoqqaKwoC+1yGmb7JJQ9ytC3sQj26ji3r1B/8ojUapT+5BEEQBEFwAFi8Ym1RuokT0jZGdjcITLF1M2htUdG5qaGVBfMrz6t69B0x/oybtctOmLxcUdDfnR7FHL8G3K1EehEidrnd6e9/re6747DmeFSEu0VMopmza+3uJ13PMqT8EPXq4/ZmoypyynYcObj+nn33zavqC1/VFrrF/xCqqqr48WceedOVl5xvLJy1dLe8kkwsW77ZO+qYgcieGOr9w47fYEvvcXe1dnph6Lp9ldrO9Vc12yNiL4rqqqK1hWwZd5dvtzgBICRD3Zp29JtSbFfo6sXALhKNJqR0dTaHNRmHlFY/DQBansTAkwsx/IxSAAILH1iHlY/XIFYn0u+Dra0hy+zeGc5ku9tZYgsiVbVS2VQ10QFcCpefIvljm5+vwbL71qJxaRv6HFKMIWeWoPK4QmjZtvnb7tKeNKl3jpXYimwlxhHM86Jmc/Vh8Pm6jdPn//vuv/Y4YefL1s+pQ8v30V4KCSSnq8UxLe9JkgiJp5Nxa+865YV72L7KPfKwduXmMgCochW9IAiCIAjif1yAzK9uO1BCmj3ojB7FR+q9hvZIZF51+HYAeP6Nd6cNHzFk0fA+xRjTv6C/e6LT3aaRLGUSoiRZhAgJ/cM5ixEKeEuclCyWbiLFWJLYQLJISvkNzD0P1S49eqL3qD2Hhu5Zubi+Y68p+0Yqs7L+OCQ/s2p6lQfb1BWhO9OnT1euuuG8o55+4kH9w5c+/EvBgByMv3ooKk8sRVlpFtZ/VLN1KxIiYRa2qyclJt32b4pPau3FMBKb78z5ecpBjjfEw9ZNgLmSLEIkkBeoMDa92ixzK7LB/PaTva3K2Qan6pJtEpe6DhmLJTfzcz6iMZQdnoOR55Yhf3AQK1+rxuL/VqNtfjRlP2zDEVN4Qpj1uu/tJoK2WJCOkR4yUaHLprM5iv5HlaHvHwrhLeaJ1DdTAKYBaRpWmpUj+oSZiH4ofMuVxxgQrPSjtaWtJHePEWk3/KX7PvrPzpNGv7P6oxpEe9AgLC6kZEKIudLzkqOFMjFWtohEYHgGTFNCO/WMkaE7LtfoTy5BEARBEBwAOtva+2xo7Oj6sStbtKlZf+ONd24CrKv83367YPTlJx5YjzQd17c0sUo3c/x47hKFKxxCSs2tGliv6+n1iW7PcDD8Yc+x2g2XTmYff/3VG5+WFq2s3rt4iPeT2ox/v/JoVtWcNwJTpk/f2iu5bNqcOdotr72Wefzphz355ysv1h+/7amXNa/Cx18xHEWH5sY3YNBpfdHe1omWmW1bcdScKkw8Xu4W7n4Upm1gdiaMjpFcUQDNLtUbi1llVZ3eDnGxIhNRkW2gdW4ErZ/oRkZT5pEtdWGWOcQLE6Y9MRe9ixBn251UrXilJxGPgvRE9i4ZGH52GQYcUIiaeS1YOG0T6j7sAGPqtstFpYfD6jRAtPePtBsMutOOpGFYjw3TmsgLiYxCP1oWdECK1CaEiagP4y4jf/x7ttBAUlHAPF4wVUVweBYi4Yinc0mt0pPcevOVmQdX9MmPLH90I4TieoszLpxeK6YBqTvjwkyUFXY3guRpUrR6qc7GIOHzezFr7qx79Z32VulPLkEQBEEQHAByCwofev3LpRndJhZpJxWpLyfubWzq7ACAhx9+YNf3X3++yRCCTRxe6YME2rpixmszF4qYYSaurXe/E58Dy5QO0VJKPP3Ol7y4MEc+/8ksSPs5KWXKptqXb103vWw8ZA9ekXEl5Xjk2hPYrgNLc79+u272O5s+W/3ZgoePii5YmDEuEAjd8sUXmdPmzNF6mvTd8fj9ZYcfteendx5/RPjOM09t++zNz08KFQfYhMuHo88pJeCp14I9DMMmV2LZZ+thROAyOKcgpD3JNRP7iDG7XK7TkNBVmpYnGjpa+xLxK/Vx34Jz5T5eZlck0oOc/RLTgWg0peu4RGSdgWWP1MBsYK0H/uN4/4O3vfDW3kfvefyGj+uw6r/VEE4vCmGnKJki0WU7/pvs1w29u6l9a/qZMAbfwACGnFuJ4af1wYYl9ehYEUNSkw/34NpWpL3fbc+K1UuDdf8NzvGwIyJ5Y7PQsr7d5XWxTPNS1yGFCebxxH0uVgVlkSx6nGPinuArKpjXZ1coU8AyVUAKhtb1mNJLuuCxl55TGdMNLH5gU2K3qWrc/xOvKAY7IuLIc5Eoa8xStkUahiWsEjmUCfHqpKwxjuzSDFSv3TTErxYx+pNLEARBEAQHgPc+nvnAok3NkZZwrLOHqXnaCXyqCFm6tk7dYUif6E3XXTeztqYua59xw3QGZALAv577NDbkoLO8lz743jfPfvytCMd0Iz4fTKgO9xPWf1JCSIlIVI/NWboGL//zAvbt0nVYvGlzsgiJL4l5tkwSJDJVm/QoPpxXgqoH50/eHQ9eNxWDeGb29w+veOTDRx6unrvojr8u//yBoqaumuA/P/ggdPFdd3mdT06bNk0bs0Pfzr+df9nG2V8s2EMLaurIMwZg9BWDUXJ0AeBJ2aWGPdHXdWQO96GgMIgVD6+2JvuxqDXxT9m2pPQqwE7dMeOmYOb1dq/K5FQpikUTE0cnjcZtMGZ2ZSnYpVqjUcAwrKv40pVmZAisfmITlr6xEcN2G/boN7NXZldNqjIA4Olprz2///lHlbU2d2DVY7WQhmmVyI17S2QixUvIRKlaeyIse6n6lF4g2FEJxqH4FagKR3CHYLKnwS0QpOu7Aet3Cpne/+GIMCc6wqz7TEtzMV/YPVhMEzKmw1umwIwZVnUpzq19F0/ZcolCYTdQTBv1YElCgWlqIkfRFgoSYCxYJkb0EmcakTciIqREOByzxISTuueY/RVu+VscUcp44mTh8e+xyzirif3hiNX4/rVSyixvlpXaFSr3oqMtrIXb20mAEARBEASRuGK6z7En9b/9xS/9pkAsaWKXNorQfTI/c+FqOXPWtwVT99mx/sPbL1i5/4Rh8rj9dlwvIbGuviVar2t3TJo0yXjl3U939Q+d5Lv4vnfmPf7ubLOzKxaTSPlPSkhhLcIWFq9/Pk87ap8dhZcp+NuZh+OeZz/E95s2WVeU0wqRdIJE2tIiRaVIuF6VicbQ9g8v82Xij0fvjYevm4qDRg1S1j+1+vLPpn2w/IM7/rqwZtFL4/MyM/1Vh40PVAF82gO31FdvbAx4VAWVO6GaHQkAAIAASURBVBWj7KhsqFk9zLtM23Bsp+9IPYZ+U4vQ2d6Fpi/abaFgJKcwmXaXc9hXqhUlXkJVxq/Ss6TJOYQrDYu5Jr3uxn7O57hVHsARKfFtgFNZi0GvjuK7O5dDRE1x+PkHDXz7xS/OSP1pj1Q9sjmUFRStzR1Y9MA6mO2mlRrm/BDTBHQjPmGNRyscM3eSj2MLlblsEQZDR937jcgpzkozj2fxErSyq8vu7h2zOnwbdvTFMYCbAojpkJGILQpkcn8RxpIm5kn72jTt/SUhTbsolYBl2nY3TZSuEyjuf0nzmxniHp94E0EXbQs6EIuZmNvc3FFlfVNa7nvohm84Yyjrmwujk1nRidSKV44QEdI2n8uEPwVIlHdW0kSAHBTFKqfsnFMSCPT1wTBMeDs2kgAhCIIgCCIhQP5VVVXTZ9jYff/xzAwtZohYkuBwCZGUZCm0haPm9Y+/L2s79eqP77yw/oS9hpeByUGbG1rYiD4FKiSwob6Vjdtpt785nzz33HP11z/8fKfKPY4JnH//m/MfefcbIxzR9bhosIWHJT4EhBB44p0v2bEHjTOFENDAcetFU/DfFz/DrBWrIYSAlOmFSHIal+tht//QTZCkSBbkqwEcv9MOeOSKY/CvKw5mI32hshnT3vzomaq/NL2yqqlm1qG7frB2VU1W5fAKZIcCaF3dYX1vLJZ8ddsw4x4HKVyN6jgHuMCwycVYObsGZtgWCtGIlZcf0xOmZ8YhTQG3o54xO43HncbklOx1dwd3RRekEMkHNqVLOlOtDuhOWd+GD5qx4IlVGDiy7+oV6+qUB294flVPg6u4vKAmI8OPsjE5WPjYBnQsClvG8lgskZZl2lEDxZUCpCp2mpMtejgH83jSTsCTfieAutWtqDi6OEWcJFS0NBLRFWma9rExrAiNaVrHxtAh9Zgt9mTS+t3nBeM9e0YYs0SVojLEas14ahxjrsaOhuk6v9w9TLjtn7Crg5lGsmi1D+GaxzagemaDnHjwLru+8MILPZpGHn3l0ezvZi4d2n+XYpQdkwctq4f9aNr+FSntcSbjPVLAXFXSGLOaLKY5BnGR5aT9mQakx4QUgrU+/hr9xSUIgiAIIjln/IHHnppRMWb/wVc+9D5ftL5BpE64kibyAL5esl4+/uH8jr+esv/yo3YeVAopC5zJbFN7GBwyICEhAFlSUtJtxjN16tTY2x/O3Cl/zOTMi+9/c/FLMxaYhmEaIi5EBISQqG5q62xu68Tg3AJNCEuQaIzjxvOPxBffLce/n38fUcOwoyE9R0RSFIhrcbwkyYJEprzHecDAMCAjF2ftMx6PX3GsePYvxy+6/Mjda/N0fY+CrAzULN+MtvYwOpu7rDUJAakbVjqVM9EViQmndJc4ZRyBQT4UlWZi6dM1CcEgzHh6j60crO0xbT+IIzKckrCOCd10KjTZ6THMnsy7ms1J00j2HCjcbmhoTyYlYOoMy6atw+bvG7HnkRMv/PzTBQO2NLhGTBr5z66uGLJ3DmDkcWVYPaMWNe+1xf0O0vltMhEJSIreOOKDJzqx99R3BAA6l0ehelTwAO8+sTYM+6p+Gp+F89AwIA09UYkKsKJTXV32PjUSfhAgHolKq0HsCEKwyIem7zoS/VNsccU0j/XYnQ7mRHm4dSuFK0JmmnCaP0ZWhrHgjmXIzsnbtHp9HX/+sXe+7u04PD3t3rmqypGzc0b6SJJTJc20UsHiothJM1O4dd+JkDCkN5670tukk1YGAIYlyHwbFlAndIIgCIIguptW77vv3yu/mL/c8/Dnaz6ueupjOXvFJmFKabovkksI+cQHc2UwkLH0okMnZEFiSGpkIaobAOCRUiLb75GL5886paeNOP300yOvvPf5GO/wfbIuvv/NFe9+s8QwDVMIW4Q8+MqMwKmH7tnhiBJpixBFclxy1L7YdacB+OO9L+DbVeut1C2ZECKi1/SsRJoW0nhR0gmSJIO8tUe4wuSo0ZW5Ay8/clft6T9PNV7624lr//u3k5bForGkCIe0O1zHJ55CxHucxNOs7Hld5TH5iMViqP+4wyVCRPcJn2lYkRBXPwbpVFFyl9J1DMSKAmialbbl8VjRjdSr4Yo1SXZSiTqWduG7u5YhI9MfPbvqsswXH3v3vq0ZXLuNmfyC5VAA1DyOUeeUo6O2CyufrIUwrFQnKcxEY0VbOEndjkjY0SMpTDtVyujRG8IUBRs+a0CfvQu7v+ikGvXk80jdp+me1mO2uDNc5WlTJvMp1cMYA/ImZKOtOuyqL20LKedsUuxIj9O1nSc6p1tvk/aqOaSiYO3TGzHv+VVQVFVOvvbmwVs6BtOemZa/cNay/n33Lko0jkztd+JsF7O+J96cMqX8cZLI6Gk/OWLJFfETbQY4Z5KVjRT0J5cgCIIgiLRJ9YwxOePzr/Z/5bMFyhtLO+44687Xjbtf+1q8/MX3mLV0g/jnM5+w/ScM/354Re4wd6JS3L8hJbKDPkR0s01KiWEVBVi2aMHtW9qYU045pfO5N2cMn13P/v3UR3OjQgjoptn17AffsD/sM7ZaCgFhp2Q5IkQIiQnllbj5vKOxqrEe9785A/UdnUlCZOtESIpnJNUYL5Ot6+5qXUkRFkBlUvYt0ZQh2UG/PalzdRl30licalVAoheE223DgKGHl2LNwjoYTaLHybK0IyDdJoiKYvsH7NQZ5urEKJGofOQIk9SUGs7BFBUbXmzAsnc3YvRuI95fuHi9r+rCqo6tHVwZyKhPKpLMgIEnFyJU7MP3D25ErMkE44q1/2wPjHRHKVwelSTTfOp41TSYugJDNxAYHkwzyq20JynMH36mSGmlb8WbBLJEapodoWGqEi+N7BxjT6kPpu763qQIlR31cJovqqo1vuL9WJzUPAWdG00s+s8KMKkivyCEwpL8xpKSEn1Lm/3sw/d95/EoyBzmSy4wkFohzBkrqmqPF54QKu7qwUJaVbwMM70nxy2UbZHSvioGj1eT9VkREiAEQRAEQfTe5ZsxJl97452r5y5e7XvojS8VbdCe+f946mM2ceywVUVZ3pESsvsk3V76FuVh2ca6kJXbLn0n7TvamHL4fh9saYPuv+uusSsWzrnoD/uMbZFS4KWP5/oGlBaAMwxyxIeQ1hIXIVJABcOR43bAGQfujk2dTaiPdsSN7FI6n9kWIZLiGUmXytVD+WAnn7+iIAS93WU8TvUw2I3nEt3elcTkjTEE+vlR1icbi6dvToiWrYA5aVRxE7MtMBzztNNs0DGxi+59J4x2EwvuW4uOhi550mVTdv3g7VkHbuvgmjp1qpmullrh/iH03zcfS57fhObZ7Qmjdzoc43yPI9j6DZvfqEN+n+ye+2fEvTPMdQy20RMthTWeDD0hiJxxwJg93myB4RjrFesYOBlz8Ym+00HdOYcUNX5sHGHDuFWZasPLDVjzxmYMPKQv+pxcjI7WLozaZcKNOatX9zqhv3f6vcWLv11d1v+gUqtgAefpIxhCJHxJTiqgE21irmaV9vYyO0LGtnRsbFo2dCInN7M9GMnS6U8uQRAEQRDb1G2uYdPqkweV5cvdhxT1c/fnSLfsPnpA7M0vFoacxxOHVeTuM6xkzIF77bLp6aef7p+67ldeeSX7/DNPfPqdV56Yee8lx9RCiJKuWMy468WPWd+yQvO7VZt0J+IhXMLD8YkIe3LIGTAitwS5qt96zqmoJRNCpEfBke6/LYiR5OhH8iS6LD8L0TW6JTSEmZh0Gobraj6LiwuZJpJRekQuYrqB8LJI+vQh3r1jtuyphC1PVLqKexkcI7TTRA9A88xWfPfgKpT3K2o87ZyL1DuqHvv6hw6wnjYlY6AXI08vxea5zVj/SvO2r8Al5KSUaK3tRNEhed2FjEhUAWOaBqZ5LCN4XDZuA4qSEAx2F/N4JTHhOv5OpTE7qqR5uDUO3OWP4ylctsnbKWGraoDmARhH19ouLLp3LRhTMOKi/vAP9tibwTH+qKnTt7S5z959zwKfz4PAkCCgalZBAY8nkaKXVI5YJsSpu7O7aVhjQ9fjPhFLMHFrO7dCFLc1RzBwZOULVS+8QAKEIAiCIIhtEyCffPTBjecduftaKSXfUvRgt+F99Pe/Wcx0U3Taz7GDxg3Iv/7EvaLvPvvAwj132qFjn93GbTrigImrD9xr54aH7ryxemSess8Dlx6tezjrawphXnTbc+qlx09u/df5h/NP56/G2tqWWEKEyBQRkkjJkvHnpStakhAiQvZgVhdbK0q2IEZsygtDsqs+hkS/B5mIOjArHYtpWvz1pEZvdo8GpigoLA1i48yWrZugK4q9zt5UAeK9R2QsZqU/SQnoJlY+tA5rv6rGxIMn3DJr1rL8qqqqH5w2I6VknDEwmf4queLlGH5mCYQusPThGkg95bcw136TyX4WxrnVDdznR9ucMLwBDxiT6fePM+Hn7lQndE9D2ho1JVyNER2TOLPy2uJeGifdDgwQElmVGWj8rqXb8ZLCVZrYEaSKFaXY8EINVr1dj4GHVqLiuEJXc8Ct4/ZHbqhYvnBDwcAjyxMH3RY98QIEqR4hKeLeG2uTEmln8dQtd4rWVvRrkYZ1ro6VoWu3XfERBEEQBPF7RN2WNxuG9PXPD5bIrWkSx5Bx3pF7GHe99HngimP3jJtwC7N8/f5xyr4A2Pqoic1Rw/SEfGpY4XwoYyiWQqJT142r7n5JXd8caxKAVwjBzj9sF37H8zP4lcftnTSPdrc7l/b9bre2kHDfd0cuugkJyN4raSGdH0R2izzk5WTKyPwoA8+yJn1SJrqAC2F3s3aaAFoVhpi9LqfnAlMkKo8sxqx7VkBK1n2SnfKdzOUt6eVAWl6LeK4+EFkXw5LXNiI7N9M874ZzSqvOv63uxw6up59+OlMCVl8Iu4xv3IjvbDsD+k7NQ/PXnVjw8EYMPqQI/gpPolpTanqWLcrik2bTxKZv6jDw6LJ4lS9r/SxRtckpq8wSHb4lAKap1oTb3hYpJExdwIgKCEPAlABXORQPh6oyKIpMW342kYpklS2WegySMet3QyJ3XCZWvlANqWfY3yMSPUmccru28Iyu68KKVzYiqzATIy/oB8Cu4KUyV98OBo/PK4Foj/t++rQnFgaCfngrvYkokL090jCtbXbEFAPA7RQwQ4c0dDBFtX6r5rXEsVNMwbmVSJjae6Hm/RZkZWWYKxb3FuYiCIIgCOJ/iW26rJqfHZCA9G8p+uF4LY6ZONJYuaEGr36xSCalP1klYSu9itwly6uMY5AjpBCKEMJ85bP5OOpPD6jRQPFfvlu8LO+zJZvqhBCGFELpiEakcEU73B4Q67FMinykRkDSR0OSq2a5myCm8330WNo3DUGfxzSiZqLpm6okcuoZi08MpTPJdiaxdmUkGIbVOyLogd+ronHGVvi/Ge/d2iCRLD4AVL/TikWvbMDwCYO+W7aqWv0pxAcAzFv1yRGQEtLpfWGbtJlTgcsVqcnZJQNDjyrF8rfq0PBph91LI+WHOBXDnMiIaUKvjkFKQCuwy9Y6VabiPU+QKPPreF1MtwCyIg7ClNC7TIRbDJhtOvooKob7vCgVHJ2NEXR2GtCN7pNt5vHETehJHeWdillCQMliVqWyeAf7lGpchg4YJja8UIOVr2xC/0PLUX5MDiANq4u8E2lxa0jT7PEqwD/u/b9hq5f9P3vfHWdHVb7/vGdm7t27fTdb0nsogYQOokgHpYSmRGxgQUFBERUb/nS/+rWgfpUmCCJNigRBIPTepIdOaCG9bepm6y0z5/39cc6ZmXv33s3uJtkkcB4+l+zevVPOzJm57zPv+7zP8ppJJ49Rb+g2y6HbunGONyV/Zk4ax3USSgjvuFE5Vjg2RYAA3TyhL0hgxYIO7H7QPpdcOQe2/MrCwsLCwsICwAAzIEx96Aui+FaFJ+qHsou/e1L7OZfeUfXUa/Nw/qmf7qmvSqZYl+UQAUyMnmzgz376Dfea+55zvERZ54FHnzjisssu6wQAt7zsnWxOVnsODRMEkhw9tY+2yVFwjZgLsw72uGg2JJb5QDFykZ8tQT9E64VIJV0OcjrYNE+vzb+k3xcEChB7Iq6duIMA5HrGXRCjdx+GJa+sQ8MhFVEwWBic92XUZ5CLyEeQZrxzwwowA8d8+dOfve7S227bnJPr5f++cn6yzIvM9YzuAVqo7bggD5qE+Ug2O5j+zdF475+taFvWg8lfHh5qDMhxomNsfDj8HBbd04pRu9WrlsaOExEAN1/snxf4kwCBI/0GEYJsgJ52HxPLEjhwtxSqKhJwHAdBEGBDh4f756bR2hXAK/fU3DU+HaatGCMmSjebY30tqCwD5wjkRX8n1wUDyC7L4f3ZS1DdUIGpZ4zWp5fzW/EawqrLvTD3Lcy99d6iVPOOq//1YnVNORKNLpDJqmsh7LSGkNiFjbY4pv8QDiCC0HtGjYfCzA0JirRMG8t+3N+Oiook73za98/DtbPt3dbCwsLCwsJi4ARkfVsXpJQ5IYRXknwYBhL9UH3RWSfknpq7rO2M/7u5sbqiDPvsMBZ1VeXIBgFefW8JXnhvievnAlRXpDB6dFNu7733rgPQCQAym9vBEexIZuT8gKWUlLfBPkhI8X/jhCRGNkoSjb5ISmnyAQBlngvpc6x0JgahA8pAqnUbt+tYUBc3CKzfvxLvP7cS/nqGW1e4Lu3bIJze7XTD46Se/huhe9srPZj3dCvGTGjuPP5npw5rmdmS3dyTa+n7yyfXjaqMSqZYicEhETPc8yKdhpQgAex4WjOW3dOGN/+2BFO/MhZOdUJztthxDnwwE7q7c6jZJ6nIW0h+9edcJ2o7LINYCZ02QYwd62y3j2bh4PDpCdTWVqGyohyu58LP+UilunFCgnDTS12QDsGF2mdydeZDqgwWxztwxfxdmBmJJKFrXhaVO0eXDvsBlt21Fhta05hwZCNS4zwd60emkOS4ar2UP+m7Hn8cbz3+eK+J979/Pn/vi351UcVuZ+wYeY+A8jtW6eNApvzPCMk1CY7a7sYyf5pwcNC/VsYyJ7D0g3U48ovH/KDlkEN8e6u1sLCwsLCwGBQB8crK2pat7xGj68vrihEPyiceMULC3gFTRzZ+cuqXIYF5i9d28dq2rqpUKpE+8ZO7d4Aw9hf/uLv6T98+fvny9T0df/331e9+42tfuGnyjjvc3/XBa1VSylpfIl1bWe7JYk9d8zIe+T/3TT6KExGUaslb4m+lkHAF9ZkxMqUwJvArLDnS3ZZMxqOurhzLHlyHcZ8bpjIdut0ruW4krC4GgklfAQws+NcarF/ThY8dtsf1d9/+9GmvzGzZ7BOrZVZL4vIz/uSMP26C2v/AR1ga5bn5Y5Xo9TR91DG1qJqbwutXLcTkT49G1S7loSu7abW76t42VA9LxdYjlfYivu5ARk/yC4PnMCPDyKUZ+01KorqqAnW1NaitrUZZWRLpdAau5yKQAfYfw3gWrCZ13vEWYRMBlqzOh8n6sNp27fhyrH+nG5U71wAAMsuymHfvatQ0VmDq6SMjgmFKz8IxaD1QIAFHHysGaNzYoumHW6+58emaugp4lRyVmJm2vyTC7l1mWkRdrDjMtoUJtnx/m+KZtxJYcEsrmofX+Ts0Tb3I3mYtLCwsLCwskB859R8HHnLEybc89kptL71HEfdx040qNALUnyHw5PHDyqfsNblp+C6j6sav3tCxS8u191a3fPWoZcQYNaoutdNvv3Qw9mh0jl702guXnXbIrp6UEq+8t8T92NTxbcYJPa/zFed3v8rvhJXfrpdDPYj5Oe4PEv9c4av43/qCLyWX1GNkdSmU7ugUEo4SRAUAxhxSj9WrOiLvDvOU3fX6df5yqwK8eulC+FnIL/741Cl33/70aVtqYr1yxxPXgAhOjXbHllK5iecF12YWUtF2rtW7pjDtG5Ow4JEVWPqf1si8T2cbVi3pwOhj66Lg2IjMOUY+ws5NBZ4VjCgL4zhgctA8DEgmE6ioLEddfS1GjGhCXV0NKivKkUwmMGoYip8nY/zoeaBkEkgmgURCES2dBanbqxzdbRmAgSW3r8G8e9dg4lFNGH1CbW/NjnCi8RjjSlOCpbed85xgl5aWvB352QXfPmT54tXJiSc0RM7yppQKKG7kqLNwpuxPPTXQ5YDGC4R5QOQjsyxA2/oufOqEg/felC5qFhYWFhYWFpaA4M8XX/bYvDXdbQtWd3RxAcnIJyQxMhInIiExYEgZ8G1PvY4nXlu44fenH91RkXBGx8TlqSOmjR1x7jF7NEop61hKPPLyu870cU15LXh7EZFiJCT+L8c9Q2JkIvQSifmFyFLGhXof+xGM+YGEECUYiN4H9HNdAJAaq0qRut5Q1VLkuirQBaLSmUAqnUcQROZyAFbdvw6v/vMDTJ427oMPFrc6f/npZfO25MR648k3Pz98XF1s3zjy0SgWBJcwtHPLJKZ/axwybVm8c+ViSB+A66Lz9TS8hAOnzLQt1k7yQRCZLhpXcl0CFm9zzECYESHhgEGQQFiyJYjguC6EEMokEgSH9L5KxATZeqE4oSmGpAAHAd68cimEcLHL6SORGl2EOBKpMjnhKAJjDCVDY0kCE0BjdpFvTZ2at7G7rp39QF1jJUSFJn05P/KWMUQmz5neGFQi9KfhXDZqxRs/d0H/XeTfv2cldp42cdmfL7jhNXuLtbCwsLCwsNgkAgIAZ57z45F/vPXpsvaebGch8QhJQfx3lvk/S8biVRv839z4GD6+y8TXv3DwLnUsZXUhMYg6W0m092RyVeUpn1kOi5ONOBEJXdJLZUe4wLywF9EokuGQEdnob9YjjkxWUtHA2qxnEMFd87hqLHl+jQ4cdUBpxNCsOi9xLgfOZMB+DrIrjbf/Oh8r5q7BYScc/O2nn3hj8paeVF88fcb32ju6qfno6miMhZ2fCoJuKgiMyfVUNzAd1E/6yhg0TKnBG5fMQ3pxBoueXYOxn2yIERftJE/GgbygG5ijsyBxR3lTriUEhCuwbgMhk8mip6cHbW3tWLG8FW1tG9DV3YNsNocV6wDBmqEEUutW9Hzoy6dDZ2bqRlZg0tHDMapY1iM2N6KMmCaU5vd4pmjaWOwyd244Gc85/2ufaV2+zht3Un2M2KksCGezipTq/SThhHoOzmTUfJGBNknkouenv2h/OQ2WwKGHf3Ine3u1sLCwsLCwKAZ3oAt89atfTbf8oWX0+dffuOQHJ+6fHddYleCCunVVsaGeapufmQhZX6avvPv5ZH1NdfdPTzlIAjRdkRgdDDLAIIAYFGnKceXs59zvnHTAMinl6KhWPi9qi/7Psd8Lu2EV/mv+3utns/zgiEdIQHI5chPFulIpUXD8KXz/6KLA6OOa8MJF74GlAFEA+LpzkXbY5liZTucbXXj30VYMH1mfOfvy8+vPmHFG95aeUMxME0Y2/Hn4xHo4ZQktfJdh96miVnRSRk0EwoBXi6NJZzZYouHgalRNSuHd2xZDSkb5ZDfUOZCnpjJJqTIHvY4dAeSBQErcb/Q8QQByXXgpB68uCzC8oQee2w7fD+B5LnI5H52dXejs7MLLS9OgxgTg6W5bgYw0FqXZB8h1wDmJ5qOr+w7uOabbMAQq5v2hyJwmcW8szlvN/bfcd0vDiBo4ieL7wrksCKpRAfu53u2jS3VPy/Nj6T22vBNKDj54bhU+dsRet7S0XNZpb68WFhYWFhYWm4WAAEDLj1pWPvbYY6mf/+i7H0wfXjnmswfu4teUJz1jOkda3GuISVtXzr/n+bnOhu6c+9Wj9p5fmXAnSS26Ju0rQGRCUAp9zgDg3hfe410njV5FLEfLXsQj/ntvEsIRC4kRjMJ/44SkN/Ewvw8GbZ1pkShzYv1O47GbADnoX1chHQSScEBJF6myBNY80o6mT9WoINDPRR2gNBbftg6rV3Rgt0/sdM/D97x07BkzzhiSCXXo4Xu+2Z3O0s4nTVDBsi5hYiP4NjEr5ROQvOyIlLpzLQEi8uoAM5JjPEw7cwLSi3tica+Iyov6NGGMum1xXqcnIFHpYf6aNJ5/O4u9d9yAnp40HNdB4Afo7k7jmbkZrMwFqNHzgUidO3KgBP6lUhqmbKsPUqmmg6PLpWI+MSg4VkJEpKGmBlj1bQDAt8497Zv/vvo2Z88zx/W9HRKRkWDs2kC8S1mxuVf0fQFyRF7WZMU961FdXcEJ2fhFe2u1sLCwsLCw2KwEBAAOUa01xx3x45axP7v530/WeXLMmIZqMaGphhMJF37AWLauA2vbuzC2ubF75kG7rXAFdgSRIh8h6dD/xoiIlMDsZ97i6x6aQ2NHNAcXnvnphlKmZ4VZj+hX7vWzZKmegBcQi2JZj00hHgZr2rpEosoFcn6kDzBGgTpgJtctajTXm3yIsHvUmH2bsPi5VjQdVafayyLydvBXZzD3luVIJFw+/szj9rnq9zfNGarJdNKpn/rNE3c8NXX6yeMVudOu52S6fIWGffnkI95uODqJEhwwIEmL7bV+RAYASZSNjp70MzOQyahWxKWe5EsZmT4WPvknwC1zUV6XxCttacx7IYsdawNUJoGONOO9dT1oF0BZtZcXqJPjqPUFAcgpK0k0mQNNooqc40Cq7I3rgCTll6wZHxA/iIiAybaMrQHebwHQgkfueODy5nG1ylOlD+6lOmHp+QSojl2Oo7IsRosUm4fKhyY2ZLO80aLEsigyy1i5YD1mfv+Uz17y/64K7K3VwsLCwsLCYrMTEIOWC1oWAxgPAHtP33F9ZU2Nd9z0sXNTCcdxgRFEGAGgmiCrVdKDwoA5Xnplgm0OGP/zz4dx/wtvkyCBncaPyEkpU9hIbNWLhMR+f39Fm0wmvNWj68ubmCX1Jh/qs5uLeIQEZH0nykeVqe5fErpcR/9R6DSP46gYz3HAfhAFqbp7Uqid0AJqBrD6zTaUVyaVz0VWm8MRYe3jbZj/Uism7zRm5bPPvT2SiHioJtJ5f/julGt/c/XPxuzYiLJxZepBvg6WmaEzE7psCRSJtUmUJl+OEx2DmM9LuJwmKmF5kHB0B6kSk0TvE0up7TGMboQgBJCsSSBZofbnPdMRKsWgUSnUFJIZEQXf5Hoqy1EoQM9mo1bKpSBM9kRnbwxRCdenxx4EvXxeWn7Zwmdu+MxPbr/mAbHnaTsAMteHOWBk0BmSDSPK19kRIgEOfN2eVxMTrS0i19U6EupNRCRj/i0rMX7K6I5L/t9V/7G3VQsLCwsLC4u+IDbnyr7wlTNGvjR3QbKnJ72bkMGezHKEEXEX+1fGhN6SGUEQ4GdX38cPvPgODp1YjaZKD0tXtzkyr9NV71e8y1b4Hkus2tAj/zjraSzs4A+GVyeHsZQUfSb/s3Gx+ebCmg3dSI1zojKaPO8LGbU61cFwr7IkitrzchCAA4n3Lp8P6UvscMaEWJDu4L2rlmLxq2twwPEf/8Vzz78zYijJBwDc+bdZ7ySTHoZ/uio/CGaABIWO2+z7QC4LmHEbH5Qi5INMcG9Iiu4GpQTqAoX1eBxfb6/1ify2tvFjzrFzQ9rh3DzxL4ZQo0Kq7a5TxAAykErc7W/Egy88VpzfvQsAp3uUSDyrO1PJ3omFh2576rcjpjSCEi7IS0B2MoJiSh9WbvNqPYbYcjR+lmo8ngd4CdW6ONamGJLV+46IxPyOInzpJTl0d2XwxW+cMhXFVT4WFhYWFhYWFiHczbmy73//+z2zZs0q+9/ftKz5wkE7uvtOGS5U7MM646G9K8yTY/1EHyCs6+iSv7juYXpt3lI6YkotRtcksKgtg87uNEnZfyuB9p6cP2fecvH83MX08gcr2HGczGuLVo240fM6wOynko4UEF7CoTIhyK2vKnMbqlPUUF1O4xprMH54LarKEpvleKxq70JteU3vIBfQGQ5WT+B1NkTpAOJjzbN6x9uXzweBsNPZk8K3uxdkMfe2+WhoqvE/+7OvNlxwxgUbhnoSHXTwbu+889p8sccZ46Jg35gOhloJF+SKvGyO8rWQRQkIESmyACjHcajWsqRLpuJi+/zAP8gXoQcyJuRWJVzkOHqTFBEA80TfGAoGuej9XiVbmiQYM0JmIIiVX7FUZXf9QNTpK2ayKEj9WzDvOQjyOOpp3z7xD/d1PERTzhgPEBD4hFeuXRxyXQJBOIRURRLltQlUji1D9S4piLKYJ4qI6UIYUWaOCqahiLqNRW171XLv37MC0/fb4eXvfqNlmb2lWlhYWFhYWAwpAQGAmTNnBgDqUlXVD77w9uLDTztyj2xVmZcMMwta9J3O+Vi4sg3PvbtEPvbyB2LBynUi5Tk4dqdajKhOwpeMMldgfU+WjGbExD9RbM5Y097Nry9YhXeXr8X8ZetzWSexcMrO036x80HH33rLY/03QbvmmmvKXnv5qVOuve2F8/2urvE7jKx3dhw9jKaMqudRw6rJFQNLFjGYl69ppxrUaP8JHWByrFRHEJDwIg8GP5cXCIeBLwNz/74Ejiuw49mTwkOw7N+tWP7BWuyyz8Snn3jo9U++fcYFW2USzX978Y47fGokkBCKIIQu4QIQDiiXVUG564WlWJzLKQJaQoRv3jelUiFMJqREdoJZgnw/2gcnVuLlB5ofGI+LQK1GCFUGKKiEjiP6nYSItCxAZA5ofs9lS7ez7UU+HKAs2XtsgYwIa3w9UgKZbMhLn3/ouXObxtWFibJ3/z4fzWPqMfrEGq2tATILc2ifn0bXmgyWvbgO8//rh5zJ8xyUV5WhoiGJ+n1rkGxOqPE4QvudyDxH9rCcTDcFYCmx/r9dcB0HHysfv//9eNFmPywsLCwsLCyGnoAYPPL0c0eec845Y3907b0vjRmWql+wdJWzoTONdDaHjB8gnfXBzEh5jphQn8CxO9ViXF0SBCCn48WkJ9DTniOOaQBkwPKdZWvx0vsr6K3FqzPDxoz/2xdPO/MX5x1/fIfZ9tMvvj7g/f3qV7+aBnCtfuHZN+bj73//+4R/3f3v/1n0wctH1aaoblR9pWioKUd9VYoaq8u5ujyJyvIklyc9pDyHHO06KCXkI28uEKzr6uE4Me0CFe0CxcanodAVPQDeuGoJPNfFjmdOQm55Fl2LurH02VaQ4/IhMw455NZ/zn5ia02gWbNmOeec+XVU7JxSWQuvQAktdCYjFFFHZoR55We9mYTOZih9BZvuVSSg+zUXD+rD1r3xfRCqJCrw80vb4sefc727Q5mfHSdaLyEy70OMJMQNEPuTsRNClTQVvkfqnCutTBHI6FpwPFeSQw6kxIo718D3GaNPrIMRVZEDlE3yUDbJA1AF8hJKNyQEZJbRM7cHbfM60LGiG603rYcfSNQ3V2Hc8cPhVBvRvMgfk3DU+8xATmLBy6tx+PEHXtBy7a1Zezu1sLCwsLCw2KoEBAAuuuiixQCa5gC7phLOSweMrUzWpsrgOYSkSxiWclGT8iCZ4UtGTjL8IAr+XCJkslnnn4+/If0AvHJtBy1sbctO2XXnC3aaduivHrmtReLFtzHr9vu2yP5/4xvfWADg1ML3Z8+eXb5w4btjH5zz4tGrVizat6OzbafW1tbpS5auxdjRjXA9IVauWIemEfW9S1qkVAFkvFtTQQtaVWPECNoDvHnjMrR3ZZBKenj5z+9ACEIi4fLwCc0rX3r+vVFLaPZWfeq8uOudPSW0K3upLJHjqFbBQQBwLirhiQf5xaAF+BzE/C8gQY5bNHNCiURMPF34x1gXqWIEgblPEz6WWuwvnOhkhg7uujsXq/fJdTeeBWHuvZ9hu10n3408jyvppgmXX47yyrLutraOmu73erDk3dXY4yuTANNxq3AMoU+P2ohIECp2K0fFbikllieCv87HkvtW45Ur3oPnuRi9RwOGHVCjfU9kjIiocsqFt69BXV1lsMO19/zM3kotLCwsLCwstgkCEo+bAOCT46vQWOnlkY2cLG2T4AiCZAouuvXJvP2c884C4N/3brWDNmPGjG4A7+gXAODI4/aZt35d56S6XUcAAJYvW4v6XSojoXNYWkX5bVazWdX9KhaYdrzdjSX/XY8gYIzfYUzr4V8+7phpDXu+MXPmzPAp8+IV60q7aQ8hnnrw0R87jtO3GZ9pMxwEkfajn+gl4jbi6WIQYiOO5NSv0qj458l1VdDuiF5lcaGexXGijl2aQCi38aC0CN0YGZpyp7iInWItfgvhBwAYmWf+y5VTxq1ftWxdzVt3LMKkj42CVy9U6+K+vGVC8bnOtpjubGC4dQ7Gf64R49GEjtczWPz8Gix8sRXVwyox+shmpEYnVNuKIEBubQ5rVnbhy6cee0jLJf+S9lZqYWFhYWFhsa0RkEGFyqokP3R526bry13XW+QIZxKEAPwAzEDFzl5+29mw4yqF2oGovIzQ+tAGrJzXDi/h8o57TnnqG1/54aEzZ84Mnn127jY77hXzlh9SUZVUgbHpmlSKHJgAeHPMprBFr2YDQvQ9Qwi61ax2PycCSwKJ0guR46oyKSl7ExuTlZGxTEYY3FPpTEseGZDK5yQIlIg9Xr7muCBX9iIwFCZWalHTUDuvdc3c8aNG1KN+H09lTUjkXy7x8rbAB9h0sAp3IiRmYdbGEajeqxK77lMNmWYsm92Kt27+AADQPLEeo46qw3v/bsXEySPbai751/P2NmphYWFhYWExoBh/W965WOzkbOsHctSo0Q/6fgCWATrmr0F5RQqU8BD6OBSWWWndAHcx5t+0Ci//dSE6W3PBYScd8JPFK9aKh+594SAt6N+m0bamvbaiKalazmYzvbMTgVSBb7FgPJ41oYFNRRJCl32pNrGqm1QfPFey+rzrRW1u+2hURa4XmhT20qjEXdSNS3vhuOOtfkvuk4xK8grNKImiVrh5nEVnLg7eHV1dPSMrU0lM+kJDrI0w5R+HWNZGtXL2I18VyarFb+Dnl4xJqUvKGCIlMOZzI7D3D3bAzkeNRWdrF56/6D2s3dCFXadN+uOG0dv+tWlhYWFhYWHx0SQgPJgkCEXBm9jWD+R+nzzy774MkO3KYM3KNjSMr9MBoy6JkYEycstmwdksOl5ejzf/ugCvXrUA5ZWVXV/70Zf2fH/hSveGv99zwfY0gVzP8bPdenxBoJ+y6yA256vuXtqrJSxVCgXdBEokIv2I4wKuq8gEaWLheppcOJEZYxCA/SDytDBu6n15boSeHyrYJwBBrlTtn6OyEbr9b2+PjwAwHcsCX5MsPf6weYDyNyGndHzOOtBnU5oWxEiIzvKE7u6uq44F60zPbrtj0RuLdho/rRnCczS5cnVWpUTmRTja+dxRGavAj19j2ihT5JMnY5QoBCqmprDzN8dg3+9MRnV5EnPfmve9pUthxecWFhYWFhYWA4sfh3JjAy2+ibGObf4p6+kzT1+3w/jmoO2d1U53dxqNn6zN87jgIAD8AMvv24CVCzbA9VzsuMekt776pVP2O/XU87pefe1v2+UEahzdsGjhu0unQKiyMs752gOD893pHSf/CTsASAGQOkakS6RUaVWgAm3SHhWuq+hrIMGG6KCgU1V/9B1BEPmsEAEZABUDHLBUrWgZAOlWtJDZPD8RCjUxHLX8LXlRcJRJEbFsiiE9rqvd2vU+l0swGI2JxrKO9rQY/9kR6hiGx7VEtSIJJaIPTRNVqaAiI37U2phJmTzGGyeYc6P3QaQcSClx8F7TP/X7F98P7G3UwsLCwsLCYpAx/raH7akECwA+9eUj9mpv7wSEQGZdJyQCQDAyK7J475oVePGvi9C11ucDj/n4xctXt9FjD87Z9dRTz+vanifQTh+b9td0TxZsgl6WUZvWeCBsjPXigbrr5HenMiVPrhtlIBxXdwwj7W1IpQXvJPoQqKt2wOS4oERSeRBmSs07iulLinEGVpmdwjGZDE0o8tZu7aX212SG4kSkmI7GtPcFgKSAIMLbS547mxlwqmIEl3RZWpELicJSMiogOaTGGzNRVA7uud4ZJa2FWfd0O6qqK3mk1z3X3kItLCwsLCwstlUCEn8W3n8CEv3obg8H85Jf3/DaiV8/5tDmxmr/vTuW45W/zMecvyzA67csQVVtVfcpZ55y0AeLW8W/b3zwnA/LBDrw40ddn++UvRFGabIDOnvAxuyORH6gHVJPkReEswmE4+sMs0w+kOujIsgRyiXdcyGEgPSF8sYoLEMyWYRiQ4qXOBVkXMhxVEmZ5+WZJZLr6VeBpkOXg4XkQwYFV0zBz5IB6QMgzHnipe+WVyaViWJoXCmLdt0i495uzA39AJzNgLM5lc0x2y8YD8dJGCPc9+WvrsYuH9v14e9ecp8tv7KwsLCwsLAYMLbtwJ62vwN65Z9nPQbAA4BZs2Ylnl30yFG77rDvo18//usdr73xjw/dBPrisV9c31xfhVyHRCJFGycgzCAS4Dj1dZzS7XONnoSUBwdJBpuA23FCDYMhJhwEoFyutyFir10hBBloo8MoaxNmZdwSl4ZQJCP06WBj+qc/H0i1LBHAThT8m2xDPOCHCeq1PsX1IqKQZ9IY1UMpzTtj2cLWyuG7Nkb7EG/tXGSfQy0Hs8pu6AwVMymTxVgrYdZmh6rszQ+PPQiQaYbvSxz3tfNOuWvWI9b53MLCwsLCwuJDRkAiBkLb48HVvh13Ald8qCdReXmSO15L07CPpTZKPsAMdpROgqVUTvHCichG/GwzVEbDxN+OG9Ml6OwFoDUjpqWxJiy+X5pEABCOQJAJwnUFOYnAJ+Q6AuTSObDsBLlAIuUhUVEGN+GAHApLxMhxgUxGZV0A5dTuay4hKBTZ9+pKJYU2KlQCdNJlW2YckFDkJn7coB3e1YYgWaK7J0d1+5SrzxZmVQqOO8sARJrk5SJiQ0KL7eM6HSFARkwvnChrpbH28TWorq0MliaT3fb2aWFhYWFhYbEtE5BBPSmloj9abGuoqavual+SrixJQEJ9Acf+pUjPwTLWzjZmzme6VpnlA18F7mZGxIN7GcS2o4N4HciTcKIn/PojQggE3UqUHgRANk3IdWaxU0pg7HAPwvGwpkPitTXd6EznUF5bhmRlKn9Gep7KEBjSY7btByARmRKGBAtQJWAAyGQ5hFD6GO0bEmUnYptyXYBE+LcgYAhBEOUOEHBUdlV4nM3PvmZGjgs4AkSuJoMFV1u8+5XU56QgM7VmXjt22G2Ht6HoloWFhYWFhYXFNktABkVDYtUkloBswyivSLZ3dnVXlvyACbLNyRROqI9QxKGAdRIBDoXdmVi7qJPrgoQxEIwFxoKUkZ8OnFn6eZOI/RzIGO5poiIEQWYZzEAuI8HtWZy0QwIjmxIoK0sCAHI5H9M6HNz7eg9WtqWRrEj2z68k8MFwIuJTil3Hxd8x741el43OSJDjAjKAEITqugpNvtzo2AoBEo4mJAWaDkK+fsWcA9PhqlBzwiiqEMtlfXzy8MPO+38HH2K7X1lYWFhYWFhsBwRk8LAEZJs+O30wS9NaVgil/YDRHkSEQQXXTr4HBRDz1FAdnpgZZLo4xYmA7u5EoIKH+nraGBIQa98rHEKQCxBkJdLtORw9LolxI1OorqlCZUU5iAg96TQSnoujpjGun9OJgAM48e3KoLTjOXMU9BcjLYHME6FzoVllwbpIEzESqgtWw441oQs7JRJqfVCdrchztdYjCIkeBxIE5ckSieFj5oXxK4w1GUKsWxZDaW9AqFiy4oXCQ21hYWFhYWFhsa0RkE0NViwB2Z4YiHmyzwwSQmszSOsORGi8F5r0mfawpDMlRruhn/irJ/tqPWEAXVRsTYBELwJDQmi/Dm0O6HrIZXyQAPx0gBrJGD9CoKKiHMPqa1FTWw1HOGhv7wAzI5PJYtc6H/NlAJCnZmM2B+6r4xazCvpNhy8qQc50CReBIg1LIcIsijqOwhEoa0yVcFvXZWlS5luCGI8PUn4tcAlgUoaKIaGLnN2jfY9KtbjLRyAlsl3tNvthYWFhYWFhsc0TkEGxkFhYJeyp2n74hwr6HRVQuy7IGADqjlNkNBGh+FyXC5mOS0Z0rsuDSHdxIuMHYmaTDABpyq4CFTAbY734vAsCmFbBBALncujqSmPHvcuQSafRmHTgug6SyQRSqTLU19cimUhASonOzi54nodhFS7mSwbnemKkCn0SEJX9cHuTD+MfEts3ckRpM0UtsCfXAxwBx3GQ2eCjnBLRhcUxg8VQa9ObjKmMFLQ+Jlb+RTpjEwDplWlk1/nwuyT8TglkJYIco3tdGo4jMGc9Ou2kt7CwsLCwsNguCMiA41qrAdkuICDyFc1aXE6mfStIibIZKqshpHoK7/sRcQAAcqLSJbMeR+scwgCaYkE3R0L0QPuAiCKaC1PapHlI51tpuI6AUw5gvUQmEGDJkFLCDwJk0lkEfgDfV0/8JUtkshKU1NkBv5/6a+OjIWVUihZIlTmJl6AB4ID7dnIPBfuA6xJkj05CGGd2bYhIOgPCOT8iJYZ4mI5bvo+uBRmsf6sb3WvTCHISMpBo6+xBbVUKnudKx3PZcUg6rstCIABRUFVVEYyePOrVW2+91WZALCwsLCwsLLZ5AqLCRR50JZbNgGzTDIQkQCDHBbNurWuyEQTVSSlAvhA6bMurSYWZG6ZEKN66tphHiCYg7GejZR1HZydkn8H8ipc3oL6pWi2ScLB0TRpdPR66e9Job+8ES4YQAt3dPejq7Ea6J4MFrWnQmPK+SUKxie/nIp8NIXTWpoiRYV/rlTKWLZIQjoMgHSgC5wdRJy5oEhZQHvngANjwbCfWzOtELuMjVZbA5BHDeP+pU3LTJo1om9BQ0/brfz02ed6S9bTHny72bp050xIMCwsLCwsLi+2fgJjGOhYfxllEHJZNaU5BzL27WxmhNBEQBKqtLBCJnI0vBksATj7ZoCIzymQXwk3ojlkbwYa2Hkz7bCPgunDKCE6FxLPvBDg02QEwo7urGyQEspksOjq7sHBpFkt9iXrX0wH+AOJzKUPjwdCUsFSp1UY5vCJojkuQvlTHs3C8+koLNkiseLwdba1dKHMd7DN1nPz6Kfuumz62ocsBxpJKOyUANKWlFK/MXSKO+uqnvnmtJR8WFhYWFhYWHxICIjdxeVuCtQ2DdAkWQ4Z6grC0SpMNgHUWwNGxNAHkqyyGlDC+IBwEIFOyZJYl0Vt0rnUf+bG3mmbkKhf0YiLxzHIfRITkCNWVyy1zkKghvLMuA/k6Yf8pG1BZ4YJAyOVyeHuRxFNLulA2LKXj/4G3fwrNBpnDlrr5Hyji31FsHfqzQhCCbBCK7slxwVJCZiVW3N+G9cu7MKyqHMfuv3P2yL2nzK92nYkkKAFQAxEazDgMrrv/pWGjxgxPj6+e9g/gNjuhLSwsLCwsLD48BGSgD31pO3dC/6igqrb6jbdf/mD82v9WoO4T5XAC5a/BmbQmBK42tXOis8kUZw4gRwu7gyBKeAgBuF6JDlJFsgihUNvJ1z/EsOKpDaiuKQ9LxMgRSCZcJGtTWCUZd3YSUj0VcOCgK70OnAhQPbE6ts0BTkUtxAeilsO9x6JLxwI/IhqOo40JIy8U0t3EJBgyJ0M38+xqiQV3rUAmncPBe04JvviF3d5qLE9OJaIEEe1ERCHhiPQ26upqz+Q673nm7cpv/M9PprWc9VNpZ7OFhYWFhYXFh4eAaEuBAREQK0LfLnDvHU8fd/zMg//4/MNzfrj2vRQmnNaIRIxwspTKm6Lw/DrKNE9pR1iXaOlldOCtzPz68NEooKxwTMtbAiUSyhE9RgbWre7AlINHgjwvX2diCAaAnqBLXx0O4CuxPCWS0Sws5f2Rty4RkYlAhusmx8kvExOOIgUsIy8UQJEWyaoLbuDHWvYSoBJH6HijG4ueWIm6ihTOPvHjnQdMGZklEvVENN2QjpB8aMJRSEAuvPXJyil7Tl7QctZP59mZbGFhYWFhYfHhIiCbBktAtnHcOevx866addXvLvjRz1e/fvEiUTesEo6rvC2EUP4fwnPAAYNcAA7BdQEn5cKtyMFJAm4KKBvlghKxkiQ/B4hE1DFKu6JzUR0Gx/QiuhOXlwgJQ9AZIJCMqull+S7kxWA0JtpEUc3imHicRMksi/kMm5bDxueEdVesuAZEBqqUjIRqxWuYt4y3zVUdxbreTeP9h1ZgdVs3KpIucm1V+NEXD12534TmGgCVEeEQ6pjHCQhIDzlsMYYP1qxPv/ju0rLz77l+18cfnGEnsYWFhYWFhcWHioCwiskGLUO3BGQ7wOkzT1/3vR99/Sv//NvN10/4ciPIl4DjglwHLFwtGge4Kwu/k5BrzyDo8BFkJHpac+hc0YXaSVWo3688mjhBADJtb6U0Ewl5hntmkggReocoMqLJg6Na0LY+uhaVlSn1ucJ2vTHXcJCIMg7MavL5fpRZCbMYfYjJQ0d309GL8v8mpS6z4vzWw3GXd2bklvlY8eQarF7RjqbaSnzm0Om5+YvWeIftMyX9yR1HA8BwxVkU0RC6/bEhIqS9T9TvCDMfTOT/79UPlu112F63nrH3jG47ey0sLCwsLCw+lARkoGkQsgRku8PH9/7UTTeKWddn1kuk6j1VSiREdAIFQFUOvJQPr8EDkdZskIC83UdqZCI/gJdStZoFR34aADY814FErYPUhASQiLf91cF94GvdiQhn0KqFbRg9rVF7YeS0J4kITRDz/D1M1sIYIBrS4zgAHJBp9cucX+all6XQWZxCU8JQmG9Ik5SaNGm9BwNggfVPt2P9vA5wADgJgbJqF3tOGYFfnXo4A/DwSQBAWbS5fPLRi4RQLPuhCcj9r7xP63oyPP6Eb34eNz1sJ66FhYWFhYXFh46AyIiGDJiBEKwPyHaDmTNnBhNGN8r1z3eL1IxhsUxA7JwytBu6yVCobISfJZSNK1dGhVoDomZPrNxKSrAE1s9Po2JkBda926UDewFJ0B20CE45oWp8BSqmVECUO5A5IJPNov7AWsDhiKgY4XuhuSAzOhf2QHYzykalkGxIRMJ3PQY4LsJMi1kXqXIzBkddwJiV1gPQHcF0ORapEjW/HWh9dB0y7TkwA1UjyzHuC6PgppTxYOdrnRjXVVWUiJckH0JAFNWBELIs1//55kfrDjvl8DOvsW13LSwsLCwsLD7MBMRmQD4aGDmhedmyBa1jRtKwErOuoPxJGw8SEYQnlIu3JgHFkFmSRbI2gcZDKpS4nRnwPE0mgFwXkF6QQ9eiLqx4Zgl2+NZ4rHtyPVLJJESZCDMXAFTmI1fc2bz1mXZUDS9Dx/wMchnddcpMYobO7HAkOXEBt9xFw8dq4NaKqBTMCOkJYZviYC1jxaNrEQSAcAWG7V6Nil1SmrAgL3MjHEI6W3wfDdmIyEdM/2HeD/UulLnynmcTT7z2QV1NXXV2j7pdbx7XsqtoaWmx3a8sLCwsLCwsPpQEZFBO6GQJyHaHgw8/8gd/v+jvs5i5T513CGbtZyGi4L4PbHivBzVTKrTDuBvNDiLABbwawJvuoWp6LTI3pQEGWt9ai4bxddGsCoL85YpsM5lyUb9vNdxKqJa9OpBnZt2dS7f7DQKACcEGRm5xDiufbMOo4+pAiLfg1W3gSIAEkG3LQJS7GH10lerIFU5zUhkf5oioOaJXw66QfGiCEZGQQhG61oGo7Efys4futer+Z99ukp5wUA+UdZdVnQx07nLwwbQhM8+rmZdxOoXgyoYGQmMj6lOp3Hfvuy8L6yNqYWFhYWFhsZkwVKVNmxq8WAKyHWG3nT92nwBBFAq9S85ClZUgacTYfU+X7IYAqUm6MxbFZphxRs/mwNkM4OfCrk9dXWkMP3xY9BnH0foUR4vSe18K5cMSSC/WZoaSwcY0MSzDilu0M0RVgMROAuQHkc4j3EcORe7MjLJxHoK0/t33o/WakrBcDsjlgEwGArLXJVDYZrcYCSGhiIggoV5CYHh1RdNdf/jmhp1GN4s///7StsBZMyY48RO33rr8g867l+W6bkiJ9jvK0HEbd61+Y7T7u+SYMfKPf/xj+TWPPVZmr0MLCwsLCwuLzYGhLcEasBFhGIrawGc7wt+u/N3znT1pLPjnctRMrkLt3pUgjzZyonWAn8v1y7GSHETGhmYdUiqiEASqvS2zCt4zOQgiiApEpMCkFIIgavFL+V2tqiaUYf17aVROTehMh1k21i6XFTlgVqQj5CVSqg5eQoQzOXRBZ7X/wom1Gw4CxWscodryMoNziqDInA8uIGVRiZUoQkJEjITo92NidEGi5qKzTsycf9093gUtl75xzCem8R+/dfz6ySMa3nIJTlfOx2sLl4+676k3zvq/t+84a9KKSffst/feJ/7xgQfKz/vUp7rsDLewsLCwsLDYHghI1D11QAyE4kJ0i+0AV826qv6n3/ze1GmHT0LlDimse7kDi/61HGFHKQIqmpKo2acGXo2j2t86QrNT1iLtjUwmZhXY93JCh26dG3WZAgMyyEb+F6y3w6SE7ib7kkjoJEUQ7oM70oX/SlC4cZ1FYYCVLoP9GGmKZ3ACRYJAsU5augSLfQlRWFfFEhxwfgJIZ2fcmBljPuEw5EL0fk9nP6jAE8SUY/3uqzM2rFzdVj190ihMG9tcD0Y9g1EtPBwwZSw+MXkMuv3c0h9fftcxD59/9rLDf3PpqJbZs8tbZti2vRYWFhYWFhbbPgEJVFg2MAYSi+UsAdlO8Pc//WFeWTKB2o9XAQCajqwDUBcSBGaga24XVj28BtJXTt/kAOQKwNFtbqUsyVZZKl2J6VpFjpOn5Shkuhyr0lKteY2qSJdEOdoRPZAAFLExJofklPAalAGYZb7buSHMcYG7eVs4UYZFe3GoZRkc6GxO3n5zNDbhgIMs3LxyNgqNFCkkHBERMSRElCIhCNvx1lz9k9OWn/TTy0eedODumcqkl2RmMBgsGJIlyl1v9IVnn9h97mV3ND73p58+eNh3/2cG8pKTFhYWFhYWFhYDw1BpQDqEoFxHRm7r+2mxCfjuH7475YN3l9VN+ezY0LE8bhQIZpAAKnetwKgTGzHmpGEYfVI9Rn2mGY2H1mH4EYqokOuBkmXKxdxx8kqt0otzEA4hWCWRW+fD78iprIHU2RNTUhXG6tH22ffDrAhY5htjOrprFRHIjfHywrpBE/i7rvb6UESBtN9JSIIARTIcR78vQMIJSQW5HsrqE+hZGHM8j5MQvZ304h4se3YNutKZ/F1AQUYjL8tRnITEtSDm5Qkx8hdnnbjs19fckyT9Hol84uKQKP/jGcevnP/m/IOTEyf6V7z0kmtnu4WFhYWFhcVgMWQlWAkvsaEjE1QPZKFYHGkzINsBHrvuP6/X1lYgUe+De3LhSSRXu6ALAsjLO5vs+0Ag4SZVaREbgbejWteSNJ2gAnA2C3gOQAmsm6syIDLXjSDDYF9nJXwJBkNVUjE6NvRgNOqizANI+YZowXbezDKO5UEkSk/Wulh2extU+kYPKSGQai5D1aQkvOGJmCAdea16yZAn4USTOVZKVb1PLVY9sh4VO1WHWRcA6Pkgi9Uvd0IGEo7nYMTew7BueVqvPnI1J1A+EelFQkTvTEjoCaKWB4B9x48efvGGDixZ25Yd21CbEAywFJBCQkgBSRIJV4zYY8cx3PPs7Gloc9+ws93CwsLCwsJiWycgcByRyQaDzoBYArKN47yffvWgay+bVbbbV8fmlyAZYbnjAAFArFvT6kyFKqFSp5elVC1pw4wHqbIsyYDrgRwH5RMlyseXaZdzJ9/FvEjZ1uoHtWbadMnSnatY6z9IazTyIAQgVTlV45G1+R2qGPDXCXQvTGPNc53wM76uiBIAMYRLyPUEinQ5bkQ4nN5JPKfaQZCVgJdA19wOtL3ZDhlIeOUuRn16GNw6Nxzj288thGQOXCGcPBJSSEREPhHpXYYVidENBWHA+d3ZJ6+69OaHmi741olgydiQ7cnOW7rGXd/eSWk/4PqqCin9wJn/+pwjRkyY8s65o0eLvyxdmoYtxbKwsLCwsLDYVgkIQMSD6IJlsX3gntsefKi2vgJuZYlqOV2KxaZMSntphI7hgCq5KtION+xYRTozITnsXMXZTH6ZVwGGHVIR+03pGwikjAtJFA+fKfLj4EKCIgTcJkJ1UwrVSCkCZUwQJYNzwHv/WAQkEtioCQoBMhtgxaxWJOo9jDiuHsKJte8V+kUOKpor8eirC8SRe01WxCFPVI5Q29GrNItKa0FiBAQThtU2vL1gBX5/04O8em07jWqud3feYdT60cPru4mY3l3YWpfNBeX333DvbydPmzjzk6efvk/LqrcqWi67tcuSEAsLCwsLC4ttk4AQeBOiFKsB2Ybx09/+YOpVF/zN2+Nr4/qOtk2pklQCbuYYKSFSYuz+sE5DSGTQJ/kAAKE9/mS8G5XQxCNeOpUHjrwJTebDeIVwrFOXcAA33IBqw+sJ7HDGePTLgVFKjD1lmFoPMzjwAUSGh8ZtHZIx6qh63HTza3Tk3pMDIjjRMS0gIVSchPTqimWE7OFhYHHiEXv7z7wyz7nqx19Ms+QyyXKYlHKYlBKTG+pw1J47oDuXm9dy7X3T/33zVT2/OOP71X/88oby8/75oG3Na2FhYWFhYfGhC+xtMmQbxgO3/Of5qppyiIo+TlNhO6k4ITA+HDLo/0YDrQnp7wQKu19RGLhDMopajDtOKEiPk4XwZdYZL6tydEmYIJBTxFnd/B5IZTCYzYJ7esBSqja+pvMVkc706MyKJlxURujK+ZizYFUQZUBiXaqNroNQhHzEvEBCn5Der09/Ynrb2OZ6EkKUlWjdi5TjTv7dV4/GCQdNz11w/aVrqw8Yn205+eSEvQosLCwsLCwstkUCMuAEiBWhb/u47MbL6pYuWlU5YcaIjT/1L+iIpWagyJ8hpkTLDzYyY/rYltAEIjaJlHyDdPaC88u6iiHhqZKwQtLU14wWFGu1W/C5wNdj88HG6VwTKTCDs7moVa/JtlDsuDFj0uFNuOaeFxJRoy2TAYl0IBERKUVCKOx0lU9ACGNraxOLV64pSjxUVgVGzC9O/eTuiYZkouyVt7u+XDFunGevBAsLCwsLC4ttjoAQBlOCRZaAbOO4+W+Xv5YsSyAxwssTlBefbQWeGSbzYXQWYTaC8l3ON8JOe73POpA37XEdR7EANt2tSBEcgjIjHGRzBNV1y4+IiOTimQ9TKmaugMLWvlLqzEnUyjcqM2O9fwR3nIuV69vx9vJ1GaAwA4KwsxXFfkcfJCR86eyI61B1dzrbi3jE/UvI9M4iOKcctXf7i0++8BcccYS9ED7iYIBur2xuujPZOHl2YthOd6Khyh4VCwsLC4tSGFoNyKBE6GwJyDaKK664wvvlT384ZsdjxumA3y1tIkgiyoAY8hAEkc5C6BImUxplXNGN87jrqp+dAr+M3qxAi8tV0M5ShrG4cONZhQChnx6z+t3oQ8y+5TZS4hUEKtsSEiyKfEbMevycdliP+aIUkCdyXDU+twjpMmSKCATG+MObcdWdz5RdePbx0VUS8g2KXTi9shYhGYmTEHXIGIIlpFQdtADyAXLDbErRdQM7jBzeke7JNG8Pc/XuZNOnJOOy6N5C18zItv7vpq73zkTTDQTsP4BFOsC8ngW9D8nPuY77yDHpFYs2xxjvKGs+XEi+Inb/vH5GdtX/bKljemeycTIYJxOJT81m3sPNcjVAYDigBHAXmroJeINBdzH47uOzq17v77pnJ5pel9rBlJh+fVyu9crNca4AHKS/Vu48Prfq7I18/iQAF22+r0B66Lhs69fsN4eFhYXFkBIQYh58sxxLQLZB/Gf2NY+SECjfOaVJggAFQgXbWuhNRmweL78ynaxY6na6ApRIxDQZqiRJi6PVeggq2DfLBUFeRkU5mOtMgorqo8yHmUGEMNsAIVQrXiIQMdiIyHUJFOdykbN5KQihiEN8dup1qk5diLXvjTmkx9cphNqfwja9YVYmEu+zlCgb72Lugyvxwaq23JTh9V6pK4XyrhqK2aBQr6wIM0NK1R2sqrxM6fMLsysAMjk/WLp2A3X2ZEDMwZNvLRjueW4GAP762GOVq594orulpUVui3NVSpwHwsSQ1wHfn4XGC2didecm3dYYI+Lr7ee9EMQ4GETfCGQQ3JVovJeZf3V8bs1Lm7IvQvJ5QP4Y70X9X47GuvbNeSxnew17gsQvmTEDfbcXKWdgP4D3I+A3dyWbnuaAzz/eX/3kxrbBwCgC6tXAuHpz7DcBjQBG6xPX0I9zWwHSn988s7DRfmtYWFhY6O+sId3aQDMgVgOyzYKZ6c0X3jlg3L4j8kuGPE85fTsOyHM1uUhGZEEH9aRF2+Qoh3Al+kZMA6K9PYJAEQ7mgsg61sVJZxDIEarkKlmm9sN1FEEQjrH/iLIdhhDojlYEAgIJzuUU+SgQnMcJA3kJUCKhx1UwNfX2VItgta7Igb1EZkiI3iVlHIneOZdVxEavY+LhTfjH7Oe8UlcG5b1JMTJC4SmggiyIOZ496fysz4LWdcEltz3BP7zsP/j1DQ/xS/OXdbR29rTNa12XXbJ8rdO5tr3i5h+f1dq18MXKiokTUy1vzdrmBOl3JJqngXBowQGuSyVx2jawew5AM4jEs3cmmv4fD/Jed3eieVcAhbVw1UHS+cpmIx4YWX6X1/gXJvEiA8eVuC+nAXSXuP8fQIKemJ1ovvteDLfBuIWFhcVHGEPoAyIGlQGhgme5FtsGZn75iL9lsz7q9itTT+vNE3yhsxlxR3NNElhmdRmVE5VJGeKRy+pSpSKtdZnBgVRtegMdlPs+dIol0pDEvTfyvDv0LBJClVaZTAegjA9D8uNvZAoLRXa8mLN7SYZWoqtXQVaFHFHC+8RR+xr4KksRRASmbIKH1x9ZjmXrOoIxDbVO7ziPe/8W/U9zL9aZDxk9HWDGqvUdyEnOzH76VeepV96jfadN9M848ZPrXMYIKaUbyKBGSgkZSBy9+2T4gVz3r2feSF3V8qfl+x6y7w8bZ6cubzl5l0TLrW9lt5W56oB/EAvsAxX0A8x0TgtweQuwWbI2xHg4cOiC0n+XLjGqiWgcM+8F0FEAzNN9l4BfzU40VSO76rxBPNs5FyXGOAv460z13uDJR2rYKBn4dxNo94I/vQ/gZpL8UI+PV01G6T+orU143viAxDEAzwQwPTYjj/ETcs6d3HDSpmZ9hhJE+FRANOi54gRYbb85LCwsLIacgAy8DRYV/dFiW8BLj7/6jVFThoGDQAXled+0RQJqxwGxq13FAQ5yiljAibxB+pw8KqAPHc+FACSU8N0Rkct5WGsUMxD0dRBuOl5JqX9XjuhR+VdcpyJ6tw6GIR3UR+6QAA6KC56Mj0ghGTEla4XbYQGCq8ecvy8Tj2jEdfe/4Pz8S0cWvcg474LjyAReZ364yMsHVs9buqrxqO/9ueJnX5vR+aezPpuSMkjKQI6QLCNiw9E6Caj/3Mem4uBdx7999oW3/2nfQ3bPOPe8dW0L4G+uwH5TcGdFUzPn8LnokPM5zHSp/nXKHsnmY5FpvWuz3N8IK05Itz7c76AeI8uR9M9kxq8AGMfMH96VaH75uGzrzf1dz+2VzU2c5S/E5sB3QbhU3zcnphJNxyG76j+DHdcdqfoxHDhPEzA2Ns2WCtCP52Rb/1XsPJ+Itjbk8CqAVwH8Znay6Uhm/A7AnvpMjCGi8wGcuL3c8yozqx49BPDt3d/CwsJi0zFkJViCsAkSEEtAtiWc+YMvfbGzM03NR1ZHgfTG4AggkVAlUqYESpOBjZIPsw3zOSFUCZHrRN20WOpWt34kXtfwOxnC7GPYqSvWgStQHbFIt78lITSJKjIuKZWwXPYxmeOC+/jbjipN6zWuUq2AtT4kzJIIoYT+AJLjPDz79mKs7+oJoHX6vQkCa9KRTzxkLPshpQSzhJSMv97x6LDPHLoPP3TR9zYcMn1SJZid0uvOZzkN5WU7X/Tdk95/5pFXLpnyrW9yZzNS28JcpRx/B0CZ/m3OjMzqvzLhqfDvUp67tfZtBpZ3z8is+rPDfACAtTEq8/tZGN3v4+dm+axojHjluNyqy4j58XDKEgY9xntRXy0C9z7EyAeBbs1kc7vOyLbe1F+SOSOz6sEZ2VV7A3Q+1DLvBtnsV+3d1MLCwsISkC2NgbfhjfwUrBP6NoQn7nr02obmKpCng/X+nlkT+Mc/359lNcno9VGKeXkIJyrtEvllTbm1GTiuE+kqgPyMgtAW7IYgkDLry8vZGT8RqXQieeVahowEmpwEfklSxoGMkQsRivBLzn/dmYu8BMjzorbCQmDc4U246eGXHUQswdCO8PfCbEch+VAvxr8ee1F6rpf+v7M/wwSqYebYujhaV7GSLn0eG1PeDicftlvm6nsfX1DpgE8GnK05T2djZDmIzgiPPfhCACCOdTYiOvgub/g+W3M/j8mtfpWAb8TeGluWyB3ZP4IwOQlGNEbmiwCASYRjJMYn7/Ca9xvMvvlJ588AdoldBpfPybaeMhPrNwzids7HZVt/C9BJDsnjTkRbm72bWlhYWFgCsmXZB8AD7cNLUYxjMyDbCH566U93WL1qgzv6+GFhGZMRcm8WGCM+IhVwe14k+nZEmEFgE8ybsiuhvUNcp5c2I9vmw3EE4AdgP+jdkYtl2JE3XF/cS8Tsh+OGhIlNlkWyEojncoCfUyaDRjBOlNeml3O5iPhIOaCLB2CV/TBkpCyFsp2q8MCL7yLjy2whWShWYhUnHxwjIEvXrk9/sGyN/ManP5Zq70lnL7jlIf7VdfeylBzEiUheNqWwrEvjhL136O5e39FY/YmTeZfx2KoGhdLzTwOjQR/DVV62+lYASGdX3QFgfjTn5He39nU1I7vqPwS8Ee0TH9UvguB1nAZCs75Lrq7OVdwCAC9nW2cT8EE4zYnPGeg+3Vk2/BAwfT26H9M9PZlV32nZxNK647Ktdx6TWfOevZtaWFhYWAKyxUEg3qTFLbYJPHTNrS/W1FbArUzo9gCkOj/1O5jmPskHOQ5IqKA/zBAYsbnnAY6rsgCsSAIHAZDztWFfUDSwD9p9iNCMMJ98kG7Hy9ksOJtRT/n9QK0XpDp06awNBzHTQWZlZuj7YKmE7dE0pTADU9KccSCZI8d4pCBaF0tAMuqn1ODfT76WiIhHcfKhXop4qJKr6HX1nU8lfzjzsJ50zs+cdem/Rfn+H6us2We3w6++/xmRt3yMiHARIqL8RFD/8V3G8UvVPb9DV6O7teYpA0TE34ndQf56NOZlAGAmEBDhr7Gby+fuTdWP3gYur/tiP+/cnzEiRiyI8bdDsDANAC2AlESXxD5+8uzUyLEDuulK+dvYr2uFJ0/fVDG7hYWFhYXFkBIQ/YU5UNJiCcg2hH/844KqxfNbq8cdrTtomg5Uoh+nhxnIqWC99GyMEQ7hRIZ+Tsxrw5QDGe2IDMB+TnXRMiSkYKLlOn24noiyK7pTFzlOnj5CaUkA0q7kpD0+OPA1IUHBfrDuXiuin8NsiROaaaisDeURrfy2whu7SmNtek12RQvT6w6rx80PvwzJSPcmCvHshwRL9a+UMvyXpUTWD0DMVbOemONN2f/wvVvOaOn53/MufPSxeUvWre3oTvciMnlEJGQj+rAwPrHr+O4P3nj/1K05V+9ONh8LkAniM47HeUZ2MiP/DqBd35e8IPC+vbWvL2ZEhoRMTRsfY+NRAKbqaZSDE1yR94FMcDUBplTKReCf1d99udNt+gSAj8Vuxr8/pmv1SnsXtLCwsLDYvgiIGETa3vqAbFO48ZZbnk8kXCQaY2VLRtMhWWsgAvVzKPDWzuB+TBhe2PHJcUBlZSrg172VOJeNhOWGbPhBZLQX101IqcqxpDYnNMto+D0+HFdnJFxdSqWd1/M6I0ipshzGY8R1lKeJIQDx9rnCUZkT3Q44JDOSQ6Kj3mPdEYvDseYRGD+ImQ4WYezmOOZ8IJONBPxkMiyASLn4+/0vJvKIhyxFPli/FAHJ+EHPsNpKliyxcNU6rjn0029fccUVLgAc89nPTvv7fc8kS2ZUYiSEw3ECI2qrMx0buipw8C5bb7LGxOUE/KsweD4eazrAdG3sUJ/5AJortub1ReCe2MnfuJ+KpHCMEpg1o2ftssIxMuPq2Bi/OQuNlf3cmc/HfutMZuhyewe0sLCwsNj+CAgGo0I3UZglIFsbLS0t4p2XP9h54gHDVECuA/bwXy3YYT8HzqTBmSzYBMx+JMomVwupTfcnE6hTXDiuMhnGFJD9HDidUaRE6z64V6mVbqMLXRIWIzl+OoCTUOaASjweE40XnaexrI4prwoCVRpGBHJNeZheldGlsDIN5FxWkZM880G9Pl3aZS4IlRHiUkG00o2YY+DnNHESYbYGgcTEU8fg34/NEY+//kHQF/lgqY6b0X+wlPCln0unMySlxIjaKup44I493nn4WvdkwDn3jPNXvNvV/ebi1W25PJKR5+yeX4LFzHAEXCmZkK7aKm1470w0TWeig6PzKf5a9IMOLkRYUsR1aY+3ataGCfGsx6q+Pnt3onlXJhwW3shZXFx0iI5zUTRG1CaT+Eq/+Afh8BgxuvtTaO2yd0ELCwsLi+2OgNAg+If1Adl28Oo7T9wkJaN8alnsCTii8iCTATE6DBmEvh0cBDqjwTHPDwpLlhRhiMTnXChqN27o2hWc/VyvaCmcJoUdpZiRywbwko7aD9OxSnLpwD/wIyG5ITpGg+Eqd3djSkiuo9ZlSsN0xy4y7XxDkX6885fMZ+VcmoAYE0YjamdTYkbm7xKAj51OH4//ve4B56X3lwZG71FIPgo7X0kpsXjths5X3l1MUkp89pN7dD3/2P3PTD76SzW7jId37mikPi4yB1734PNunNQUvuIlWACwprOHyyvKejCsY6sQEAJ+GN4zCE8fl1v5YrHPHZduXUDAPbFpdG7LVu24R/tGY6AlfX1Sgn8Quy8+OyO38oVinzsmvWIRgDvD9TJ9f9ZGupPdi/pqAFNiB/Rpewe0sLCwsNicGFojwgEyEGMnZwnI1scrT74+c/T0Yfl+HESAwwDrFrWFTuJhcCqVpkP7WoAJlEyqs+s4A58ohUF7qBURRZYnBNkAbsqJJpX2DWFfEwMqQo91GRlLGZZSRa1zY54iga+Il5mlsqDF8EY8UshxQ2+PXuTDBPVGNxPqRvQ6TZbHERCJADufPgY/uuxO56ofnRJMGtngCMmQQkJIASkkyPzHZNYRrAly5HiCV7Z1dDdVVVRf9u2T235/6/XL5jXtmPY8kXVXp6tO2G9KllkmDQmRIfGAZGZRWIL13FsLq8ZPn/DwW0fX5XDt0M7TO8sbRsKPjAeZ+eI+A3khLiQpj9O/Ttkr2XwMMq2zh/r6ur2yuQlZPjK2349s5LOnRNOf+hwjS76IBJ2kf52QSjTNgOoEVhR+IjEGkCERk+TM3Zr3HmLad7bXfPomf/+AR23K8h1e0/2zBy5lBBPaj8uu+oz9FrGwsLDYCgSEIXjADVSsBmSbwNfP+dy377ruHmo8qFo9hQerExJ2iJJ9EwchlGbD+IC4Xh/CdQK52v27vxBauB4EUTbCtIQiAd+XcFMUa6Er880Qi0dtYDY+J5psGG1IHqlQmRsOYq13gaj8amPtdkvSa60jYc7PCOW1CubIMFEIiFQCtaPLceODLzn/79RP5ZMPSap8zLyYEDD8verrRkz/zszW8/9+V/MfzjzOr61I1P7utKPhBzKdzvk9Za5IsORyyVJ30WK0Z/2u9bksj0p4qd7ZEGQeeXl+8sQff+OHLTNbhrxjkvCdsznSTyxbmV19R1+fPz698rE7E02vErC7Jn7nAhhyAuJm+U8AKvWZzzmufw9yxT/rZOV3ADLGg8tXZltv63OM/uon70o0vgjQPjogPhfAHaWnvqyNe2O6QbB+a95/GHwyCCdv9Rsh4bDBtXKk9bCwsLCwyP++HrINEQZlhU6WgGx1PDn7yYubxtQCjgAzRxqQ0HfDifleiNAoL3T4NjIex9HlS32cTil7l2CVnByKrJCgMFvBuRw4m1FtdX1V+hX4AbzKmPg7T5vRV+TDquTKc9VY3CItdYmUW7nZF9OS2AjINx5dRftiKplMKVu8O1eMGBnyxL6vu2Gp7MzK+9ahmSrw0y8c1sN55VdG/8F5/h/EMimlhENo/u4ph6768d/uctu7ezJSShC4vswVowz58AOZfu7dJf6VD7zAS9esw6hEopKZncLsx4tLV+d818lhKYb8qflsjCxn8DdjB+uSM1AqjI/dm2JZEiY65E6vcY+h2ud7MTl5l9d8MYAvh5cA48qje9YtLfb5WRidIqIzYxPwr/0ZIzFdGptzB872hu/bx5dC3sSVYGsEa2FhYWGxWTGUJVg8yBKsISVKFvn41f99f49Lfn2ls/eXdlABP+mg2Ik6VoWC6FjgTkKTDSnVid9YIR3r7lcby0zEzP3IcZTOJAii0rB40K8zM0Eg4dUM3BOPTLZDlJh+vtamkIhE9IFf2pixSKkX+zm1HVPmRZHnCAkR01iY6FAL9sNxqs+vvnctqjoIf/ne8V0AV0jJICEhJEGSAJEMsx8gjre4BgAMr0w1/eKrRy+/YvZTw7u6M+w6DqoqyrC2rZO60jkkPZH89P67dHz9iL3KWcoKoyMpICCZq/7zbOXhpx3/yZaftwy5/oM9/ysAhulfe/xs4qr+LOfkam7yE+2/BTBcn6fvAThtyxKP4Y2BJz/jU8c5AO8Uu+d94Oe8X5ZarszLnhqaKwIZP4GrkN349pbnVt08ItH0WwCjAEAq88UvFftsIMSGvKaFQjRs5dvQuwAWbPJaCHvHjt1gvsC+ToMxYSTK2G8SCwsLi61FQGiQTbAiLmKxFfCff/7nqeraCqAsVoJkfDpMGVAQKOIQD/61aSDggwJZPIjnfKIQPvUvhViXLGVU6AABtFlgpNkoxnzdSopIQLx9cF9Ep5SJoBGcGx0JKQJEAUclWsXWXWp7LAEZK+0q1HyEkbKjP6KOP5HqxLX6/nXw1gW46JwTO4m5UkqGEGqdkgSol/4j5rETY/ku8cizZnzCdLTq8aXsJnCSmStZMjHLauUhEhkbSkMwAdz85JuJypGNKy76+WX/HXLyAdBsou+EgyH88yQsW9ufZY/GvMydaLqCgF/qpx2fvzdVf36pLEQfOHB2onlW6X2UKSaqIcYYH3J8/kUAELACxEeV2m81Rj4n0tfTjSd1tq7qz46dAeTuBK4g4Fd6jDPvSNX/9ISedb3E7k5WLOSEDKDF6hKYBuDBrXYTIlx1XGbVnzZ1NXclmh4AcORgl6/Orb7+EMC33woWFhYWm44hzCwM3Amdtsp+WhhcduNldUsXrq6YeOLwKHB3hA78AyCbBafTqlVsYeBv2tQaPw2nROMd4yES6yBVinyQ46iX0ZKYTIznKk+PUvE9M/wNgQraHeXrkVcu1SsCc6KsjtmfeMteGXXyIkFaJ6J8McActRnu1yTX7YiJ8gXupvtVeCxj2hKzfRlgzQPr0bO0CxeePWO9IFSqrIQxG4yXYEWlV+HPBY7oBa8UMQ9jyZWRe7rxGJG9OmGt6OjuvOeFd/Gds342HoMQ6m5ycJlsnhHPJDDjrwNZPkjQZQDSOtD3/MA5cxC7MY7BJ5d6AXQsMT4JYHyRWXp3LkG7z8isfr/0GBuOjpkrAhsR2BfCy4q/AegxYxQlzBdnYHk3VNbB3LkPs3dDCwsLC4vNCXeb3jsim/rYivjXVX+fkyxLwG1K9maGxqOiVFBtypC0b4cqUSo4m74fBdemfKkYizDZFkAH61p8zTGWqtvesuydfRi/RyPm3rsEe541WYnhHRFmbpR+JSjY/cgxPSIlsZ9ZhtoNllKRGSKVCXC9vAwD5/qujwkd0xHzHhFOgXeKC875UYmWUKTFX5XF4jdX45ZffGmlRzTcZD6kVKRIaF2OjInPGaRXSzFXd/OPIoKFLuqsSQ0zhxkPGSMhktH2638+WnPQiZ8+ZubMmdmtcquQ8twY6fMJdPVdieb+r0DtdYxl0pmzMfK3OhjfUmgj8P2BpEtO8Fc/s7FSKpLi3NgN0WeifwxkjL460fEaxW8+gOb/LerxwfwgiIzL+uH3VDQOt07oFhYWFhYfDQKCWEGFxZBi1qxZzjnf/saEKZ8aW5pklDxpqnMTQWkcVHkSAeRFZ1L7cHAmrTMRbiSoziMfuoNWKNSOte6l/G2WEpfXf6IC6xd04d1rl2Hn00dpMbwDuC4om9NmgAXrItHbUyTGwFj6USmWKUOK6zVMGZYQfYrRmRkUczY3Y4bjqJyhoIi8BYHK+GjX9fduW4kzjt/fr0iI4VJKvSmC0NtUxEPoxBKHmhbiAgISXmja2VxncuIkRMYyH3kkBPD/8O+nakbtNumyv194/X1bY67O9hr2jBsPqsnEe23iaofB809FDn8bwDKvAHxLHw9UAkhaT8TrAoh3X82ufKeln5qCOxLN0wA+dDOPsT6blF9Bpli2SNwC8Pf01PD8LJ0H4Af2zmhhYWFh8aEnIJZ1bD3c/O+//UtKRsWuqeKskAjkeaWzIIF2EDfi8LxOTpqkZNUj37CES3JxohO2wtVibypFevziyzNj4peb8dpfF2H5XW0YedKwKOAXDrLrgbaXO7BheTc629NgALueMhnJscW3E4rdNbFgqUiI2k8Zc3VnILeR+NIIzsnLe49AgGPczv3YsVGkp2deGuvbOuG5wjEaDEVChOpwZciH0X+wbiAQZhVLExCgtOlgnHwAyF5693NeV1Xq0Qf+9fjZW+0hBYlzt8R6pTImvLKl/8LjN4/Lrr5gS+yLA/4Bb4FbIjOd0wJcXjjG43Ktz92VbHoajAP0ZXT2HYnma0/Itr5h744WFhYWFtsTAaHBVIabohR7qoYWLz/92mfGTB9e+qTo8iRyOSIaQZFMgvHe8IPIU0MLuMMsAQlVHiTQ2yrGEJPCkqhipKgw2+Bol3JBIGZMPXkUXrlxEYKbffR05dDZ3oNAf748lURVbRmad65D1V5VEJXFzAFZuaQXCu71+Ml1ozbE5lC5rnYvLzH546L1IPIOYZaAzyDHiVofO26YmXn/niXYc7+dF94zd2FFJuc3HrfPDgyAFPkQ+lBF4nZTeqXKsPogIIYUMRsxelh+FSchAaPnj/9+qixTW33bA3c9s9U8Gmanho3iADNjc+5CJjwz2PUJ0DQG/p8+QjvskWw4Cpk192zNa/G28oYR7OOUGOO6mElugjs57WIE9wCm7JFsPhaZ1rt6T01qYeaH9a8JAb7hTjQccDzWdNg7pIWFhYXF9kJABi5Ct0aEWwVf/d7nTr/7unup8cjaPiI1Akh1nzJO4dyX8Z7RXJDODMQE3uQp0TZpv4qwK5YJhmWgyrD6giNAiSQ4m4n2gdW6yHHBUiLR6KC2thwffLAKU3YcjlH71qF8SkK7uce6ESU4ltFAEef10oaLvcT2fZWqOQ4okYic1GOXCQkHHPjaid3N8yBpf74Dgggn7/zxaWdddllnVX3t/e/c9syR5564fybhiCSgdSAx7YcpvSKKuoER53GP3gQk9nO8BGtNVzr9qxseTTXvMumn99zy6O+35lzlwD0bkfFgWzInfl5U09BPPAb8pyPRdBqAsYDWXQBblYB4Pp0FwAixOtxc7v8djXXtg13fLOD2skTTqQAmqDHKcwH0IiAz0q2PzE40X83gr+m3pgtP3D4r13jiTKzuHOz270w0nswQ79hsioWFhcVHF9tBZoEsARliPHv3U5c3jqzZ+FE3LXh9v7cHRzwoF44iEMKJzmmsq5V6Gi9i7WvzN0zFAvtSJCQe8JsSKd8PCY8MJCrKEhh5wjCU7+gCorduJBR8G8f0wI/M/0qNsxjRkBx5hJSCjBXWmAySyS7pfznw8+j7/KeWYe8Dd7v7rMsu6wKAh+55/tPlUyfN/PZlsxOPvL4wkFIGhV2tuHS3q+IdsgpMC1l11QrunTMPP7/hUfcTX/ns+Du3MvmYjZHlAH8jRt3+vinkAwBUm1W+LHb7Oewer3H3rTpGojNij3Gu2hTyAQAzgYAppvsgOvgub/g+RS+pbO5cAkKiwITDyxL0xOxk45SBbvcKwJudaLqAQLcI8P13lTVPsHdbCwsLC0tAtk3q0etHiy2JO++8s2rdmnZ37Ekj+iYe0vhuqJ/Z94uSD3IcUFkSSCSUhsPV7una8TwK6OPtBrj39vo9o0u1+5Ugx0EQMBKeqxpfieI+HyrbQvnc1+heRJGWwoZIxd+PO5yXSP4RichI0ffVv4aQuCprgyBQr1xWJY6yEoIIO7057yvnjkaZWdf1l93+7/N//Rfv7veXvf+Tax8Ri9Z25HqTDS5NSApa8nL+7/K5ecvl9/5+v/N8W9dtL7+5yPu/H/7foq09V2Uy9zVExoMBCbp8s9wUs9krAYREJiA6Z6uN0fNPi5nnyUAMrL1wKXgZ/+8AIiJD8jvFPnc01rU7jn80gPj53pOZXr0r0fSLWair2di2GKC7Eo0zRySa3mLgR/qiGkmB/Ie941pYWFh8NDGkInQe/FKWgAwRMplMhee6oBSXPuxxsiGDvldYyswPALmeJjEBiFUGhBxHBeLGGZy5NKkoNlWMVqSEISFL1Q1KBgTHE8pIMJ8VACBwLqtb5KoyLJZB1AmYCEgkw+5ZJIplOXQpWaFeJI8TBaGvCTODXL09x4l8R4wzuu8DgQS5DpiAuZPH3bLz650nt2BDrkWbo82cOTMAsPOFN/2m+Q8XXffW+MqK+iP2mMjTxzZBCBJqO7ExFDk+8X+7cn7moZc/SD76+gJKNda88tuLrt7vkEMO2SaM2FoAQUxx4fudx6VbF2yOdR+LDetnU9P1zPiWfuvzt5U3/Owz3WtWDPH9kmYTfyd2Hc4+MbPqg82x7qOxrv0ubr4OxN/RN9hT7k3V/6yY+eLRPeuW3lne8HHyxd0A9tBvlwP4n7KEd95daJpNzA9J4FV2gzUBCd/N0XAiMRbER85mHAtd0ha7zp7IJegU5Lafe2Nn2fAD7vaDYFPW0e37r8/E+g32m8bCwsISkG0YsRjJitCHMvDpi+6ZzEehLqLXydNEoFT5kaP/nssBEuBsTgftWnBuPC8MienXjmt/EL/EAGKxQ5AJ4CZKCcMBgogyJIJAQWxcUASHHDfKkhRqVIIA8IPeLX4L9tdoPMh1lK5Gcjj2UFtjCB9LgFyM3HEYnnritcMmfP3ECWXvvj8P9z3fEef33/vC+a0AGn44a1bi2lsumXXl/XOO3XlMA+8ypgk7jBkWNFaX+0nHKYsNOBMA6fVdPe78FevK3l+6RryxaBVWd/Vg2kF7/O8zr37wCyLiRx8+ZJuZo3slmo5jYMdoXsqLN+f6BeSFAcQZ+t6TTPjiWwB+MZRjvDvZfCyYI+NBQZt1jCzkxcR0FgChzRe/BeD8Yp89vnvN8lkY/YkyL/NbEH03dk+uBPB5Jvo8AaDAVX8wmczel1gPg/+vOrPqfw7JbF+u4izlYyw27VlYqix5CNJ43H7LWFhYWAIyhHxiExaxGZChPFEbS1WZTEUut/GzxyUyKYaYkC534ligLqOn/+S62t+DivtymI5aZjsc7/TUB7NNA1TnRmOI+4wYh3Xj5E6ULxRn/bMxJCzWnUs4gEtAtm8CYoTy8BKafASALzULIpWhMWaJQiC3gdG+qged6SwevO+J57681yebvzN5beKSefMyhavXpoAnAMB5v/iD88qCp46/6OFn/mft0tWThEPZIPBFLhMQAJccpzxZlsyMHD/8iYOPOvL8C7/d8hwAvD53CW68fNu7/JhwbuwkvznDX/Pk5lz/MZk1792VaHoAwFF6mp01GyN/v4WNCQvIfp654lsz0q2Pbc7VH59ZPe+uROM9AM3Qk/ZbD6D5t6V0NDOxtAc5nHu313CDJPH/ABw3gHuzD+LrXBG0FMuyWFhYWFhYArJNxsT2VA1hcAf11J0cr7d7edzbo68MCEsAjnYbp95lWNr8WzGGjQXoDPZzIPaUfqQQBW1uuY8qCVNhJTOSIBKAY9r8IsyQqM7AFE07k5VQFvA6A6Sro6QEJZIlNtSfg61LzBhKB+LntJ5EdwZLJCDTPlrv78DKBesRBBK1dRXYeeoILJ6/xnv7kPQPJx577B9bai/MtbSU9qvQ5Vm361dJvPbGfNw3+5lten7enWjeVTKmAVivDqH8Ew22wrNvkvMXYvpYOGMT/onI4saC09zJoPWauXdvvjGO2FlC7h4b45+3yBiF8xeSfID5PevxZ5DD9X0tc2xuzRwAJ/ynbPh4h+VnwTgMwO4Ahhdc4isYPAeEBx0Xtw7QSX01SDfllthMx5XaQLxa/7xh4+ef00S0enMe78CXWfsNY2FhYTGUBGQQ355WhD70aM+1J5mN3wWrNrFhIB6Emo0weO4j0mc/pwTaPgGeW5w4GOF1qSDA90GumgLs+4oYmIxDICPS4AexDEXfM00IAb+7IOMRz7o4Qq3bc6NSMMfRGQ+KtBJ+UFrjQgg7Z208CtR+HTEHcjCj7elOLH1lDTLZHKqqU5hy+GhUTk2EviBlT7p47I7Hfzbtlz+9qOuNb5cDl3V+FObosdnWNwHUb+ntHJ9Z9dDGtjMju+r4LTPGFW8PyRjTKx8b7HZOTK9cCOBP+oV7MTmZq2ivBUunrNvZkJdJyQxs3cdlV+20ucd6XLb1cwM6NtnVtwK41X4rWFhYWGzHBGRQT++sD8iQoyfblmKG8kUmCeT8KAsSGUaYSL5v3w9DMnTbXaUJQbguzmVLL19AZoigtSAUW78qX4o6cNFGSJESfAtB4JwiP0QCTNqfRMpoHSLyywhnYKC3WZj9KVZmls2pLlZ9HSMg1HmY9fhrJRbdvwpt67pRlkxg9PRG1BxcG+nwMxkQFAmqP7Aaa97rwOxZN7xy1H5H7fqd73wneckll2TsLLbYGjga8zLoQqs9EhYWFhYW2wwBGSRpsQRkiOFDljHrsigpwZyLDAOFiMTn/SEOJj4PfCDwVTbFddXpNN4hGyMenqdKlBxtCkj5JIdlfrco1UEqyCNJxkVcZrS4mwQHaZ8UISKQJJ3ZkSr7QUVc16VUhKkQ8TGY/fO1NwrLvt3bhdDbdND+cjsWPLUKfi6HhuYq7PaV8fAay3TmxZycQCdkKDRr3OHLo/DK3+aPHDXitV/uuM9+LS1A0ILtS9xrYWFhYWFh8dHCUHaXoq20rMUAIDlbngsCyIwMheKksxcsubcr+ADA2awiHtlM8WC+8KQ7TpQ14SJTorD0SQjlrWHKooSj9t1VTuJ+lwSRYCGAsBI77rpuum2ZMi9WQT+yObXvpUemu4OpzldqncqEkPpoQ4xAYvXDGzDnwnmY/2QrRu1Sj73OnYKxn2uEWy3CjmPhi1mvihUx8xJAhYvJh47EY/f/95zs+u49yn7844oW2zXOwsLCwsLCwhIQE6cNWkNpCcgQIZ3JVmVzPl66bAHWPdWtyYcK5Ml1lRGfGPy04WxWZwf6MReIlNN6JgP4ud4ZE+OeHrb8JW0WKECupzIuyWRILHKrc3A8B0QC0tdZntAYQ4CEo3hOoEgHArWfHPSxv8xqTOkecDoNzqQVWTFlXCR0FifaPxYCKx/pwEuXLsTq+Z3Y6ZCR2O3MMWg4pFpnchTJYBkAgQTncuBsTv0baOPCQIYti6v2qsaonRpx8z+ueSSRXVHZM7GuypIQCwsLCwsLC0tANq2DiyUgQ4TUsNon66rKMfXwUVj0Witev2wx0ot71NlzlFcF0WY6HUSRV0iotRChXoQlq2CbdWcrPxcF3sYEkAjkKm0HOdpl3fUAz+vVtjfXloPnuUwCzL5uoUsiMv8jKH2F1G12pSYfGysVK9YRTBMhQ5DIcQEhsObJTrx88QKsX9CBqceOxNTTR6B8qqekJzrTQU7cTFE1BFBkSEaieCHyxtd0TD3KqxN0+W0PLBm2024pTK6vtCTEwsLCwsLCYlvENt+GVwe7loAMEW787aXLu9NZVO1eiT2mTcTKe9fjjVsXg4hQWVWO+nFVaPh4BShVoLWIwwirN9KulxxXd5SKa0q0kIJIdbziqPSLJYOQ06VhWinPWmOCWMlWCWTbA7ieE0gfJLU2HsZ13XT2EgLEWhPi+yXHRkIU/3ucXFGkuO98qxvvPrQcyYSLnY8bg/Kx+ftJXkJrbiRIOCBS+pai2zDeIezExPiMsTOHYf4NK+mK1+cu/+q+u09w5SvUMn99V4vVhFhYWFhYWFh8NAnI4Cxk9UL2Se4Q4GtnfWbmf667t3bnoyfpID/A8E9XY8Sx9fDXAGuea8Oa+eux6I2VIACVVWUYNq4SDR+vAJIUBfBGP8EMFqI0USFNQuJ6EENcjKhcCJCjWvBCBmBfhtsBKCIO0C17SRQ3LASQ7cwimXCDDBH53b6r/D0AzuVUaRlps0PJ4Exsn8yYQjE8Ky1LX9DEK+jy8e4NS5HuyWLSgaNQu1e5anGcJ5TXLujCAUmhxsmsyDdRntCeXA+AygyRMiwJneOZGRM+34gls9bS1c+/seBzR+65K/svrfjm4g2dVwI5O8MtLCwsLCwsPmIEZJCgOA+x2JJ49D+P/6t5ZB1qdvHySo+YGW6jwPBjazHcGQYwQ64N0PpUG1rntWPhm2tAAGpqy9GwUxVq9q2GSCjiQUK3zhWRqR9LCXIdJQ4v7GJlSEggwYTQCZ1A4Lga3WQB4lNFiD55rp/2kapIZYTrcEdnZxIceZpw4Idi+8L1QkpFEozeBLHAv4/yrNUPr8fC19di5KRGTP1MY0SjzVi1qaPK3GgBPKmMBsW1KQmhHNtJj184+RcEaxG8zriMmTkMK2ZvoOvvnvPWoYfsdvYovHZTi78h07Ic3XaWW1hYWFhYWHykCMgmiEAsAdnCOPSIPV5444X3aOfTx/bSPZATIxGksg5UCww/tgbDZRUAILPcx6rnO7Bozlpkn22F4wjUNVZi+H71KN+xLOowxVDBtQnyg6B3EB+WFVFoUsjg3iTFwGgttHt4qcmXS0uUNSa6QU7X+rVttQj8fBNExylZMsZ+TpWEUawtLgmg0HycCNwd4O0bV0JKxm6nTkRiZFnBVeeA2I1lXhATrZO+LGPu647QvETrVoz+Q2p9CCkyR0HkAj9iRg1Sz7h44MGXL52+x+TT9/5gwaEtkx0XX1rX2ZdjuoWFhYWFhYXFh4eAbAKFcBxHBKXKeCw2GT++6JyxV//yqn0mHzQSzH5+BoAIoZGgcQgP/yTAQhGS5EgXY06sw1i3ESCBjvcyWPXCerx992LIuyRS5WUY+8lmVO9RqdfpAJkMOJARaQif+heYDZqfuXewH3W+ckqWXpn5F+QCpCor2rzy5ILcO4snc9FJyhGpkbL3thiKKHguyPfBLPJaE3e91YN3Hm3FqIn1GHFcXbRM4fwXDsjl6NjGMzeCogVM62PXAYQXlagBgEOASETrFl6ev0rtxyuw66QU5t4+f/fWxtqVX913+sT2tgZx8qyujltn3movKAsLCwsLC4utgm1eW0EAhAh9oC22AO6+7PZ5lZXlqJmeKB3kx4NjR7eWTSRACU+bCyIqS3JdVE2twKSvjcFeP9oZ+5w7FcPGV+Otexfg3b8tRJDmwhOsSq2MgDzUgejg3nWV9qFXdoNAjquNBsVGU2y+L5GqLl87ceLER/xcTHTuerrDlwi7coVlUbpDl9q/KItjiAOZfXNctD6wAe882oodjhiO4cfWRPtbmGkxx9WMN/T5KHaFUv5nC5lM4a9eIk+InxwuMP2MMejq6E786d6nlmJsecOtM2+1GRALCwsLCwuLrYahy4AMsv5KdcFiW4K1hfC50z71p0fveNrb/fSx+cFxXjaCoxIqouhnAICjxdJCPaUn0ftpf5Iw4rhGNH+qAR9cvxgv/vktTNpzFBoPq1SiccQczbWgOtSf5CQgtQFfr1a3iDQbjFBTUUoHIv0AVcNql44dOeqFsIrKcQDHAQUmq+AADpR+xdGXh3E0F5SvtyChKHwQYPGs1diwugt7fH0cRErtCxt9h2kdzE60z+Y4EqsyND9Q23XExhm5uZ4KhhmszmLDW93oWNaF7rYMshk/So4IoLIqFWzI+ilsWktsCwsLCwsLC4vtg4DwIIMe2wVry+Gax64p+/nMc38wdmoTnFTsEMcC/bwn/6UgBJDY+CkSLmPK6eMw+r003r5rAZbPFdh55gQkRjharK6CefZz+WQo8MF5WZhYhsJxFD9lHciT1mkU0YJIBsqrkksbg2EL1JxkEEgRBDfWwtf4g7BUM9B0qTL7I4MoU8SM+f9cgXR3gF2/MRoUP1RBoD1FVHaGlNFIdMzC32PC/P5AMnre7sGaN9rRvqoL2WwOLBnCdVCWSmDdug4cfvT+9+61916XTx6/z1MzZ87cYBZ97ydX2olvYWFhYWFh8dEgIJsCx3Eol7NdRDc3rjz/D4uZGY2HlRcnf16svKoIowyF0xtDIFXALpV3RWpKAnueuyNWzl6DV/75PoaPrsW4mY2AIDDL/AyMzoiQEGGWRGUt3ChbYFr+sgRBlBaiA6itqVm84K671qp1k9qvQv8QbUIIBuAWlHYFUhEkyWAw5l3fisAHdv7a8N6ZHzMO1p22JCuTQcmAG+uE5Th9epjINGP9021Y/f4GdHX0gIiQTHqoHV6J8YeORNkEAScRGTq+/Od30ZPNuNnlq5+e+aOZ7XamW1hYWFhYWHwkCQjxIGXoBLC0JVibG6d/f+bRd1x1d+O0z4wucswpKhMqBd5IQssQlMAv6BoF7QtCGH7cMDQeUo93r1+Ely6chx0PG4XKXZP5GRgTlGs9iPHGQBBEQnFdgkVx/xAjFi9AVU3D8sYdOKDXXwbDjchHYUmTiJWSmX8l53XtWvdIBzZs6MFeZ43vrcVwXDV3g0Dtu86acMCAYJDPsXK23vvZ9WY3Vjy/Fl1tPWCWSFWWYdiUGkz5+Bg4rjTMXOtLlGGhySJN3Hs43nz+7SOml9dSC+C1AFk74y0sLCwsLCw+egRkkBSCoLpg2VO1+cDMNGlM0931zdVIjvJ6H/HwifxGSoJkAMApngUxxoHMal0UK2ESrtY9+HAqHUw9cwzanuvGOw8vQ/XzKUw8pQlumfos+77qGCVk1A44bOGrxd2meZXRj/iBzo703i/HLVu/YuRIZgC5DQynUZMYCbWM6VolZb4eI5C6pCpqHlV3UBUWvbMO61/uQf3eqdghjMgLOY46Bq6rxqI1JAyODN2hfEY2PNuO5XPWoKs7g4TnonFiLSZ9djioUju1GwInoUq2gHCd5LqhaWHNx1JYNMen1qT84rjJ9ddj3jpLQCwsLCwsLCw+egRkE6gLYDUgmxWfPma/p9s7ummv08YXoyex8qcSrDHnq89JGbWJFZTfqpZZSylU616WQdRNSp9XDoIwq1Gzbxn22Wsi5t2wAm9cvQS7nTEGwkWURRFeLJOgjQBNdsF0zZJSBeah8Bv5JIKBmi6x5rG3/h87Ti1yy7MoG+aBs1mVsQg0cTFdqaSrStBIH4sgxqaJIBLArieMwhv/WYba6eMgEpp8OCK/lbAmR+Q4esxSHxNCzwc5LHlsFbq60kgkExg5fRjqDqzVRvSBMiDMKRE8SyUqN8ctbAGsSCWIovM2fEItnn3i1Qub/eDGFsBtAXw78y0sLCwsLCw2Ac0AKvTPnQBW9fHZcVDtdQBgNYCO+B+HLLBnyEGp0FXzI7YEZDPhgn+0jHz5mbkfn/ix4aWzUsbXolSZFUtwLgfWxIL9HDibDV+m3Ii0hwizDPUO4WdYEQXVQtfVPh6ESV9qQnVtGd6+ekVe61oOgnxRJUJP1QAAgABJREFUtyExMgAHQRiUq6DdVzqNwM8jH0RA9wtzNuxyK9jzXE6vNvsrwbmsGkcmA/Z9tU4/pzI5Of2v1qKQlwAlkiDXRWJMAg2NlVjw79Vqj4TQyY+ojI0cnerwEiDXg4TAqgc68OpfF+Odu5egdlwF9jh7Enb99jjUf6ISFPiA7+vjxOExht6v8LzEfUqMPkaTxqYjq9DW1uV4Mw7fAY0oszPfwsLCwsLCogBXQj823sirUn/+YgAf6NdLABIl1jsdwILYZz9T+IHtIrAXQlgCspnwzz9evcBxBIbtWxY92RcUdtvlAGBJYMm6jCoW7Po6MDZu4Sy1niNGXHQWwrCbQlf1vIA59NrQpEaXVk38QiMkS3xw05q8z7PpShXXqMTIEvt+SJCiLIYuycqpKqTskgXdAOB6jkyvy6ltFzKxWIDPfg6c86Msj/EcgS5/AmHcKSOwfm0XSJhsie7ORQLQfilIJJBrCzDvupV49dIFaF+TxtQvjMee50xE8xG1oIQ+FkKTFcn5RLCYA3zhPhMpbxZN5mrrU7jvv68+gIpaF5tkBWphYWFhYWHxIUQ3gA2xlwnYugreLxZ8jAHwxRLr/cnG4o5tvwSLth+itK3jh785c+Zlv/pHgogw59LF6tASoaM7jYqyJBxBEDoYD6TUcTlBMqsSHx2ru56LspSHVI2HypFJVO6UglsZzTMioQhMUKLqx3UB19PlTjHSYp7iA9j1ayPxyhVLsPLedgw/ujpcryr10uTArN+UZhXG5EEAZNIR4QHQvmi+/3uApya9INuddfrM9MSWY5+1GaLeHrQ3iGSQR6iqKkfrox1o/lSd7q6FkKhkV2TxwW1LkU5nMXxKAyZ9dTQIgSZ3ceG8NAdQZYg8LxSY518T1AcRQUjORh/WgHf+s7wmXcbUAjgttgzLwsLCwsLCIsL39MvgTQC7ADgJwIN9LJcGUAbgxwCuixEXAJgMYKb+uQdAamsTkEE/gbUZkM2DsXtMvfOokw68eofdd3l8/KgprzaWj1p+z+M3nPifa+77+15njy086OqUmcCeCGAHcgOje0EaXcvT6FqfxrJXepB5bnV4hisqylAzIoVh+1XBq6ViJ1PpQIw2QxAAodrsmoniOCAP2O0L4/DyDQswHNVRpsRkTvIc2znqiFWMQBSpNSNHyFxXsPFuXuEmVCkUkRNmfohIUWMhMHL3YVj00io0f7ouJB+yXWL+zUvQ1ZnGqOnNaDi8NmYkKFRpFyFqdRx3THcc3QbYidoYx13pteYlhDGHNCQukYQ7PAspJcqP//RYedtT72P5cktALCwsLCwsLDYVVwE4E8COUOVVt8b+9iMo7cdcACsAHLa1CcjQshaLXvju0d/NAPg6bn4kfO9j++/0P+Wp3hIBlcUI8s4EeQJOfYDKGg+Vu3sAqvI4QHZ5gHWvdWPDim4sv2E9JDNSqQQaxlWi+ZAqwKX8jljxhUG6da3OcDguuhf3IFWWiFzIY87kbDIXOignEFigOAnpTTK4oirVuWFdR5npUgVTVlZyIsbLvTQh0b+TlKjauwLZ/+YAEGRAWHTDUrSt6sSoXZow+ehxxfeJZSSmR9TRSpWyKVIGEiDPVWVgoZ7ErKKwNIuiZgAAKHCQTLr47zvvX7P/IbsdjBuX24vAwsLCwsLCYlMxD8C/AHwJwPkA/q2DuVEATtWf+RWAr5VawdARECJiHvTSNgOyhbBq6brhNc0VxZmfcHqVUTGg/SeCXp9PjHIwfFQVhmtiwj2MNU93Ys2iDiy5bB0cR6BpbC1GntAMUVYQ3Auhn/pz2Olq1dwNqB9ZGTmfF9OeEIXGhOTnQrPCUhykTKhWUVWNNe9n3lvWwI4AcsHGD1SM7Jj9JanLsIQAuYRUmYe3/roAQS6H6sZq7P69nUBeH+t03HxBuYyVYQWBomWacJCnL9XCzJR+jzwvNCJU61NZoeada7DgvWW77fHuB04LIFry06QWFhYWFhYWFoPBrwCcAmA3AJ8GcB+AHwJIQmU/bt02CAgPqgmWjvVsCdaWQmdHtxhzaGOeCzc5jmpnSwQ2T/41QSChvTnihCDvhImwVIpShMYjqtCIKjADHXMyWP7Gerz0l7lIpZIY84lm1O5THWU9Al8LsZW3yIZ1XRjz6QkRATBi8/g2iXQJE6HPfFkuP+6etOuUu+Y88cb+ykeEAHIQthYOWwkXxOpSgoNAaVF0h6/4eHf+9iS88Ie3sPe5u8JJKRKBnIwE6RRnQxw5rgudbSrcnu76FWpPtNdHdJ60KN/T4zfLm31nidr9KrHk1bWCGirFiL02OJjzoSUgtQDqt9fLEH23MrT4cKAMwMh+fK4HqmxhKFAOYPgAl+nVTtPCwuIjifcBzALwBQD/D8ALAE6PkZM+4w13OxmkJSBbAL/9W8vUP//4jygf70RPz1k91Sfd4tY8+SdBoYkekfbwyDtDIsxEgFkJxE3LWOFAEKFm/wRqDqqHzDJW37MW8x5dCjwKjJ3WjKbDKsGSQS4BjgD7DMmMZJOTR0DCDIfjKA2GKemSplNccfidegyukAAwderu9zLf9jsmByJh3NaR53TOfhGBehAogb3JvOhjorgXo6KiDG3Pt2PYQdWaFChyArfA1JBjZEfK3hklRGSFAz8yYTRwBOAk1boMGfKD8FwYQkaeGnfnYfsen5mfvlE9oPhQ4iwA/7ud7vuNUGlsiw839gTw33587lGUqJneAuTjAQAHDGCZ1wEcZE+lhYWFxq8BfA7A/vq7rBJR9mObCexpExayUpAtgKfue/DyRMIDg2KtcHU727hOgzn04TCtsMg81TeZEceNWtQKpecgT7eHloFqoSsUURAJQvOJDdj7x1Ox46FjsPKdNXjxL/Ow7okOcDYDBBJtz7WhrCwBCIq0KHERtuR8blCYGSmA7PThCMEYph6Sj0yNe58B9CzKhq2IYQiNyab04YNCIjpmEE4oJG+aXIs176yLSIXxQDGrMhkXsBKYqxWitCkLogxU4UckRx23TDbK6Eh0aRiEQDLpoi3jT8PkyXbSW1hYAKp3/20DJB8fAPgUgDZ7+CwsLDTegcqCQN8fDCnZaLXFdpBZIBCRzYBsASx+Z/HHahrKgcBXxoJ+LGshg/yn8lK7mZuWuYzQKZ1MhyrzxF8IHVxzTDjOUUAeaL1DLofKXV1MO3MMdjpoOBa/sRavXLYYnXN7sObNDagfVRlmFzjcLkc6EO2uHlJUWZqA5LokHEcA3/kuAGDmzJk9nuOg6/3uXsE+B37U4rcYTOYjnoGBGvewg+rR3ZnOP3amTbAfqDIzX4nVEcjQxLFPAXycwGi+osiGMUpU5o+sW/ZyTpswBur4MICM5Iqeww9P2FlvYfGRhwPgBqia7f5iFYCjAKy0h8/CwqIAccLxdoyQbN8EhKwPyBbD+nUdiYbp1b3/UMx7AirANyVQjKhzFAexjEme+ziDXAfkuipjkkhq80ERbseso3J6GXb/1hiM360R796/BGvXdqDpE/U6y6A9QOLBdzwwD7RJYh/weySE43AqUxGG8q5D6FzZ03vOhSVMJRAUtMQ1ZouBhFOhnND9Tm3EaIiX6XSldR3Ked3vdxtgzmWBTAbIaWJhXNElK0d6P2b4GATKcV6L9curknjz6ddOk3OfdVtmzy63M9/C4iMLAvA3ACcPYJl2TVbet4fPwsKiCN5GVHLVr+zH9hTY2xKszYxZs66qD/wAFZOdjTJASiTC8ioSAiQcFaSz8exIqKf8bqQBgWRVliQcwEsoR3DSwXup0+o6qD+4GnueMRHCEfDqNckghNmXPKE2kXYqz2qy4yqPkSKQPRJCEPfc/88w4k+lyrinI1NwRQjAS4DKykqui1xdbhZ2xop5kAQ+aurLsfLRtWq/tJu6Mlws1HkMoC+DLo1jP5f/XuAjFM/H3lcZJyWaH31iPdrWbUg8/sTDdyXvvTnZ8thjrr0CLCw+kvgDIpFof5AGMAPAK/bQWVhY9BGX/1A/2JjV3xUMHQFhHrQGxHbB2vy45f5//46K6QpMEE4iKi9inRWQca8JLTp3XU08YkJu0p8x/h2mza4mDSoj4Ksn9GZ7+u8cBFjzVBvKU4kwWxBlP3TALhzdGUrpNMiQACEA18snDsbZPcNwXcGY+1b4pyO/fNi1mUyud/cpo+9IJIuSEDalX5JVWRXrkrLAB2ezGL53DdYu2pC3zxyY0qhI2I/B9KU2ZVZBTHDeh1ZFbUtip+NH4NXn3z1gcXb9QXj1iUol/LGwsPgI4ec6SOgvAqjmCE/aQ2dh8ZHBP/SDigUl/v53AGcAeKTg/aVQXiCFT1ov0p9/ZusREAJvwtKWgGxmzJ/z3heqalIqwI63dzVdmWJlSEoTEWiRug62CZp09COONZqRMLiPmfqZ6WH2QUqsXdSF+lEVMb+P2BN+IVRGxnWV0N0QpVBELoBkMszKkOuCkkkEWYbjuhJTdwm3OW2HA34uGZCs96+wkRblk6NeJCCXVWQkUAJ71uSibHICfs6HzJQiBmY8g+MAqmuwKmWjOLnrA4kRLsbtWof77n3h9vpRY70L/vt0JWxm0cLio4JvQZVG9BcM5XJ8mz10FhYfKfwFwI9RuuTyYQBXAnijn+u7V3/+va0X2NsnrtsU1ra2VQybWqcCeSHCLlaqla4DckTYrCnu90EUIxBC9M4eFCefRQgJKwJh9CGxbXR2ZtD4ier8r0ITcJtOW45QZV0JL9qXvIjbAyU8VRImBHyf4XquX1E2JmQFZ3/t7BUEVm11AT2WAtIgRPEOVVrgrUqjcsr3RB87gFFekcCaJ7s2QqsHcUk42ieFSGtV+o/6g6vhJRy67oIL5ktuc//8zDNl9krYJtBlD4HFFsQXAFw6wGV+DuAqe+gsLCy2FIY0szCYFIiKd20XrM2JK266oqEnnaGafWoQtpx1NAkh1UIXICWg7kUwdHmV0UG4bv9OumlLa4J9E6zrEiLWTuDcrhzA3ep8zwvyPFCyDEgmC4iNEYLL/H+B2L4RZE7CSTh+16RJHM0tYiJC0KEzOsz5TuKAyqL01SLXiPJzSpthMhOj9qpF6/wNfU/s+L8buwg0GSIvoYwHHTcskSO3/5KOSV9qxvKFKyufufziSzPBujKrB9nqWAxl4GRhsSVwJIBrBvhdfxmA39pDZ2Fh8SEhILSd7OeHHzdfdfnTiUQCIsFRNyfJUVcmY0hYaI7nOBGpCGT/GKUMQn1EaBYohA6gBSCcmH8HY81zXaioSOQH38KJiE+4Xi2yzmbC0qew9WychGhfkiDLSCQSGSxfnrd7ruege35ajYVE2GEKUkZtc+Mdr0pOb50p0Vmdqt0rkMv5COJlWKFnSr65Yn8ICHkJRT5ETGsT+o9QfnexkmSQQQkHOx0/Hi898PwX1r/66qSy55+vwIejFOs3EZveaq9zB7jP3QBOhHVBt9gy2B/A7VCeH/3FvwB8xx46CwuLDw8BGeSWyPqAbHa8/+bCHUft0RwF+PpFrg5og6B3G17jth0GzzK/81Ix+D7gB6pTle8rMsKISrg0ISEjpGbG2iVdaBhflRc0x93JQwJkdCFxfYnxICn0MAEQBD4SCad7w/r1eRF/qiwRpFekgVxO+WoYAkMUZkU4kL2JQjzgJ9LlXlqL4ijdSf2wCqx8uF2tKyx1U+2IKZFUx5P6qaExwn4q4PRafE8k+rcuIVA2JYmm8XW4/c+XPp/esdkU2llsGj4B4IIBfJ6huhG9bA+dxRbAbgDuAVAxgGUeBfAV9LOFpoWFhcX2QUAGC2JIKa1+ZDPhrB+celo2k0P9QdVREOuIqCTKBPG9gllSfQRkoEzvfG2ol83mGwBKVl4Vvq/dyjns/MRSqmWkEZZrP4uYH0ZXTxYNn8j/zuRcVrW09f1oW7rDFunAXi2vSYkZR4y0SB9wEonOmorVecF2eWUim9ngK4G9zgIZwb0iCL11LuR5kf4iRuDyiIEjMOrIZqxZ3BERFUcL/gUBrgNKJlW737IykOdt5EotQVYo+psqodt4FgQARp7YhEx3RqQapwT2qthkjMXAnzT/DsDN9tBZbAFMAfAAgLoBLPMigOMBZOzhs7CwsAREh722De/mw+P3PnZFbUMlyDzpDwN6nd1w1VP80NvDZDygyETomC6VxwTrlroAtCFgTpdxaaG48b4w3bUAHdQjlrlQPwRrlQicksX5Jvs6s0Gx5Rwn+t20/QX1IlGBL5EoT22ob03lEZCK6vK2bLcfub9r3YsiWNoRnQvKqEiVkJHQgnBDvAqC/8ToJABGz8JAERbXicYdZjVi6yul5XCcPDPDXvADve9FRPSF69GXUnZpBp7nsujqsk87Nw0pqE5BTQNY5gEAv7CHzmILYDSAhwA0D2CZeQCOBdBpD5+FhcVQYegEqJsW5tgMyGbAFbOvKP/5l3+QnPb5iQhbXAVS89CYxkKTDmJXUw/V/YoLA+DQ8C6I/D0A9ZTf+ILogDd0FzdP7MNWvq7Wk0isea4DVVUljLqFAIkCHQjFtxETdZuuWDIIg/dcLoe65oa5STTmzcRUdcVSf8naEXEipBhLAEbvgJ8cNyISrgsKfADaB6VwlgrC8Am1WPzoauy0w9hIC6OXVdeFjPQjum0wm9Iy6LI4ijnHB0GMFBpips0Jc7m+LyLjlwKg/Z0uVNdXpbuyWVt+tWn3pasB7D2AZd4FcAqArZF5Gg9gdwAT9c8pADX67rwBqhvXfAAfAJiD7UubMgrAHgAm6fGVIcoArIcy1DNjexnA8g/hfGzU5GPcAJZZDuCIbehcj9PX0ySozGKFfmX1/GyFatzwtj6PPdv4OWkGsA9UVmoCgHIA1fr6bwewDsAifV+Yo98bCtRg4w+gM1A6tY1hGICP6+tvnB6fp5dfExvfc/r8besYo8/ZJD2ecgCVAHKapK/SY3pHz8HuIdqvif34zFp9L98YKgEcBOBgADvoc3jAh5eAmEh2cLAZkM2A26649n7XEUgOj5y72c+BWDuYF0bQnmpxS8LJ02xAxMhGmCXRwS31Dno5r00uFZRRCVDggH2Jtcu7MGJqbW/ioVvpRgQDUekYM8BCZ3OkFp3HnckDcC4HGTDGN9U+sMJ9L28WNg4f9vo7ryzYh/vSs5j1CaE6UBl9SBDzSymRpGs+thFLL3wXMhNAuJH5IGezilDFS94coULB+PEKyQmpjAz7oHB7HB1Lme8Q34tQhYRNHbyeNWlU19S114yuTLS0tKRbWlpsJmTg+KkmE/1FO4CTALQN4f39cL2Ph+sgfSB4F8D9UMLk57FtaYUEgAP12D6lCdVAsADAg3psT2L71z1UA7gPwE4DWGYDgKMBLNzKJN6cx2OhMjj9ha/n5V0AbtFB4baAPQF8HqqkbcoAlpMAXgdwJ5Sb9NwtuI9v9uNYXwzgnD7O2wkAvgngME04+oO3oczqbtIB/LbyIOmA2BwcO8A5+GLsnC3YQvvo6IcnG8MPAfxfH3/fUZ/TLwGoKph7W+Umvs1vyYrQNw/enfPeASN2qA/LqDiXVaVUUkZu3r0Pfui7QSb7EP+YMC7kFAvG9edyvvLYCEuvKHJKN4F9jJz2ZHKo2a88Ih7JMiXW9rzQXwOyoHOUKWOKu7oboz+OCdUBDGvjN9HyeN6FNmmH3R6UQdBnZEVCRFoTym8PrLQzpacnJQTqh1Vi2ex1ytAxPN4M9gOwDNT7pvOWiNr+kpeIbo9SKtNDKXW3L1/9wRwLKlSnF96+jOGkKn9rOqgBC95d1Jx46Imy6urqpL06BoxPAfjVAIOLL2zhoMKgSn/JLNBB6WmDIB/xL6tnoUykzgGwtedKEsCp+jg+BuWwO34Q65mgl31Mf7GfA/Wkc3tECsBsAHsNYJkeHWy9tpX22QPwdR0IPw5lejh6gOtwETV/+EATkY9vxSD2JH2tzNGB4JQBrkNAZSh/CeAtfVyO3Qbn2yegnvzfDuDTAyAfALAzVNvxuXrOfmwrjsOFarrwun4I8e0Bkg+zjv0B/B6qlPEeAJ/cBs9ZBYAWfb1/q4B8DC0X2EobpU1YyJZgbSJ+/PtzDujqTlPTIVrgbfQOQFTa4/tKVK67V0Fy2O7WdIYip4j5oOluFZIM/WTfuJiHInFEQXN8HULAXy4Vh3Fj6zCmg2GjU4GSD2GNliIkHUooz9lsuO21Dz+0uqVgBWNGj30foOINpIzHhnkVlD71dwaP+8worF28PvITCfUmUZYmPIa6Sxg5TtQS2Yxbj42N3kQvFxo6el6+K3wBiQpbFfs5JBskEp6LOx+6+8H2u65Pttgs40AD83/pp1L9vgT1l9OWvseeqr8ILxxEQNcXJut1vgngqK103GdAZWWu0+dgc2G8Htv7+vhtT/AA3AqVRegvAgBfBPD0ViTvr0EZHU7dTOt09Pz4L9TT6AlDOJ699XZv28wB9UE6SH9aE5OtDRfAH3Swvqn7Q5pcPQPgegxMs7Q5cDiAV6E8cnbdjPH00fr43A1VwrUtYDd9vf1yIw+QhjwG2F6CDktANhEP3Tz7vuqa8uJnnDnMiKh/czqjQVEGxLToNeVQxpk8Hpg7MdG6DHRVloj0I4UmgZJDPcSqOR2orklFAbohKb08PZzeDuJShoJxDpQ43nibAABrjXwy3RUUMphhqeErFF/q7YBOnhcRD8fpbboouXjWKO+rPoBT6yCVSmDVo+1qKsfLpeLZIVNW5TjRcfZcxdkKl2GptB9E+txoR3gjcA+9VpxIqM+qZbHKvEhMOno43nzl/Wmek0x2Tm9O2aukX6jWT/5qB7DMjQD+tIX3axTUE9PrMDBB/GCIyL36i7tiiI55vQ4q78LA9A0DxUh9/O7Q29zWIfT+HjOAZRiqbOY/W2F/KwBcCVXWt/MW3M5xAN6AetK7pQPyX0FpG/bfgtv5BIAXAPzPAB96bE6U6/veeZs5biQAX9bn69NDNI7LoMovd9mC2zkGKrOytT11TtAkb1I/7yeWgOTNTuWEbgnIJuCxxx5zly1eXTnmkGEb94rgmD6jkPppLQRpd3Dj+h2WIcXLrQAd+AqlATFlXuakAopImOzEyi407FqngmYjJOci+gZBvYN+E7iHmQRWJEQTFdnGIAJ6BPViC5WVleuLUVxKJMP9L3mcZADksr33xw9UJinnh1mHCZ8egWVvrok6hhXOcyNuDwmPiJV2FewcK5JF2gPEaEg41smLiMJWwVGbYlJdvfRnEiMICc/BY5x9tLJ+hNdisyD9uV/ehIE9tX1FB3xbEofo7Rw4hMfiKzoomrKFt7OnHttxQzi246FKTPbcxufjn6G0BgPBj6AaJww1Juj58o0hJDuXAfgnVIna5sYwAI9AlRMNBSnwoDrn3a+3PZRIQmViZmzBbTRCZYi/twW3MVaTxW9haB5ql0PpaG7C1invPBoqU9/fbX+YCQj3fsrcf2wt1v+hwKVX/vp6IkJqfKKEx0cR1lcMkqN2vYZ4kBZoGxF44MeM/GLlWoZQGEM9U6IlAyCXQzaTRc2eKYSlRszgTEa19TXtd2VM28GICeOhMyNqf0iIWNANdK/IwvNcTnW4vToPHX300Zle09IE9YXbUNNYkww9TiPQjyPQXiKmzEpKJMYl4LoO1j2X7n24TYlXX+ejcBuhUJ2i/WTk76fjKB2J60VdwQrI0oQjGvHW6/OnYvzIss4jp9ssSN/4HQb2tLlVB85bskvK8VAZicatcDymQpWHbKlA/SAojcbYrTC2cQCeAHDkNjoXf4PSAuGSXwXY8pm4YtgbShsxdSts+0s6aK/azGTqmSEm/AaHA3gKKls3FCAA1wI4dIji0b/o++zmxh6afEzbCufs81AZl5oh3Ob+UFnOgWj2hjzOHjICosIkGtTshy3B2iS8+vSbn2uaWAdynMhAry8YTUiv2aLJhw6IOZeLCIc2GAzF7fo99v1wXRwE4ExaBe9G9B5IpOf1wHEcgHt7XYSlYdlsaFwYeovEyUjYole3yHIckOuBkklk1gZIJj3uHCG4FDXOm3OmZMnRZC3QxorGiyOTibIyYfZFj8cPwunKMiaalwEmHNiAxa+sLiAfHuAlepeVcexV6AQPhOaOofhe5ru1swzA2Yw+btG+qra+0baSY114roMnlq58aljDmESLzYKUwmehyg/6ixyAmQCWbsF9Ohmq7rxsKx6XJigH7T0283oP0YFj9VYcWyVU6deh29hc/C6Anw1wmRsHQVg2B3bXwVfzVjxeB+q5tDmukzF6vu+wFcezM1S55VA8dPgeBtbpb3PgJwDO34zrmwbVnnrEVjxnn4DyfxqKTEgzlC4sMcDlhvy7fwjb8G5SGZUNigZ7Jf/1J5Ov+tklYvKpI6PAdlNOF1HMJVyXQ7GMzPIMOQmC3k/tgXzfEDCYJVa9tAE19eXFPx8jRZzJRLqTsBev5rWmfa0OvsEyNArMdORQVpHKVZ71U8YZZxRdPbN2eicRmQvGCRkJgIOYR4cO6AOlzyCj4ZBSlUKx2i9VCqber9gpieR/Xax+uguNB1So7ITnFafX5r1ARj4fhfssA5DUZEkqs0M2mpkYYWFflWFxSNjyj/OkIxsx9+55k2f+5UvlnXvsnMV5f+qyV06vIOq6AT4IOQtKjLilcASAGzbxqVU3gNV6HY0YfIerGh3gHQAl5N5U7K0D/00JGNN6bNBjG+y6yqA0IYdAdTfa2jgVSjA/ENwDVTI31K02x2ryUTeIZVuhWuyuhvKScKFKj0ZBPd2tHOD6Pg4lev8yBt9OukYHsuMHsWwbVNakFcqrgfV4hkMJ1weqOZoC1c72CCiPlC2B6VCd4jYGhvLYWQHlkeHpYH8sBq9H+1+ozmb/2sQxGGPOwZStrdJzcJU+Z45ez0g9BweaVdsPSjt3CrZsS/NLMbiuhx9mAjJ42mI1IIPHPZfe9FZNbQVEQh9MAUBS38E+oJ7kuyjubxEaFeqgO0AR0iGLkBjVzooD7QxOAiSAdau6MOnApoFMCP3iiCywIgFsgm8GGAEIjHSnj/ph1R3jdthBFr/qCBwIgIJYO2Fzi4h18aKYs7shRcZPJSRnHI1b9iYDk49uxJu3L0fDAVWqoxj1Y7ylzpUpvdKtdUuWOBrH+hJQWRCBm66+5tmjP33Mbi1AT8v274uwuTAMSnw5kCdXFwP4+xbcp/FQvgcDfcL1OlR3lnuguqIUEs1aHQwdC1XvPZDSpyZ9nPbDppWcNej1DPTL/T0okfq9AF4C0FHw9yooc7GjocrWJg9g3VVQ5Qx76EBka+EEAP8YIBF+HsDnoPwKhhJJqKewA3lKvwbA33TQObePIM3V8+xbemz9jWO+qIPR6wYTikBpZwbSfa1TL/NPKB1T0EfgtxuA0zVR7O+95kCoTMEvt9A5PHgjf5+jj+XtAJaVOGZ7QbUn/goGnoG4Ql/L8wa5/56+Tw4k+7ZWb/dmqFbIfc3BfaHaR5+C/rcingng4S34/XAEVJe5gZCsdfq7YMh9nrZ5ArK1mNmHAZ859cg/PHHnfxN7n71jZNDHDIoFzvmzwY2VQLEqO0okit9W4m1i474beQEy946YQ20IA8SQvkQQSFRO7cfDVyIl1g51J7rciUhlCrT4mqGzNAEAEshlfNQ01SzvGN3Dpb5aGAAcN9KO+EHUTth4mwRB39eoGW8f5M4b4aK6ugxL71yPsZ/vx/24SMYi3G1BYfYDYFCPj+6FWfSsziGz3kdPZw5+RiKT8SHDbmKsjAzN8QSBwZAMvPPagjGH7fJBzpKPvC+w2zCwlp5PYWClWoO5Z/8LA3uq/DqUaeK9G/lcG1Qm436o0ovTdXAzvJ/b2VWTr9M3YXzXQpW59BfzAPwcygSsry/QDqjSmUehhNifh3rKOr6f2xmj923GVpqLh+nzPpDv7LmacG2NjOb5OkDrD3qgBNZ/Rf+czX2otrf/1ef+H+h/mdz/6etg9QDHc5oOpPuDQG/nd+if6ajUBOUsKK+Gi9H/sqef6Ln/1hCe23VQ3b8uQd/fFawJxEtQmqXz9P72N9NaDdU1bbAlkD9B/31h0vrYX9LPByg+VEbrGT0Hr9LBf3/wByhR/8otcG42Rj6WQ4niH4BqCtG+Nb9gtwsCwsyWgAwQF997cfKC035x3vg9RoLKjVhZd0kqllCKe3WYVroUcwAvRkJMCZaU/SfPUkYZDCnR804aruv085mebmFLUNs15WCsy5HCccU6eXkuslkfw8cPfz65oUkW5zUUdY0SIlynyn44kWt8H1mEosezGMkjgQmfG45XrlyAMT0jQOUbnfx5t/PMCh8db/egY1Ua3V0+/JyvSr4ACCK4ngPPc5BIuSivSaKs1kXZMA9uvQOnVhGpYo29lt62FpkeDnDZrWl79YS4BEoI3V8sBPAZbLmSCAA4G+rpb7+uNv3leAEGTip9qKfRN0CVDXy2n8t9TS/z+CDGdgoGJvL/sw4ycgPcjoTSRPwbwEXoX5kJoDJDn4N6qjqU2A+qDGwgJXJLofxa1m2F62aKJnn9wfNQZWXvDXJbC3Xg9zMAv+7H54cB+IGeN/1Fnb6G+oP39HieH+R4Vmty/ADUU/KNxWgJHTifPETndo6eVwMlcF16P2dDZWH7+1DjEH1PvW2A25ugH7r0By9BleYN1pl9sQ78f4z+Cehr9fXx/SG8Jtfq74Krt/D304eLgBAAIYQtwRogbv7NFQsBoPGImijo93WwSpSn2SDXVSVU+nNUzKm81PMNVjqOPL+OjTPKkAStfGUD6pr6YSegTRCZJShgle0Qjo4ldGmXjLQpJBylr9Dah/F7THugbv58WWqOKV+NQB0LM34TqbuOyogIp2Qb3cJ9LUo+FEuAU04YMWEY3rt+EXY8c3zxz/VIrH+hA+veb0Pnhh74AUMQ4DoC5VVJVDSk0LhbCqmdKuCmdEMAOcjERcBoXdGJw0762Ldarm717dUDQJV3nDGAz3dCdbxavQX3qRnKC6A/6NaB0G2buM1OHXT/rp9BJUHVIO+G0iUnxVAB9dS4P8hpInblJo4tA1VCMU8HmP150PV/OojqHqJ5OA3qif1ANA/rdFC+eCtdOxszPDO4XweXm3osJVQ2y0X/ypG+refzhn6u/1z0T8vwMpSXxea4B1yr/70aG388dxJUadi7W/i8PgmVAdyUp+ZzoPQT96P/5WwtUGVeAykR+gX61375IQAnYtOzhAzlhu72kwifoefsUDwgeEY/QFqxrX3JDhkB2cTiMpsBGQC+/aOvHTLriluGT/v8lLB9Lcfa24ZlSqaMKtQ86PIcimVLPK/vUAMFHh/9YpUqI8MA1q3qwPTPjMsP3vsoYSLX1U7nUntayMickKHE2K6r3nOiadNYs9Nbc9+cW6KWKSqdUiaMqvsVMSvZGavjRILAUmx8rPH9161yVbmUCLM3o44fhjkXvoe217pQO60C7a92Yu2bbWhf04UgkCAQKiqTqG4ox4i9a1E20QWZxJRxPDdtjnPB4MkHgNb721FTXS6rr374Wnv1AFAdSy4c4O3t61BmWlsS30P/ukKxfqJ3+2baroR6upeB8j3YGHbRgeWsAWzjG+h/a9FvQ5U8bC78CapE62/9+OwoqBKzi4dgHk6CehI+UIFyOQauD9pcGAdV574xPAClxdmcT2NboBpGHL+Rz1XpoP2afhLjb/fjc69Blcm1bcbxXAslBD+3H/HRl6GecG8pvAuVAezYDOtaCNXeeg6U5mtj2FUT6gf7uf5RAL7Qj889oglVZjMep//VD18+249r9GQovcmWxONQZZg92AYxhG14aZDLWQwUD86655H6xiokG31wNqu6KIXtcHWLWs9TL8fN89dgKVXrXOOk3WdYonUiAw1+SZVMtd69FsmyBJLj1H6Q5/XRfUtErt5CqBa7oVEgq3lCpNraOvnkAwx0zHljdUtLS/E2vIV6+TiBIIrpYqh3u9w+x6myS5RIAImk0tgQqYwRMSbuMwLv3DMfL/1hLhY8vhxEApOOHI09ztsZe/xgR+zw9dFonlGD1I6JkHyEiHmtcFwY3x+fl3hmSwLLFrThYwfvdt6VAy9l+TBirA7cBxLA/WqAwfZgUIX+Ozv/ajOSjzh+CdWdqj/40QDW66D/5QhXbGbyEV9vfzMqP8SW75k/EoNvHVoGVee9NXx9voaNC3LXQvlzbIlSkB+hf/exz/VzfZ/FxjsoZaHKB9u2wHh+jf49Jf/cFjynaaiysI7NuM7F+pj1N0v6lQGs+6v9uH+vh2pKkNkCx+vH/Zzbn9vC1+JiTbS3SfIxpARk0DkQAshqQPqNb577hbNXrWqjxt2qix9zoig7YEqoZBCV8LAWk5usQl8wPh8lgu8wGI4HxJokEAssencNdjhuVP62SpAZEnq/QRExMqaGUoIDqQhJIqFISRCosimpPpdKJksqyCUzuMAkncy+m3IxzwUSXqQTyZugVHryCu1oHs8WSQnOZVG7XwL7nbsj9v7JVOz2/R0w/ssjUblrRUim1KqV63yoy3EcVUbnutE69bEm11MvXXpWPNRztIO98gNZ80gHKitTPPn6hy62Vw9SUCVLA2kdeYcO+Lc0TkD/jKxe2oL7w1Cu7p39+OxeUE8u+4ND0T/h+QJsWS+Lc9G/MoUx2LLeIHVQGYIJm7COXaDErkON/mQ//gjV8WpL4D0obc/GcAD6VwHSn/Fci8HrBzaG9QAu78fnJkO1nN0S+B8okfzmxiNQOrv+4Bj0XwPVn3P2Z6iWyFsC89G/9sH7Y/Ctz/uD7+r5s81i6AJ7Bg22DIscYQlIP9G2dtWwsqSHF++aj2f+/AHm/mMFVj/SgaBH6pg99hSfoPUbBQ8hhIi5lZfIbuRySnMhtG+Gk/8iLxHpS8xnTCAtCAtntaKuthLJ4az1F74iQaWgl9NyD0UIENNaGOF4GOD74GwGsk09iMgsX15y+kk2niKI9tnR7uSGQBh4CZU5SpaFGY2SJWNGqB8/rkD+52UOyOYih3IzhiDIawNMjgNKJEDCAeW5z7PKHhnzREOQCkmRPgcUZpBckPP/27vuOEmKev+t6u4Jm2/T5Rw4jnAHB5IEOTLIiQqsiigiCGJAwfj0Pd8+MyZQRDxEwBMBFxQRJMMRjhzviJdz2tucJnR31fujqmd6enp2ejaH+t5nPtM309NdXVXd+/vWL3wN7FjfimM+tORH9UNfpnOkgUBU0zmigN+8B1EdZyiqhgWtivPDQW5PYwFGwycHeL+fYXBWLB30QMRxD2Sb+4LDCiBvveHLEHlJQ4X5ABbm2ccpADCY+E+AfYohwrXyLUicEuBYt4+A6wFE6OhgEKAbBvHarkGwFfoyBKtoNQv51c75EIzZAwH2iciFmsHAvQjurR4HBIT2zQUiRJ6ZBoVAaFj5+P/9fsUt+gknLXmpKBLCvuZObH57P97883a8+YdtePem7dh2+260PNsOa79P+BShYgXdEdzz80jYdsrzkTKMNU2GG4UF+QBEIjihIJQKzQsqcilYu4l9u9sx5/wqEZLkeFFSRrOPV4GxbP+Fx/jnzE5XyaLiu9i2OEIhncdPWZzb1cszAwSFkKCrWhf3TEhdB/S0MZ+bOEsCw1zleX3252YScMhXSsSQiOT3UFh4dQxDvEJGmug5UulO4x3PFqGCqOh6Rn8SzeWRYjaan2xHUXGEFxe3/FjdOfguRJhBULRI424oyhgayF+THxBx6A8MQXt+jWBJm0HLUgbZbyf6pt9QKG5CsPKYp46COU0gwtWmDNH5ghiIL8mxHEw8FnC/fEnQRyB/KM8eiHLAg4mXESxh/oBBOPcNGNjQKy/2Injo41EDNAdfg8hDGUw8PkBzsK/4yWj4ozuUVbD6nM5BCFEekAJQV1dnAziac06Wf+z4f775/NsfTSQtTD98IkJVIbRv6MK+tU3Y+kICjIv8CU3XUVQcQkl1FCVzS1FycJGIeDL07LUDx+7VXCvtmu4K2ZKeCV2GTBEdsCwQysAZx/o7dmHi1HJoUZrDe8CzyAa3GYguq1w5ngGnpLAsoStECG3pMRBejFhTB8KRMC+Ol/aS2U5A5KIxcTw1nAvi4Hhd/NZQNB2EO8rrnsM7nginMpdDmKQXIqukr9QyEd4WLS307gfHI0Ol18O00t4Wy0ppoqSS5amoCsY5A3GS9omG7W834aRzTrj+ppseGO+5H6cjWOWSFAWHiB/eOETtW4pg4mSFVorpK5oBrIJISu0Nh0GsNPdGVmYhWPjV/Ria8pFxSeLyaZlMl23fOsLndg1EiNAZGHxPXRADcSj0KhohVtXz5cDMyfP90QHO9d4Q9KsNYAfyh2DOGYRz/2MIxuvvCBZauXQUzcFWSRqHY8zeliRLEZB+sxZhhCkC0jfixiFKzOHjnzxjxbMPr77s8CsXomxxqfBimCbAbHAG9GxNoHNjHN1NcTSt6kDyUcs5BiIRA9GyCMomF6H0wChCtQQAB2ccxNDTHgc3vMRF1wFmI7ExgY7OOA64aJL/YPsSEnk+0xReB0C03RE01DRJIpBSZCe6CKGKtyYRiYaT3Zs3817nmDw3ty3Alon6lCFnrimRpp47V8RFPkRpYwaYDAiHM0/m5HO4SQghmaFeQei60wZNS+WVpEQhU4RHeERAKQgcwsfR8mwHwpEQX/DNa76FWx8Yz7fJARDxuoV4Wa+GKCM5VFg8wKtuA4HHAxAQA8AiAK+MwmsLIqZ46CggIIDw1lwNUe1rMLEgwD67huia90MUlOgN+SowzR9h14N+Xk9fFhrWDsG1vRLQWJ89Cudg+RCPGSBKN48KDBkB6bP7gxOQvGV9FPIuHXz4+PrVD6++rPHRNkw6p1Ku7DuhOUDx/CIUz41IA1qG7xDA7mTofKcbndt70LSpHTvW7gOTIUVUoygqCaOoMorSWcUoO6QENJo5VMzk6Hi9C23r2tHRHEM8nsDsQ2qyKaWjkE6RqapOXGWBLQucsbRaOZOhW5YF7pQU5lxUwiIiyT7RkUBlVWUXZva+SkUoSYdKOWFNXjLkeETck9q2hUdDtpU4ZYupDJFiTGqIuIiKboiEKGcfTU+LOhZSZYvztDeIiMT5jHA2RzmeStJDILwjto1trzfiA2cee1f9QQeNZ+9HKYTXoKKA36zE0JRgLXSVLJ7H0B9oPBVwv7l52hV0BfDZEXptw4EeiPjuQkIGfwKhAv/6ILZrVoB9PipJ6WAjSMGGkgG4nmMw+BXwnIWS/l5PoXgWQ5PfZslznT0A4xFkn7MDksv+omoYxgwQyf2KgGTbS32JDuBgnKsckH6goaFB+5/vXbWzZuoE7N24H5PYhFTYEpwwKqkszhlLeRnAAS3KUXFUKSqOLhMr+kxUzYLNYTYC7Rti6Nrdg50vNiLx1A5hsxMCAg6bcVBCEI4YKKspxpyTJqFonp4Kd8o2pu2UNwOATKwmqfAkbluZOSPe3xMi2y7Dj2yOZMJGWUXpzsrOSp6jb0quvOILmTknmiaS9b2/cJMDJuPQqMiKJw7p0LRM2q1pIrTKIThOjofuyh9xwq0YcynLI38lMlvmvBiGSxnelW/COTixheeDOuFrDO2ru2AYGg4/5/Of+/ffHubj9LagEKVKCzGGXoCoAjXUCFLdphFDW0Y5aBz/9H5+D4jQq/1DeG1OXxoD0PaBhglR5echiNXToLkoIYhQl8MxeDH9QarHLUZwr9dgIzIA1zNPvkbD9RSKoRSy3BZgnwlI+/37M2aHytdYHLMeAO8qAuK1DxkI6cPZHFtU0Yi+45qff78tGU/SOZ+bif2/aoHVYkOv1NLGvm0J494xXpkN6EbawJaJ3dx2CQ4SwJgE1MyoQI2WqZPFLcBstGBM1tN2PeeicpZl53x8kLDUymAcMJPp8CGNglvxtNGdZUq6EucB0XbOAY3CTFiomV37YktLi28S+p7urZO5U3ZYg8urILctW/SBO3nckoa/o0PiqKNrOXiykwti2SkSRUKhDJ4irs0lrkgoiMYFuSDIzgmxZbUvxkBc2xmVtjgXoXa2LQ4h8z82v7YPh59w6CP1dXXJcXxb/DTAilvGVIEQjkoMQ1tLA+yzf4jb1AKxcpnvqV7Sz++H49o4RJnYfBocxcPQrsuQror0GYjyqEG1QuZBlB/9wiC1r2iMPSOKR1l7B3oxqXkI2x7kHqcQZWvjasxy4k2MooqWQyhE2KvAdb5GqhyQPmLZyUvf3LF5T8ncT08ETyRQMaEYOx/cJ0gGY653uUJOSPqOSFVvksYtd4dGyX207KEhGhCaomcGztlS4NBPRVyTYn2Ovodj8DthS4zl1tqQJWpT+iYe7RHGGOYvXvLIokWLfGdfh9UxXYRKCYV4p0+4LcmCN8HcZkLYES4D35R6KJaZfqS4z2ZLQUhmp6qFZVXDsmzwZEKW3+Xp81qmIBuWJSpl2XaGCGFKrwRcECEnfM3JQ3GeclLnpeOZTugaxamzj/zYOL4tzkVhQnlxiNCRXcPU3iCCcm3D8IczyDmLR+G1BTW+htrY+SZEQrmDfRCKz3YBx7gUg1NCOITBF2ccakRGWXsHeqF2KDUkgurChAMQlPE8ZptG08Xro2F0OFEekL7gnE+e8NvnH3598UHnToNuCIN56gmVePu+nZhl12RrgEgtjVSOBYFY4ScEhDGZv+yTm+ElB05lJrjCgtx5HRnkQxPVtAxPtIMTAiU9MCKoy2d+UE0SF54mKtyVS0EIqmce/O67r7zrS0D2bt11sLhMIiZaKCQqVElPCJdGPwlHJDESYV6cMcBMusLVZPI7cYQKuSAKnIM7fZEiC66KV5JM8GS2M4LbNmAxvH/LPvTEEun7ARyUUHBwaJqGUFiDEdYQKTUQnRJB2cIiGGU0s/8hQiA3vb4Phx654KWrr702Pk5viyUQeRyFPFO+DFEKc7gQxFM1HCt/QbwX8VF6bUG8TkPpDfshhPfCi6cgKrjVF3CsGyHCCbcNYPvkQ25M/a0ebdpIA72aPpT3XVDvWU8v3zEE88qO5TFrH00TdlQQECgPSMG47Kvnnfav2x++ct5xkxGdHhGr+SCIzNZBwJHYmURoci/dasvQI01PK6RTAlEiVojfZQntAWkhQMtMG+q2ndv9xTig+fzN0nRZUpcAVi8eEHBZ/QkpNxvhLC18CKAjEWqur6/3bcDOjduO0XSpDC7bQygXoWIOCSI07cKTuRaEEHC/ql1cJp0TKtoPqb8BIhTnGRNUigCwiSQtOcJapbdo4SWTRGK9poEnhaA7syh4J0d8v4nkfhPx1jgSHQl0vNGGbS80gnHh0YpEDJTXFqF6aQkSW00QQnBc3fKzjrv0O8Y4DMGqgkg6LyRU5FcY/qoiQTQ3qoe4TWUItkLcPQqvDRDla/Oha4ja8kcA/9vL9z+CEKELmg9SASHEdiIK854gj/GXwOjzGvTV2B0vz8uhQpB73ET+PLdYwMWDsQpFQAYcjCsCUgDqf/WN6pt/ccsjk+ZUoeLoUrGSTmW4DqWomliKXataMPvTNb7EQDg/GLgt06vlPoSQlH4F50wkN3u5vOPtYFw45HsjHw7D9AvLIkiTAt0QOSGEZu3LbYZUOFTKbmeA5mhhcCTXPmPnWmnobGk7QDdcIVEUAJd9xTg4gcgvcXQ6WDqHhTgkyU2mqJNDwsAdfubI2HBZ6tcROYQQBOS5yg/L3BGiSYFBzkA0Uf5YCzOgSEfJFOk5YmVpAig9WVZzAm2vdqN1Zw/euXcXuuNJTCgrxvoX3/z6IR894tqfv/pYNL65NTZOiIgBUdN+dgG/eQzAf42AtjcOkME81AZ6kLYHubYSSRqHyiAsDkhShyI35V4AXwlg/F8IkQ8SVHTwgwC+h8L0b/KhFcHzUUYDWjG+MZTPlIkD9BxsHecEpHM0NXbkExACgCoPSFA0NDRo3//2lY2R4jCmfqwm5ZEgRCZ0M44pJ1XhrTu3YTap9THqpVEMp6yryB1I51pIQ5gjvdqvO2FITHoLmNAHcdhMb8OrabmTt53wLkIAXQeBJZrq1rngLqG/TNKK+OYkCKUoW3RsArjO9xRdbZ3TQhHPbeBodTBTVsNigMXTKutSSyOdkE/SIWtwhAtl2JNlpapzEUly0lW8OHqtMO2k4FiWHEMXAWROXKLuUm2XYVeaEDLUq8KoOllDFRUVKVkrsPepdjzxjyf+54WHn/vvE5af+KOFF1x0Xf2r9+v1Rywf66t91wP4UAH7b4EoczoSwjCCxPWWQ9TAXz9EbToq4H4bB+DaAKFK/cwou7b+4kk5B4N4KRoh8kGeQPBcjB/I/Z8foPZuDUBAdgQ0JIcCW/J8vw3Cs5Sv33eMkOt5f4CPt3QI235kwPkVZJ98+i87IfKnRgI2D/DxRlXY4FASEN6X8FAiFrEVAQmIa372vfZYLEkO/sosWd1KJJlzChC5Ah+aaIBqBLGtQHSGn9VLpJHryttgTEpOyHK9TuUnxgDTUzJXeg96G26i6ykJi7wyL6mEdx2EMHBuZSbE+zk3CMG2p5oxfd7Ulo53380Zq93dGS8Ll/hU27Qs4UGReRyyvrCL9CBt8LuJC6UpQkWYLb0wSOl/pPrMuSNkGWRu5vEsO/3vImfctkGY8KgQTQd0kknGHO+NbQMEoBM4pn5qIqZiIlqfaCcP3vnQD7at2/qp0y/5+lH1q+qT9cvqrTF6W1wB4PICV5GWY2irwPSG9wLud/IQEpCTA+63bgCv7ZkRdm3vD2IbXgZwDgrLM3kawP9B5IsE/ft/F0RZ3IFY7d8CoYvRG+5CYQUgRrpx+CyA88boc/MgAJMA7B3k80xDsHLoGwPOwRPy7HMPgKuUtTj8GDLDnvc1OU0poQfGiScd9t7ObfuKD/7CLBAmS8s6RrMs08pledqa6RXY/cw+pFbhvVWZOPcR4mOZStuCpQhD3Km4xF0jbudYuJPnI5Rm6mFkzU6SPqZT4cpJWs9xXKLrgtzECbq74zj7is9+sL6+PqeYUrwnYURqQtkczNHsAHddO0tXmmIsVX6XGAZIKCwS4lPJ+0jriYjMfjiVqgghUsAwTVZSYVrefsp5X8gxTXmvXGTMcqphQfYZlWTKFsUBbIYJJxTjsIvn4Z3X35vf/MZDx+IP74zVe+w45HJ/5aB6AD4N4J0RdA0vIpgg2OlD1B4NwGkB9tsUwHh5C0DHCLo2ADgzwD4dsu2Dge0AzkLfckx+AuDRAvafDuD3A9TuNwIataMFQa7n4DFsUpCA9/lQ3G8OKVdjpgjIUIIDUEKE+fDR85fd/O7rGxcectECkBCEWCCQKtNKDANEJk+DUEw6qxY9XfE00XB7InrN2SBZhnEqz0HXAUMXzy1d9903g+Awnr8GBHMRIZ4ukZvVLMMAMUKyfK+GjQ17UFFZxuzpH9jQ2+ETcZMWTY/6iw56CZdPvxCn/K+uCzKla5nHSvWBvA5ChWfJVR1MVN1imfs7npZc5IzzDFLInbwbR/wwpQNiiSpcTuiWLBfMbQtaGYNhaGhsbT2r/u67x2IeyAyIpPNQAb/5HwD3j7DraIOo754PZyOYYnJ/8SkEE0d8OsA+NoDVAfY7CiJvYbBxCoDDAuy3GgOXwO3FRvTd++bkgxRSMvoCAJ8dIKKcD8cgWOnlkUL882Ee8of8jGZ8HYNb2YwA+FLAfV8YoDH7AAZHgVxhrBEQAqJCsPLgoqvq6l5/ds0li86fA6NGrLQ7uQuOsB13500wG3oUmDS3ShjOTnlYx9jNRxyyZpEs22szoVXh5ELQHN4NST64o0GSl4TYIgndslIJ9ekJIvUudEMSIAOtr3Rhz55WHPGhI66vX7as17AixmxEp2hSD8WlccIz2FXuA2gO0YJLg8TdN1qK9DneCGLIilZOcr+uS8+O8N4Qqkm9EEPsS/NMf0KQqlTN03ouYlwkmSLENbaiKteuf7dAoxRLTj/5m2PwtohCJJ3XFvCbfwL42Qi9nnsC7KNh8JPmNQD/HXDfhgG8NhRw3v7gBwH3u3sEz/39klQUElJ5A0QOUX/wMvJrtkyQBHY0YDfye0I1CHHIsYrDENxD0Rd8EqI0ej7sCrgI83oA8l4mSbrCeCIgfDQ0cpSh/mffnbX+pTV3HfCZ6YjOMlIr6pw5wn/OSjlP978kDDVnlKc9JLqeFsnLpxiZVXmWpb0FHOnKVxpNG/XeQ6SIkZ07VMtJQpdq3lyKJTrVvITRrqUbxRlgM2x7YS8OOnRu9523/vvrvV3GihUrDMYBEpKsw6Ue7vRJRs6HF7ourpHmJijcMqXHA4KgSdIiyEUoJbhINA0ISRLliDJSQeKI0csCvpc8Oik8TiK8Q2yMkFRuB1qf78Sa329BV1OCn3Ph+QdeXXd1bIzdFgTAnyESl4NiDcQqMB+h13QXgoVhfRr5Y6D7g28hmJdlH0SCcxDcC1E+Mx9OB/DxQby2zwE4PsB+MQD/GuH3wDMoTBukBMDfUJi30IskgH8H2O+bGD1ekCBE83IEq+I0WvErDI7HYBr8tW1yPSOCPJvNgPfm1Rh9qumKgPTZIujjmaQUg+IgPvh6/RdPvOW3N20uOswgeok09lNK2iw7V8NJpLaEZpQj7UeMkDSmxYsYhshnkOFMWQOpaY6FK4mLnlZEd1bgGZMJ3AFsJsf7YLNMwuJU2nKHJQEpoUAiK06Jqrfit5tu3YGS0mL+4Q9/siLvkyrSNTuVIM5lf0nFcMF/PPkuzoSUYVdpFXK/a+KiQpgTZpVIiIpili363y306ORqUJeIoaMG77Qt13mcXBAnN8XJvSHu/BKC9je6sOG2PXj9t5uw9+02fviyJQ2bd+ynv//1Te+PwVvjOyhslbVZGrbdI/iatgC4L8B+OoTnYeogtOFkAD8OuO/vEXwFvg2ZCt+94S8ADhyEa1sC4QUIglsxPOrsheJnAB4uYP8j0LveSBD8NcA+BwL45SBfeynyV7AKgr8FIP7Vck4MZqiSDhEeOBw4EMCfBviYEQgP9aSA+988wHNwPoBrB7nfigMuaCgCMuhgo6Sdowh7t2w8rKs7RuKdCXAuDdvenoEyqZozBm5L7wN3FLohhQe1tPEtPRBCB4OmBPkIEYrh0KQKuWOIG3o6pItKIT5Ny0MwPXknbqOfyqV89z6psC0ObluiepQl8hx2/asRPZ1JnHfV5ybW1+ev6LT2tVc/KsKtpD6HZaVK3qbC2Hz7sJdu5kgRGW5bmcRBEgXR7qQgO3Kbm5ZMHneRR6/qfNZd4dwWJPXGmI7O9xLY/e8mrP/Tdrz663V46sdv4d3HdqB2UnX3RV/+9JlfnFQ24cjnN1582VIY9WPv3jqtACPZWTE7DwNfDnEw8HMEWwWcKP+4D6SA31IAf0ewEq+dAP5Q4PF/hfwiY4BYif0nBjbufoEkd0UB58uvR8m94BRUKETx/LsATurHOZ8AsDbAfl8C8LVBNPzuk+TryH4eayOC5YSdKQ3awSAhuiQ4D0NURhsOfBIiP26gxqcBIhcjCJ6E8FAHxdMAXguw3xcgvHGDgSiE1+Zh5K8MN24xKpTQCZQQoR/u+svj15798Q8e++r9b543/7xpKJ6ig3BZ4tY0s0OpSNqgFznQMk+DeIxnufJOoIsqS85hqMsToWlScdwTgqR5krBZHubpqIzbUiuQIxUqlKpCRTWQVKK1//FaX+jC3k2tOKPurJN+duXPAgmErXvn/U+Hw4a07WVol+NS4dLT4icS6CTzc56pg8KkLgpnQkndz1Z0JaA7eTntr3Rj88tN4pwyhYRoFCFDhx7SPX/RxE42s2GZNiyLg6XEEYWHKxTSES4KobgyitoFE9DdHEfHnm5s2bCrePvmvz9UO7Gy6/ATD/u/mrf0P8dntKM+FjIn79+fuFysWPNRfEssKMBIdnAlgKdGyfW9DOAOaVTmw1EQ8dDnIFhlmN5wLoCVCK4g/38AWgo8x2YAvwPwjQD7LpQGxnkIlujeG46XhCYoWbtulJBVBy3SeHwGQowzyGLfSojSvH1JhOcQlbj+HuBP+3UQwonfw8Al9E+HCME5XP7/PxDFC/pTnvqnAD4SgFx8DUK87xIA8QG6ngoAdwI4Q/7/TrnIsnoY5tIPAcwC8MWAiwV+mCrH54gC5lNfvHI/kfd1PvxSzsFvDeAcnCLJh0Ow7pfPmfegkPUQGBJMnlT71nQjdvDFS6thMQ6TcVg2h8kAi3Hfz0zG8cymdrTRktf27tt/hBquHEsvy4995NVn1542/8zJKF0YBWFI51UQmfjsJB8zO12FyZkETq6Dk33NZAgQoeI4zJYFnORvNF3syli6/K6foW3b/kTIPQGNUIZnRhAgTQgZanpGKVyeTPrmi/Aehtf+vB3HnHjYNfNC9v9de/cLgXIaDj1kVrdlmUUzzq8E0Q157rQ3JJWD4mk/cSfug6QrX3EGmFY6ub4vf705BWu2kWi2kWyzwJIAN21Ytg1uAVQHSEiDEdGhl+jQS3UYEwzQKh2UuoQbie/BkdieROPqZrQ1dsO2GSoqS8xjjzjkV9PXvv0rGDrDFf+VxGV74vWkno2y26AcogLKwgJ+c7NcBRtNmAzgXWmYBEEXgF9ArM4WWtZ1uvzj//kC/la8BeEt6YuBUiqvbVrA/ROStPy8D4SnRhq+Xw5omANCcO4g9F1t+FgAzwXY70kE1yIJiu+isAIL/wLwsX7YFU8heC7SaxBaPa/04/p0AJfKuVDu+W4rRDjW7n4c/1aIHKEg2Ajgqygs/M2vD88F8Ftkq9u3yr59ux/H31HAfebFCxA6Gi8V8JsQRK7M/wKoKuB3f5cEui94vID76E05B1/s5xy8WD5vK3z6+1gIEcS+QEOwkNZvYvR4aIeOgEydVPvWFKPn4M8vrSmMgGxuRztK3tjTuP9wRTVy48Mf+2DDS0++cf7cEyai4vAoiGOna5rIlZAJzU7oUpqgOJocmsuTQdKeDc6FdoSjF8KYqDhFXVWVcq1b2DKkKVeSudTJ4G6yJHNGSDic2geWnSZO7tAkieReG2v+vh1HHX/wHYfuiH0lsnRprP622/KuQM2aVsNqDigjVccVp7RFuKMan8rm5mlBRhmuRhwC5uTIOF3AZIiYZaeFGgtFKu8DmdWrvPkoTpI81dIeGMCtI9kbyxFt7LGx+6EW7N/ZAUIp5h4wbc/HvvXtExKVE5r1HiP5cnt7/O66OnsUTH8Kkfz64QJ/1w2RODsScDiCKf0CIl/lHwUefz9EWNQDEJ4R1ouhcLw0Pi+BiNUOih656tcfDZXjpQFeiHe+HcAKOQde7GUlU4cIh1gOsYpbWsA5LIjQpGf7cW3DSUCIJBUfKeA3X5T92hccCOBVBPeaMTl+fwTwGIIHbU8C8AkIT+acXvZbC+BD6HvuTq00UicX8Jsn5fX8qwBCXiHv76+i9+pQuySp2tbH6+kPAXH+0twDkSPzmLz3/TBfzrkvQpQsLgT7ABwKoTbfFyyQ5LakgDn4gByzRwqYgxMB1Mk52Ns1viOJY0sfrkURkH4RkMkT35qi9xz8+UI9IJvb0YriNfsam5YomtE76j5z6q9W3f/8NybPq8TkD5cJEuJUWNK0VFK4Y8gTXU/lehC3qncolA6NcsNmacMbLqPbWwXKCQdyG+Je4uAY0EBKrT1jYjp5J5SmRAC5LXRAfC2QNXFsfHYfPnTmUb+e1xH5SfecOT3XX399ryrCk6vK+YEXTEOo3EXEnOt2DH8nKd7JR3GSwt3lcR0NDhnKxZPJnO3Me0OGwylPlagkpqfOwc1kZh9qmsjFcTRc3MKN+e5sWxIl6a1J7GDY+kQTurvjmDN/Wvs53/zGESiKNjc+8Wr82muvHelVsr4jVz5HM+aisNCe36Dvar6N8o/hXklMNGnI1UKU3exLxRsOsUK8cgD64tsArunjb1ulsbnXZbjUyus7FKIMbF/b1N/E6eEkIABQKcnnzID7xyWh7Kvg4sUAbunD7/bIfnpBGtjNEF6nEkkaZ0FUYjtOjmnQkMtnICqp9TU86iQIkcdCdclaADwvX5vk9bRB5AmUyvGYJ8nxEQheiex9SdibhoGAeBce1krC0CgXLSYDmC2fa30BkwtKD/ezbRciWFK6F3tdY7ZVjmEHRP6Kew4eK4li0DnxHEQIXY8iIEPuAYkVTECe3dyBVhSt3dvYtFhRjPz43FXnffK+P/3nzpKSKBZdNBkkIqs1US1VCYszYUQTTZPCeLbIsZAaG8RJLtf6kHpjM8ASiz0pj4XbS+IY0LoujH1KhWHtJiCOSjqhKRE/blkZ5MVPHLD9jR5sfG4/Tj77uJ8uPvbEXyUaE+25VNBXrlxZ/O2vfblryVdm+AoHEqoBhIi+ke1Nhag5ifsuAsJNSzRVEqaM9ga9GZ1SuRr15JbwtDfJ3U+aBhIKpytqObczJfnHyLZdlbPS1253EGy+dx+6u+JY/IGDnj9x9uyzi5dfaLe8/HJXb4ryw4w/Q4QJjScCQiAqQn1mhLT/vyHirgcK10KIoI0E/BEiPKO/GG4CAojcoGcKMHLfhkjk7qvR/ksMXqJvX/ApiJLWfcWXELxa2lDg+xA5KoNBQDbK5xIZhuv6GkR45UDgpxh8faRC8Nk+kKIxSUBGgRAhwMEJFALhtmvvuau8rIibSQuv3bgVnWviwma2TJe4HuQquyzb6qhxw7Gv03kXva9RCEMWpileiQR4Iu6pJoV0+V9NS+VOpLwyupYOt3KRFM6lVoiTBC9JAdGELgbRskUOyw8rwryja/HUQy9+D4ccgt4M5jd3vXBWhuBgFifn6XY6eh1OYrzTPe6yx5yLymLyFfwOpGlPhjvkKiOsyj8XJaPUMudCrNHME1GUTIInZUlgb54K59AqCBZcMhUHnDEZb7701rH/eOnlXV2huBE95RRVM31kgUPkr9w7AtryswEmH4BIRv/TCLi2myHyRMYKXkJh1YwO7qOB6+DbI2QcuZxTd/XzOH+AyB0aCfgdBlc49UE594e6MMlPBpB8OCTtDyNkDn4XffPIjEkMHQEhfeQQYmVXVcEqAJNnTdweLQ7jgBMnY/2q3Xj3ph2wutKaHAQkbc+6lciltyFVfjZXIrUtf+OI9klDmHOeUvDOGjJHZ8MJxXLCqRwS4/WSpHIo0kKA3AlJ0qggBT4oO7JM/Co6qVcWsPbpV74dChtZk43ojrihzIPRDSk2KHU1qCaeIzKPhpsmYNtpQsQCap9I8kE06aFCL495b6lid7cmE6IdyaQor8x6+Vths3S4W67CAIyDWyaic3Qs+fI8NO1pid7zrW9vY2uf1VesuMxQd9eIQgLA+RAr9MMBGyJWfTAMMgahMP0jDE9lNg5R9ecy9LeI/MjDLxFMU8bB1wGc3Y9+vByiMtpwVdjrhPB8/GaAjvcziPwoc5iux4QQ0vvaEPTpjfIesIbo2r4H4U0d6Hv5y/K4wzUHuyG81ddAYRgIiLNy3Bf+wVUZ3kJwwhmnL+/s6EHRkiiWfnkmIlENr63YhB33NAG2lvaAEJl/AZ7W+XCSoG2We7woTRMKGbrFbZm8retAOCRX9Km/MS1Dm8Ah80R6UUJ3uW0IJRk5GakwLWcPTYe13wbVKEg83qvRsG9H40HFFZGs5xS3bUF0qAzz8vJmjcoqYCSVP+H0IfFjEbk0PIBMouOcyy98ihCwuJk9Ho7nxTJTJIY4x8rVn3nLIiMVYkbDFAsvn41d2xqLO3eu/8CeO2/i6u4acbAhwoMuwtAKKe6D0D74/SCf5wcAPoq+JW72Fe0Qic3/i9Fdlro3g+xiBC96QCByOSb143z1kiy3DPG1vgmRx/L3AT7uLRBhctuG+Hq2AjgRgy+i58bNEPkYrYNsoH8Sg+vR+QlEcY2mIR6zt+Qc/Jv6czVcBIT0K4pKhWAVgGt+cO1bFRXFbO/9beAGwexP1eDwC2ehqyWOl657D9sbmsASdkb4UMrwtO304nhvpNEW6uU8dQxHsVwqe+taulwtdYVLOav+miYTyy2Rb+G3Ii/DmsCB1ud68MbvNuPdG7eAdcmwL5d3xEnC7t6eRCRscNrd3aul3dHaHSmZXtT7ZNM81aVMK6XzIRL3ZVgZd8QdLcHlNFGdSniDdJGn4YScuS/PdSzu5JX4/fVOMGz8yx68dsNWrLlxB7be04yezWaqjUQeN5VA70ceZWEAoucuLiRC23TRZt0QIWicgRAgqduR+qeGbBVMoXCshCh/+9ggn4dB5NwcPATncvBviETPe4bgXHfLa7t7jM+XVkmyglaBq4FQq+/P3+J/QOiL3DcE19cO4bk5EiJZezDwrJyXN2PwvWQJaUAfBJEYPdR4VI7dU4Nw7JcGiST64T55Hf8YgnN1QoT9LYUoL64wbASkH7yFKyX0gnHcqUddtmdzC5jFhUh5NcXCz0/C4nOmo7u1B69cvwGb/tYIq4UBxNEJgcujwHPrSTgRQbadThR3yvYS158oTRiyJGSId8e74iYlhAixQz+OYwK7/9WMV67biO1v7MWsIyZi0RdngEZFI7i70pRsQ6wxgWhJxOxOJntduUzEk6RobsSHGJO0N4i7ciyYCBlzShjzVDK/7CfpxSG6DoRCQsdEN9Kiis4xMkiBSFYXCewk5992EiKYf8kULP3SLMz9QDXMbgsv3r0Fz/1mI978/VZsun0vWlZ3wepm6fFzPEzOyzTzej9SFcs0HRxA5+tdePOGTaidOCHxqx+uvE/dVSMe6yAqrJyDwmr0BwGHENQ6CkJvYahXEXdArKCfBJGkPdB4EsAyiHKaO8fJfHkZIj4+KE5H/9XLd0J4tE5BsIT8QtEEEe41F0JDY7AXTdogcrGOgBA9HGiPWTeEYOMCiBCinmGcLzsgvD6fgygD3F/shkjqP26IDfTdECKmyyAKMgw0WiBCR+dChP2ZUPDFECqh9+O+5CoJvVD85eb7/3zwQTNu2LByX3jBpZNATdH/kbkRHDh3Bsw2E9v/3YQ3bt8GXdcxef4ETDytQqQ4SCO01ypYmiY9KNJIdpekdVb6KQEYSQsNOt4B3RC2tgUQKg15eTxOCDpfi2Hn663o6YmjvLwIBy2fguicqKzaBcCyUpomKcj8klhbHJUTq9swZ06vf3jKJxTztbdvItW15Zh2fhVCIYBygDNb5LzzdE5LaupqGojMmSHEZbA7FbEIAQwp6uj2NHAOoung3Mz4LJtx2UJp0A1ZAQuEwOpg2LeuE61t3ZhSU4bZp9cg2WSjY0s39r/fjm2v7weTHi0jpCNSHEaoWEekPIRwqY5wJUVokgEaFoSNE9EGs50jvj2JnsYkepoSiHUmYZoWwuEQX3rC4ofu/8czZxOibsFRhH/L1wchylCei+BK315sAdAAUXFrJCj5rpKvwyGqyZyPbKG2QgyRuyG8R6+P07nya2kAfjTg/j+HWAV/s5/nfUK+joKoYPcxCC9LX9AD4CE5T+8HMBxlw9+AyJM5UBL08wDM6OOxknKON0CoebeNoPnC5LOgQT5bvgzhUSgEL0J401YO01g5eApCG+ZIOQc/DlGyuy+IQZQMduZgNxTyYsisiimTa9+eqsUO+vwRhZXhfWFrB/ZZ4U2NTa3z1HAVhvpr6yv+9JNrWycdXInqE4tBuBTRc8KuADDO0LG6C7vebkV3LIFQyEDl1FJMPrEKRq3hrwcCpDU+ZLnZVAlZ6trfltoVLtHD1H7c0c4g4KaN/ava0bihHfFYAoauoWZGGWpPr4QWlsY6oUIskDGkaqP5lLp944btOPrMY/5x3x2Pntdb3/zur79b/P47ry16+t4nb9u3tyVk2wzT5lVj8kfKQJmHaIGkw8lcSeaOQGFKxNEJycoFt6CiWwhSGveEyuR6Vx4It2y0P9eOba/uR088ierqMsw8qxJGZS/5NXGge10csUYT8XYTiR4LyYSJZMJCW3cMJZEQqNQ10TQKTaMwdI0bEd2eUF3eNmXBlFXHnPShK799cf3eUTLVj4CoOT+a8eAg/tHSpZFwHETIyBwAUyEUicMQeSQJCH2CbRDlgF+BCPV4f4T3G4UIS/mgJCVzIBTcK+W1EYgSss0QK7ibpbG4GkILZSgTzCdCeKeCEKMHhrBdldJgDorNECrTAwkNIlTlWAgtmrlyHEsh9D96pJHXLsdxiyTEz0vyONJWmQlEKN8H5XXNlYRkAoQ4Y1LOy3YIb8IWCA/m8/LeG2zDPEgZ3t8hmMdrLoCz5HUeLJ8r5WKJER3yXOsl8XgCwPYR+izR5DPEPQdneOZgPMccfG0I5uCcAPs0y/YpAjIwBKQT+6zQ5sam1rlQKBif/uK5n3/0rkf+POeUSag4pAgUMlHcducsUGkUAx2v9mDfe+3obO8B5wSRaAillVFUHFiOssXFIIacMrYNnkimczA0V/UoZ/XfNAUBcU84LYTuTQl0rOtG6+4e9HTHwBlHUVEYtfMrUHl8Eaguw58chXZpoPNkAiAUib02djzWBFBg+hmVCNVooAzY8Jd9IFqIbdiyW0cBLrfr/vSTifesvOvVt17fMI1zjrLSIlTNKEbtcWXQSmXZ4FA47RGyLCnAmM5rgZMg75dE7hA+p0W2JfqJ2aKvpC6LU2HLaudofLoVTdvaEU+YCId0TJxVjtqTS0Hy1aEiQvGe6Hr6PLrw4my6ZScIpfanPnN5pL6+XuVzKCgoKIxPDCQBUVAY4QRkUu07U/SeRZccUVMQAXlxWyf2mKHN+xUB6TM+cu7xf3jhiTeumH/aZJQeXARK9FT+QSpkKqWGDrmaT2HHgbbn29G+owvdnQkkk8Jm5QAMQ0c4osOI6AiFNVAD0CNCXNBOMlhJG2bMhJW0kYhbME2x8s85oGkUJeVRVMwsQ8UHymGUyLa4EqW5zFcgVEt5TLhlofX5Lmx6eR9mzJ7YSXTKtm/cU24YOiJFIVhJxr/0tUsnfPe71/RpBeCcT57yyxcefuGb5RUlsEwLXV0JgADhkI7SqmJUHliB0kOjICGnbC7zqMIz/0Ryt4K7zJnhZhJE08FiHO2vdaB1Wxe625JIJMQiSlFRBFWzylD7oRJAK0BVnVBRgYy4VNuJhvdv2gqdavx7t/286OJlF8fVXaGgoKCgCIgiIArDhSHLASGkP1oeVK3W9gP//sezXzrnkyeR5x9++YvT9lSh5rQKaAypxG3iCgMSREADIRzU4Kg6qQxVpFyQAxm2YzVaiG3tRqI5iWSPjWTMghkH4u0WCBXhUpQSGAZFcUUYkRoDRbMN6OWaCJggBMQwxIq/U8ZWhoQRhww5ieqECM+DDez6Tyv2bWrF8R8+9qf33vHY9wHg9tt/V3bjjSvW7tvROP0z3/jinO9+8yd9dj/ed9fj37ro6roXH/vrI/cUlUdx6CWToVsa2l7qQtv2HmxbvQuJJy2Zm0+g6RpCIR1GWINRbCAU1aHpMgyLcBHYAoCZNuKdSSR6TCTjNpKmJfU6hGckHDZQVBrBlEXVqDiyCFq51DhhtlQsJ7l1O7z3mROmJj0yyT0m3r17M6pry5Nf+PU3yy5ednFC3REKCgoKCgoKw4kh84BMnVzz/mQtdkChHpCXtnVitxnZsL+peYEarv7hwsvP/uzj9zzzl6LSCOZeNBEaceWESN0LbomEZ2c1nxAChEIiZ8HJb3CUzgGpX0HEcRxlcadKltlLSKSmid8wO01ACEmXiXXyKRgHswjW3bwFtsXw8Ss+dvxv629ZPZj99ONbfjz9rz+5YUtbS5c2a9lEVBxeCk0zHAeNiJ4ygeT2BHq29SDZYcPsSYLZHJbJYFuCLGhS14NQAt2gMCIE4YoIotOjiMwIg0SdcDaWyi3hti3zZKjMEyEi9CwoAdF1UUAABDvu3ov9O9pw0AcWrH3ykdcXqztAQUFBQQHKA6IwUghIQ0NDCECorq6ua9AIyKSaDZP12LyCCcj2TuxORDbtb25WSegDgPrrvz3l77+9fVtTU4c+59hJqDi2RIRkuTUkzKTQpZAlc0konCIaQgXclgJ4VppM6AacFX1QDbCttM6FF7JiFNE0sQ9cAnlSJ8TJI2le3YHNz+/ClGnV8S9feXHV5ZfXD1kZwrPP/+DfXlv11gWEUsw+tRYlBxaBcpK+Ri1HuJXDUhxtFULT+RjO9VOXQKFUMU+V8jUMKXYob1HbSofL9Xo3ExDdwL7H2rDrnSaUVxTbH73o/GN/UX/9y2rmKygoKCgoAqIwogjIMUsP+VtrS/MFzLJZaVlZ21FHH/uXE0498xZK6Xt1dXX2QJxo6qSajZP12NxCCcjL2zuxKxnevL+pReWADCBOO/uYB99Y/daZhqFj/senIDJNhEQRCE0LYlmp8ripEqxOjV4nXMtMpj0lTgUsLo1vLqpVcctMr9471Z4MI70Ph0sZXRAYouvo3mJj43+2gxDg8GVLbrr/709fPhz91NDQELrhjz9as37NtoUcHFMPqUbVCcWglIDoYektstNJ6SztzeGMpa+VMUFYmEw2d5LWOQNPeDwcup72KDlkzrZTFcf8wGIcOx5qRfOeTpSVFbEjTz3m+3fefN/P1UxXUFBQUFAERGFEEpDvfve7K6urqz+TTCawa/tWbN28EXt370ZbWyt0TbcqKyfsWnLo4XeccMZZd8fj8fcuvrjwJNYpk2o2T9Fjs/tEQOKhrftbWmer4RpYXP3rL01f+X9/2Z6wLJSXFmPBshkwDiJgPG3oUgBgHEIygrrCgxh4QkwDoc8hDGoOnsrjSH3mrP5LBwrRKGAYopQvlyv/Mmm66+04Nq/eD8uyccChs7f8sP53C5YtWzbsOUANDQ3arXde/+B7L793ak93nBSVRFB7RAUqDi8G5VySCcmxKBXkjRBB6Ny6KCRd4Qs2E+TCE6pGNE2U43VV3RK5OTzDC2KbHPuf6kTj5k7Ylo3aKRNixy0/6uw//vzuJ9XsVlBQUFBQBERhRBOQCy644NXDDz98KWMMtm3DsixYlgXGGHq6u9C4dzf27tqJlpYWdHe2g3HGotHintpJNZsWzj/wng+ccNKDxcXF2z7+8Y835zrR5EnVW6foiZmXFliG95XtndgRD21rammdpYZr4DFv+iTz6MNmoLYowu57+p1QVzyJufNm4cRzP4TuSCdarWa0JBuRsGVZco6UajexbRAmK1UBwrh2jGy3cB1nwoi2bRGqpUvCIj+zOy3sfKgVTXs6oGsaFhw6a92Xr/jcYXV1V8dGYp99+5qvHfDsfY89vmPj7mk9sQTC4RAmTC5B5eISFC+IAOBgRHaW49hwqlIRkpl4xeQO0nNECBF5I061LPEpYFlgSRttr/SgdUMXOjsE+SufUGIecMT8v3/xs9+59KyzzlIJ5goKCgoKioAojAoCEj377LM3nHjiiVO9BMSyLNi2nUVKbNtCT1cn2tta0NrSgq7OTsRjPTATCegaZeFoJF5WXt48cdLk9+YvWPjk4qVHvfDNq796Vy2JTS6YgOzowvaYvqO5pW2GGq6Bxwc/sOTtw6ZEF33m5CXE4gzrmloSjzy7PrT6ra3EYhyTJ9Xi9LM+jPkHL0Sr1YxWqwmtiUa0JPajLdkEO+UtEYY1ISK8iEADlQY0ALmKb4NIgtK9IY49LzSjvbkbRBjS9qFHHXLdPXc+9s3R1H/HH7V46+4dO2fOm1HN1m9torFkEgQEeshAxYQyVE+sxsSpNZi+cBZKqksAQpDkcTDCkbQS4JwhyRLgjMHkSVi2jc69bWja3IrWHW3oau5Bd2cMlmWhO26iqrwItVOr2xafctg3b/nF3X9WM1hBQUFBQREQhdEG3TCMAzjnFBAr2/lenHNwDhjhKCZUT0JpRXWKpJiWCQJQy0wUdXd2Fm3fvmv6e+++f9pdd9yJpv2tqK2N9IkhaZQaDQ0NNaZpWoZhdBSSl8I5J3fccUcFABiGUWSaZlhuTzBNc/OnP/3p1vE8AU448eSrXnjkn48CgE4oDqqpDh9yXi2+UfdBbGnvSDz76hbjqf/cS2/7cwtAKEpLS1BbXYM58+fhtCNPRaQihHbWjJbEfrQmm9GabESH2QbAgg0Cu52jZ10Mndvi6GrpQbw7CYBDN3RU1ZTFDv3IYX/8yue+8+1ly5ZZ6zfvHXX9d9rZH7t01T/++tiPPn0S5RxoYXE0WzFrX1PM2rG9Tdu3r0NrXreRvPfSm6StMwbT5rDtzGRy4fQgIAQI6RrKSyKorijlB1ZOYNMOnmVNmVpux6s4u+5Hj5f8709+VXXppZe2vPb6RvX0UlBQUFBQUBidBIQxNofnKfHp972blKTJAgFjDIxTGJFilOphFFdUwbIshIuKgJ7GPjUyEYtN+t7VVzZSqTK9YMYUJ6WAaxrNKCasaRoIBxgIYYzh4Pkz4OwgpEg4mM3Q2NSCD599xrhn+KGi0ic27GqBzTk0QqDrOjRNg6bpOGRSSXjJOdNAP6ahh1vY0dqW2Lq9hW7f3aJt27OF3PuXN0hbZxw9ySQoJbBMG3HTAgfAbAbOOWJJE9FwCFXVZeb0+VO3H3Lckt8et/CIv1x44ZUduxrbsPad7fjHXx4etf333//9v0/8+fe/g8UYdEpRpUVQpUX0BVMn6GTaVFBKQSkFoRSUECRhw6EfSWbBkon3lFNECQXlAGMMnHMCQJMv7LS7LYDg0ksvbVWPLQUFBQUFBYVRTUAopTUIoAfi9YTk2se7f4oY6EY6Hr4AEAJMnjodU6ZNg6ZpKYNObhPXNgrZfuu1l8CY1j3eJ0B9fT2bMamS72rvJHOqK6HpOnRNh64LEqLpGjSqIaJFUF1cFj5s+kwAHJxzQTZtBpvZsC0btp0O3Ws3Y2i1Evjaz+7D0mOO+9E///WfH2DjbqxetRY3YuWY6T9CCD/4gJk9b2/fX7Rk1sTU5945R6WmikFCmekxXPYl5+CMyRBHBsZsMFfCeVfcsiilOvp0FykoKCgoKCgojBxQznlNLpKRj3D4EY1eiQjpm+3kaKi7PTH93a6qrsb27ZvOVFMAqJ5Y0bFuaxMo1YT3Q9cEETF0GLoBI2QgFAohFA4j7LxCYYRCIRghA4ZuSM+J89JQpkdQqYV5PGnj0CVH1o/l/jt06RF/fP6tbWmyrYn+0zQNuq6nX4YB3dCh64bYdr/LfTTdIX+CvDho2t9DI+GQrWargoKCgoKCwqgnIAACeUD8SEdvxMP7f81PtC3IueCvZRcUuUhIZXUNWpqa56gpABx08CG/fXP9blBKxMo9pdCo8HxoujCiDUOQEId8GKGQIB6aE7JFQTWaseK/dnMjrygvi9fX17Ox3H+f+tTn/ueVdTvFDUUpqKZBT5EQPYOEGLoBwzDku/i/ICWSfMjwN4fIOSRk//5OWlxSFFOzVUFBQUFBQWHUExBCSLU3xyNfInouQpKLfBBCMsuyFkpAXAykUG9HLpSUVSAejxerKQCcevq5v3hl/Xb0MEuKb4uEaGdcKaEp70goFIJuGNA0kddAKEmNL5G/c8b6iZc30MVLDr1hrPff8uXLe7otxvd2dAsyJklIypukCXKRIhupl5HpIXERD01Lh3ARQrCvuYNOmFC+Q81WBQUFBQUFhVFPQDjnFTLhNTAcAz8X8cgiHwCoS9egUAbCMbDhV+IdAGN0vE+AVatW6Tf/4do3Gtt6UH/zo9jZ1gHISmfp/AQGJiudJZNJmKYp8xQYOOOp/ZwKaeAccW7bL6/fhfMuuPh746EfJ8+v3fXqul3S+6OlvUha2oskwquMlBdEd3k/0p4kx5ukpY5FKcXe/Z2kduLEJ9QjS0FBQUGhn3gLwGt5XmrBS2FQoctXMC7QiycknxeEUg2kYhpu2x6CwS3o3ILGLeiwYVCIVWMKaODghMLiFAwEiNAMD0hfiJLfNuMckUiEjOfBr6+vp1/9wkWd+xobI3Orw9i1excu/vHt+M2V5+LwedNBGAGxRBdxxmEzOzWmjHEwmXxu2RaYzWBZNvZ1dqI0pPO3NjVaJcXFrK6uLjke+nLRKQdf/eK/Xm8474TF6TA0zUVCNCevQ4Oo5iaECQW5Y7Ah0js4ODjXQDkHpxSUMjBG0NjWTT7/ubNv+8e/H1NPLQUFBQWF/uAs1QUKI4GAGL2RjN5CrzjnecmIs08kGkFPewwUBDGbwLIIbJvCslhGdSri2SYhBh5neQmF33Y+RIqKceO118664qqrto7HwX9p9ePP7N3XGJkxIT0FaouAb1//L6ys/wymVFSAM1Htyqa2GA/iInFOFSzbxpubd+E7N/4LXV3doJpBbJDwB4444oF1W3eNi77cZO27d/P2JpiMwTCEkrkIXZPzOUVE9FRYFedceJZgp7x8lFMwykAZAXPde23dMUyfPuc99chSUFBQUFBQGO2gkoTk9AQE1QBxf+f3/2hRMUzLzvo8V4WtVKiU+E9BxCPodll5OR5//KErx+PA33vvvRUvv/zGcZPLsh1gpSEbv/rbkzBNE6aZRDKZRDKZQDKRQML1SibEd69t3oYv/fJOlJAkJpcZmFgMcCuJbdu2njhe+vOp+qeskglF5trNe0HgJe9SB0SGZqVzPrR0qBUhqXyazJwaAhM8GU9aWL58eY96ZCkoKCgoKCiMBQIS2AOSTwOkNx2QUCgM07YDkY7MA9PAygeFkpDKqmrs2r1r+Xgc+D9cd82jOrFgaNljYWgEL7+zGe/vazQd8pFIJD3kI4FkMoGWWCf+6w8PYGIJzagzMKXcwM5de0o+e8FHvzLW+7KhoaHksAPntu3Y3mSsXrs5i84T18shFikPn1OgIUPQM/MQMZN1EkKU/oeCgoKCgoLCmCEgepAk9EI8IX7/1zQNpsV8E9TzJoxL4bt8hKJQVNfWorWtbdp4HPh1768/oqrIyPn9hCINt/7rJSOZdBOPeIYXpKm7u/sHNz0COxGDRkmW0V1VRLH66ReuG8v9ePGF51385csu6dyze1f59AkGnl6zSXrseOY/l9igbdsykd+WqudCNV7EYYmfy01wAM3tMRJPWuQ39fWV6pGloKCgoKCgMNqRlQPSG/qjhk4IyVB2dn/uVFDyJRggYKnKVQMbilVSNgFm0gyPt0G/+eabZ37nqq+Q6gm5hz5qUDz5xgaEDIoDZ9Zy02KIJSxwZqOjJ0H2N7dh656m4k1NMRw4MeJ7jJIwxdbWDu2HP/yfxT/4wY/WjLV+/OwF53/lX/c9cH1NEYWu6ehOMsTNLjR1dmNiRZmY1zKHhhEGYtuwAFCZF+Xk0TgVxRhjYJKMONXFwDm2722NdscT+N2K3+9fsWJF5PLLLzfVo0tBQUFBQUFhtILCE+A0GGrojtEvDCyeN/8j4zg0dxWs/pIQm3EAfNxVwrrvntt/SwNcdVGIYlE0himdW0htxxZS072NlHbsIJWxvZge6sHiqaUoi9BeJV5KQsAj99/3z7HWh7/5zY+nPvTgQ9dPLKYoChF0J2xUFWmoLNLx5oZdaULhStS3bBu2ZcGyTJimCcsyYVkWbNsCk96QDCLCGBjj2LavNaRTINbTSW+49uct6rGloKCgoKCgMNoJSLJQHRAvUemNeDj7WJYFxliv5MM//CojB71fIVfe3zPGUFxShpUrV44rQcId27afWBTKL4FSHKKImXbO71t7TJSGtV6PURrWsGPH7lljrQ9v+cNN68PURlGIojPOUB4V/RA1KF5dtyODeKRelgXTsmCZDgkR704p4zQRsTOIyPZ9zbSySEdJSMOOnXtKPve5T16gHl0KCgoKCgoKo5mAJPLldwyEGnoymRSrusgO0+rNS0EIlcJ4AxN+5cWECRPw1puvjaua2K1t7aVFRn7OGTU07O/KLePR1JVEPiIT1gli8RhdsWKFMVb676tfuuy07bv3FVUXiwpiNgd0l0vp7U17YGeQDwuW5bxMmB4PiCAhlvCQyFfKI2Lb2NnYRkrCFIyLvJrnn1p9m3p0KSgoKCgoKIxmAtInobhC1dBt24ZGNd8k9F5BKBjvmw5IkO3aSZPw6ourvzOeBj0WS9Kwnr/vQzrBvl4ISGuP6VtFK2uuMIbu7v2HjZX+e/LRh/45IUrhcI6ITtCTTIcJ7trfAtOybFt6NSzLThENy7RgmZnvpiQnXhLiJKnvaGxH3GQoClGURTS0tLQYt9xyS416fCkoKCgoKCiMZgISOAQriCck1/8NXU+FU/nliPhtM87RnySNfCRk0pRpaNzXuGg8Dbpt26AByB8lQEcsdwhW0g6mUG9Qjhefe/bSsdB3DQ0NoT37moudkCtA5Mr0mEzmFAGUcOxr7bJs2/Z4Pizp/ch8T+8jSYjlIiAcXZ2xOExbeJMAIKwxNNx+813q8aWgoKCgoKAwmglIryQjqBp6rgpYzj5GyMgiH+5tX7JAaEGEwrudD9HiUiQTich4GfCGhoYQpcH3T7LcJIMHFGgJ6RS7dzcePxb679F//+cScJYRcgUAVUU62uMMCYvD0Cg27m7S3OTDcnI/TMcTYqbfTQ8JkSFbnHO8u7vNjhoElUVpwlMa1rBly7YPqseXgoKCgoKCwqgkIISQBPJ4QAZKDd0IhTIF1wKooctAr0EJv+Kcw7Zt6KEQWbVqlT4eBjyZTEYIghO0pJVrXxLIiwIAGgF62jurx0L/rX37lW9HfbJZCAEqizQkLIbuhI112xu1TA+IQ0RMqTBvyTwQ8Z2ZQUBsWDa37nvhffxq5X/Kp1WEMiqNRQ2K9vbOkHp8KSgoKCgoKIxG6CjQA9IfNfRIJALOpdJzQDV0QmiwXJF+kJDS0jKsfuSREwA8OdYHvKioqKBk8CTzJyA256A02LjolCCZTI4JL1N7W/uUiJHbhVQW0VAW0fDUa++S4rCOQ+dNZXNqy0EpoX73j6OBwzjjTR0Jc93O/frajbvo6+9v1nXC4FdkjBARRsc5J0ohXUFBQUFBQWHUERDGWCJoyFJ/1dCj0SLEYrGC1dCDKqb3FTW1E/HUc0/8aDwQEMuyelgB3ZWryK7JSWZ95F5ACWAzTsdC/yUSSb1Iy38pBrHx6Atv4NEX3qAcFMVFEZSXlKAoGoWmUViMAZygIqqBJWJobe8iGxo7QoRwGBpBvhoBBBx33313NYD96jGmoKCgoKCgMKoICCGkizFW0I/6qoZeXFKK3Tu3Y0pNJSz4q6E7vwzDQonG0N7RBe6yXQcjFGvytOl4/ulVS8bDgNfV1cVqyoPLnkT0/us0Mg4YFGNipd60LUILLChMwNDT04Oenp6Mz5M2R8QI4cAqA8Uax+JJUezsZGjqjiNflTIChi1bNhwK4An1GFNQUFBQUFAYVQQEQIeXgAxE+JWXiABANBrFnt27ccVBFK2mhqY4QbfJkbQZOOcIUQshwhGlNgg4TMaxJtENzksDXUxfSUhVzUTE4/Gomg7ZCOu5V/uD1ifjnINS3R4L/UFBQAboWCGNgDETG1s5DqgMgRNgZrmGXW08LwGhBGjZt2fyUF77rbfeGolEIjWMMcMwDCOZTHaHQqHmurq6mLpTFBQUFBQUFAolIH1anS5UDd1BLGmjKgyUaxwmAyzGYTFBOCzb+UzsyzgHpXRAw6+8v7dsBk3XyXiJqaeUwrR5SsPDZhxxiyNhMZg2YNoMDASUcxSFKB5Y34kig4IB0DQNBAQ7O0z0JG1URGneZHSbA+GwPiaMVE3XmGlzLYj+SVB0JUwkeARRysAATJ0QRVNX714QzglIyGgarOu85nf10x69+6F/NO3bdVjYTuoRneCvv/gu4ZwDnMPmgGVzgFAsmVWLHovzcFFxzwEL59+//MyPf/OiK67YpR6vCgoKCgoKCr4EhBDSwTkn+QjGQKihW5YFDqAryVAc1gI1kDGA6sFzQPpKVCZUVuO7X//68QCeGcsDzjknMydV8cauHsIBRHWKCUUhTCvTURzRURSiMMAA7h+Wx8GQgIbysIb51cVojZloiZnQCEFJmKIoRLM8BEmbY0Jl9SZgw6jvv0gkbCU7u7WiATymoRHs7Uxg3oQQKAfChoakzRDWc98jHByzZy8cUCO/vr6evvv6K398Z81rn3/4DzdqtSUappXZyCySR4Tni6fLMHNBiAgjieLWjWs+ef3PX//kvKk1bO78ea9c8qWrTq+rq2tXj1oFBQUFBQWFFAFhjPXZA1KoGnoikQAHQUfCxsTSYIH0jHOQHMIVA5kPMnXaNLz82nO/AHD0WBzo3//+9zP/dssfn5lWXTajKkoxvaYcEyIEhDMxVtKUJLAB4l+lzOkxndsoigLVUQPgOjiiSELH3o4kdrbF0G1amBDVEZXVopIWwwEHLWp47OkXRn0/lpQUte1qaZpYEdUG9LjtMQuaDMOyrGydkeyxICguLm4dqPNffOEnvnLfyj/+dloppUdNIiJxR84Fv4kglixkQWf5f85t1ESB6ogGUEKbGjcd9X9XXdZ25KEHNF32+SsO/sLXv75PPXIVFBQUFBQUKICOQn/UVzX0ZDKJ8tIS7GhLBj6Xlxr1t+JVLhIyfdYs7Nm9b/FYG+CvfO3yTyyYOSV53Y++t7U03jjjpNnFWDIxguoIoINDp6LikkYBnQIaJdAJgUazXzpxvpP7E6S+ixAbM8s1HDujGCfNrURNcQS7Oyw0d1swGcExx530r7HQn5XVVeu6EmzAj5uwmOhLQpAwTYS0fASEIhQK7enveVetWqUfufiA/TvfeOr6pTWgE8MMGrgYb9eY6xnjL/6fniuQr/RcoZyjOgosmRjCdNJW/etf1u89/cRjXm5oaNCgoKCgoKCgML4JCCGk068KVqFq6O7f+JEPp5zutJkzsb45UQABER6QwQy/AoBwtAS2mQyPlYH92Q//57ADZ09NrLr7zrsWV3LjmGkRTC4i0rhEltGYNizT5ML7ShEPD0kRBqoQHNQogUEYZpVrOHVeGRZOLEFEI7jh2p+tHgtij1OmTX8yZjIkrYElISZLjwvnoh9z7mtzhEIG6urq+pXY/7VLLjrhW5d+KnFQpLt6dgmR45dJRjOIiPv/1D0nXPMhRUjkNiEo0jmOmBQG9m088vtXfzV51Vev+JB69CooKCgoKIxvAtIRxEDPtU9vieh+eh+Tp0zHzvYEWnqsQA20OaDJEKzBUkN33otLSklDQ8Ok0TygDQ0N2oeOPmz9zb+/7vWF5Sx0+OQIijRndR0ZxqHb+5FJQnJ4QDzfZRihjoHqMkApgIlRgpPnlSHauXfaJZ86N/mp8865eDT371HHLHuIEKC5Z2CLenFwaESoy+dLb+9JMlSUlfYrqf+sU46/f81zDz+9tJbSCLWyyEZqfDPIKlyfpedDan8ivyPueSD+T8FREyU4YpJGH/7HnU99/IxTVqjHr4KCgoKCwjglIJqm+eaABFFD70siend3N8LhCNbs6QlGQFjuHJBAhl0BJKR24iQ03H7zNaN1MP/7R/994Hev/krSbtox/7gZxSjVXcTDFS6luQ1FtwfDRSh0t4GZQTyQ/r2XpPgaoOLzKSUUR00Lk7dffOqWDx21ZH2uwgcjHWVlZfuKwwZiJoPFBq5gWlSjqf6lpPf53pFgmDVv9mN9Oc/tt99edvRBc3vKWjedfeAEAo3w1Fi5Q+rcZNRvHqQ9YB5vmod4OP+nzu+4haWTI9i57o3Lzjjx2BfUI1hBQUFBQWEcEpB4PN7BGAtsDObzhPT2GSEEtm1jwaJFeH13TyBlOosBuqb1iVAUiplz5mDd++s+PhoH8uLPfuqilb/93buH12h0djkFAfclHtmeikyPiDeu370KLkKxXGSEEF/PSsbKN0mf1wDD4olhkJYd8w+aN7Pn1ltvjYzGvq4tNnDmohrs7TAH7JiVRUaqn0rDBKbNcxLyjriNkpLSvYXPkU9c/ocffrNtcXk8WhmWxIPA34vhJSQZuUCuuUHcXhDnd35ERGiXCA8Pw4JKHe071h+97NjD31SPYQUFBQUFhXFGQAC0cc4LDmjvayI6ANTWTkJLzAqUjG5xgGraoIZfOdvVE6egu6u7eLQNYt3Hz/720w//57bjZ5eiiLKUweesQFOS9nZo1EtKMomInpHXQbJWxN1GqBOClSI0xId4yNVvSpFqx/QyDXOLEpGf/+9/da9YsaJoNPV1MpmMVkQ0TDAYlk4rRcsAhGIlLI65VdFUH06tiKAzR6J7S4+Nw6aW4LXnnr/shhtuKAly/IaGhuiJSw/a2b7mqT8uqSLEAMsmph6Plk59CImLlOhuApqaV9n/p5656GwTcMwpp+jZu3XxOWee8Df1KFZQUFBQUBhfBMTW9WyRuIFUQ/d6QVpbW1FeXobXd+cPw7IZoGvBc5f7Q0Isy0YoHCH33Xdf6WgZwIs/+6mLXn/umWuOnVUCjVvC0Hcb/Z4V6AyvhWv1O7saFtIVkJwQHe/KuI8HxEs8Ul4Yzyp4RYhj4QTQ635a3z6aktNfeWHVKcUhCkqABZUhzCyPoDVgPlPuOUswtVRLjVtVRPSj1weStDmqi0M4qCaEwyeHcdNvf7E/X1Wpc886aeVvv/+V7gWh1qmTi2l6TviE5qVJZXalK78KWGkPh5uUuOaZl4BSMfbO95QA8yeEsH7t2guu/NIlZ6jHsYKCgoKCwvghIKCUdvf1AH1VQz9kyVK8vS+GmNm788VkHLpuBCYRfTMA07+fMnUabvn9tb8YDYN37bXXTn7mkQdvO2p6CSizpXEP16qzNPg8Rif1W/0mxCcRPbPyVbYnxBN6RbL/T+UqOCVwvYvtUp1hVomtf+Orl+0fLTfMxg2bzqmI6qnrOHJqBItqi9HY1TcS0p1gOH5WaQZJ0whw2vwK7Gs3weTcTNocjAEfmFYMSghKdI5Z4VjkR9/7ZueDDz6YUb2tvr6efuK8D//uyHmTWLTxvc8cWk2JQbiLGBCf0LzMELoUGfEpRKC5PF8pT5mHzFDfeZBJQpxwrMOmFOPhf//7P6M1L0hBQUFBQUGhDwQkFAp1BSEYhXhC8v0/kUiCaxpe3dXVawMtxkE1mpd4DFRp3nkHHID1mzd/ejQM3orrf7n90MlFwvOBTPKRSURchqCf0ekhE34JyN5SvRleEE/pVTfJyN7O/KwqAmjdTRUfW37qH0dDn+/eufPoyqgGivT1HDIxjI8cWInuBEchGiFdCYYDa4sws0zPJIwEqIwQfOSgahBOEUswTCwO4aS5ZaDgIAQgBJgQIZhflIh+6fOfiX/jK1d89P777y9afvoJj/975Y2WtfH1rx5WDVJq8Jx9T/1yhLIIB7JfJLv4QBaZ8ZxL85yfuNvETMwo4XT56Sf+Rz2SFRQUFBQUxgkB0TStzx4QrwZIb+TD/b1pmli85DA8v60bHYnccfSmzaDpet7zD9R2Ve1kxHp6Skb6wJ1z1kkry1hML9HstDEnjWLSi8GfKzE9VzUsLas6ltdb4s778ITf+BiiqZVv5zMAB1SFseblVy5fuXLliM+/6WhvKy4OQZIAkurrqgjBJw+ZgGNnlsK0OPZ3WYiZLCuMikOU0Y0lGT40qwzHTi9Kh8yl+km8JoQ5Tp1XirMOKMchEyMgXJIP514CUBICjp4awp13/PXeq79wYbexb/3Jh1WDVIW5L/HL9LRk5mVoPt4NzbcSmsvrkUU8M7d7J6ByroJgYrGGDW+vPaO+vp6qx7KCgoKCgsI4ICCGYXT25ceFlOP1JSJEgx4KYfXW3Ke3GQchdNBCrrzbjHGUlZeTO+64o3qkDtqKFSuM119+7TMLaqIpg85t0NNeDUC/1e9Mj0b+2P8cCed5jc9Mo5M6c4EzLKgK4U+///WbI/lmaWhoqKyOgFDu7mvXOwHmTTBwwaGV+PzSGhwzvQwTi0KI6BooJyjSNcwuj2D5wkpcfmQtFtWEMvNjqKvvkPs9TULEu85tTCrW8MEZxagI8TTBA/HEo32aAAAeq0lEQVSQUXdIHsnIF0qVV/aU19U9XpG01oen+ECKxGSSUO/YO2Oe8oLAmQ8cU0s1sv6tV3+pHssKCgoKCgpjGzoAhEKhjnwEI1/4VSFq6A5M08TSo4/Fc089iUMmRVFdbHiOKQiIWywwCInIt50P06bPwF233/IHAHUjcdAee/hff5pcqoEwK2MVnpBMI9Vv9VnzfOY2UFNGbQ4xPC77kROROM04QGRIEBMfyp0IwDjEt1ywXBAIuT0CKo9BJAPmIKiOcGzasW3eqlWr9GXLllkjsd9v+t0v/z2zPOwhACTVZ24vVIlBcHBNCIdODLsMb1c/cA4Gp59lX3EOTkSfEVkpihCAcHjeCQjh4v/yuCUhDeB2hneJuM6bMQ+QJqB+ZNUZf0eM3T0XuEyO59y5n33GnnKAiXGlcM0DTsAJl2MudnPmAeEEk4p1vLlmzZcAfEM9mhUUFBQUFMYuKACEw+FAHpCBUkN3b7e2tKJ20kQ8sbET3sM7Qm+5zjtY5XjnLzwQG9atWz5SB23Nq298ek51NHOlO0UekLH6TUh2aA/1CZfyS0zX/XRAPAnnmaFDmdvEQ3QcwuFeASdIG9GTi3XccN0vfztS+33jhg3HTi030nPb3ecZ/e8kXPtUmnK8Rq7SxJRkjp3bu+EQTOJiAqnvIDaSXENVaTjz9/B6GTyesjxherpb3Z5mvuuenJ/evV9eIkRS7SNeLwhh4D1dEfVYVlBQUFBQGAcEpKSkpFcPiB/R6I8auve7OfMWYm+Xibf39WQREA7Asqy8JCgocQqyXVRSDiuRiIzEqjz33XdfqZno1g1m5iQd1GW0ug0/6iUklLhCcLJL82p+ytc5jU9khA+RDAPUFW6VYSRnGt2Tyw288/ZbF4/EG+XCC875zrxySjTplYAkBBnX4fQ/vKFZnpwLV+6NX8hVRv84vMNN1pB5/pZuE+Vh/z71bvcWnpWVG0LdZZnT+UHenJ9gYVbEv02efiwJEdxyyy3T1aNZQUFBQUFhjBOQ0tLSjt526q3iVRDi4SUf7nAtAGhtbcVBhxyC57d1ZZTltZgIRWGMDWrIlR9hqaypxde++PmPjLQBW736sTOqo3qG4QYfQy7L2HSRAuI1el2EJMMDQryld3Mbn46h2ZuHw594kJSBbXAbsa6u6Ejr8xUrVhjPP/nszxdUpxfn3cYz4CEHnhCtFAlx6WZQLxnLIDUkw+MBD+nwfIXOpA3CWMoj4u7TTIKU2fe+4Vmess0pjRjqqXrmQzwzPW/IfW6f+epsFxkEW7a/e5x6NCsoKCgoKIxxAlJcXNxWqIHuJhd9UUP3butGGFwL4Y41zVi7pxsW46IEL6UZOSR9JSGFbs9fcACef271jSNtwN5du/aiyiIjZVzCx+DzJSYZq96ZRmjOClk+1a9y5QwE8XC4jWK4jGx3u4uMkXeT3PS7X+85qEqT+QzIyo/xJwfERSjShr5GSWZ/uAYr2HGzv9eo51xZ2yQjZIukCGk2QczyhviEXrmrdhF3/lAOsgHPdq72gBBEDYp3Xl17tno0KygoKCgojHECUllZ6SvGMZhq6N7tWCyG+QsXYc7CQ/DSrhj+vqYZb+/pAaVavy6wryRk5rwFaGlpnTTSBqx5X/Pi4jDNJBg+Bj2Qe8XZ2Te9ao2shHRv/H9mAjvyejiySRDplSA5byECjKQKZGeedsJdiba9VdPK0vPQr7Sue8Pveydxm8mwQp7aj+f8HXKdx/V/m1BMiBq9khfvtrfPiTcvA+kk9HS1tEzvl3vMkZNspAlG6guf87sRNgzs2LH9FPVoVlBQUFBQGOMEZNUj91/W3wMVEqblt+2QkHgigUMWH4YFhyzGrm6O4uKifhGKvpIWzgkikSj5zW/qK0fSgLW1t9VE9MzYHJJheOYw8nyISTY5yDQ8aSrpXBihfqFVvZGJDOPTaxwTf4PZ5hyaph0wEvr6mmvqp6157fVPHD29NBDpcH/GwVOVojgHGOewGWBzgLH0525ykvHbrOP5k5yuJEdZJD9JD5TMRLzjk/aUUE9lNN9tQvKeLV87DF1HMpGIQkFBQUFBQWFsE5D9TXsTiXisIKJRaCJ6b14Q72c9PT1IJEzMXbAQ02fOzsgb6QsJ6StpmTd/Pu696577RtKA9cTihhNyM9AZ8sTDDtwhPEMFmwOEkPUjoa/vuHXlO4snFYNwO0UCuNtj4fqMu0mH/I5BVCO2OST5EGGFNueCiHAO5pAUpN/hOkaKiHDuS3S6YhYMZKuv9+aV6Y1MZVwP5+IaGIfNnLZ62+XXRp5xZB6wXQDAmY1wKNyjHs0KCgoKCgpjnIAcsPDgX29Y934g0uGHvqqhu7/zy/PoCwaSkCxafDh272o8ZkQNGKEZxqjXguM+gTxuQ9FrCHIfw5PJ1XmbA5YUZ2QZhmm2AerbHt57e/yMYEYo6urq9g93P19/zTVTWvc3lk0qJpkhUxwZZCGDKKRIhzDWM9+lB4QBliQjgoS4Xki/8xzn8RKFhM3So56DbGR7Unimp4VnEiiHaDCpwyOIk5gLduqa0tfbOylxzUoXQeF+BIUDpm2jqDjarB7NCgoKCgoKY5yA/O3v9z6waf37fbL8+6qG3hv5GMqKV70dSzPCIATa/fffXzRSBiwcMmzGiQ+Z4L7Gnz/RSAvJZRKP9MuWxqbNuDA8GQdjSK/Ycx8j3Hv8jHPzXglQakJqGhsJ/Xz3P+98bG5VWF5rDs+Ety94NvlwiIZjwFupfhWeBcZ8vCHcE6LFPedMEQhBEnlWGFiaUADZ4+xHHFLkJ6PdrrazNIFyCBVzeUnS7fYnJTyLlLhJVbp9FuMoKinbrh7NCgoKCgoKY5yAAEB3T2e7mUz0SjAGUg3dSz6828MRcuWHGTNnY8X1v/rzSBmwUMhIWhxZIUG9E43s0Bq3oehdrbe9q/Uyd8HOWAF3r4RnG7i5iQnPMDq9bQ8boeRI6Oct27YfOKUslGX4cw8JyfBcuD0H3AldSnsRbOZ5Ofv59GmGEe8J0XK3gdJ0u+Dqf/gRF59xySASrrmQChuT1ehS79IbYnu9OC4CwzO8K8hNpLKICGBaDLUTa9aqR7OCgoKCgsI4ICDHn3TCVzeufz/vDwZDDd27XQgGm5wsXroUG9ZtPHekDFgkGu62bJ5BPHIbmNkejlSYELwr9mmD0nZW61n6ZTPuISLwISLwhGrl8ZD4GKoAGXYPyK233hoxmEXA7Bxkg6feeYbxnunNsFPJ52lClw7BchET2aduApAxNoDvOwegEerrZWA+c8HxVGSRHVcbMoiHk7PCAMuZF6k2Z3pxGHO32x1WxrPmIss1bzlg2Ryz5x/wgno0KygoKCgojAMCMmHCtDs2rV/H/YhFb2RjINTQ++MFGWzSUjahBslk0hgpYViRaLRVEJA8Hg54PRwOQfAhHI5nI2u13m00p0Ox/MhH1kq669zBPCSiv5OMa8Pdx9vWv3XahGjaY+cXasV9Vv6zjHk3aXMMes5TyeiOUZ8y4Bl8PEw5zg9Rqc0wqCf0yZvPwTMS4pmfx8XVBttDMDLIKHfPCTd5Qsa2n1fFTYD98k6cOWJyjtmzD1ivHs0KCgoKCgrjgIDU19ez7q6O1iBhWL2hr2ro7u3hDLnygjGGyVOn4NY//u6GkTBgxSUlO5I2y+vhcIfYcJ8Qm9R2yvBEFvFwDOYMw9NZuWfulXvuISFpLwHnPNv4zOEhAQCbgwx3H7/04quXl4Z1OW/8Q638wqYcEsdcxMPKyKOBqx95lgfEzuFJ8SaqO2Nrc46wJviaX34HCxJmlUUiMkmG5QkdszzkybkGd7J9djgZzyap7jYiHYZnMUDX9Rb1aFZQUFBQUBgHBAQATvnwh7+waUOwxUe3QT9Qauh++/d23qHaXrL0CKxd89aFI2HAaqor3zNtEaXkNTSF1yM7tCrDKGSeFW+v4ck93g7GfQzRNBFhDL6GrLeyE++tepIrQZ1ZNh3uPu7q6ZwWNSQBgQ+JQ2Z/2j5hbO5cmozwJZYOa8omc67fMw/ZQXZoVpIDYakJw3oLs0KOPBNvwnkOj4fleqVIh5s8pYhIbm9Ib+FZLJUXJPpI1/VW9WhWUFBQUFAYJwTkpz/91b0b3n+XewlDoYro/ckFyUcK+oL+kpDaydORNE29oaFh2AXS5h64aLVDQDJDbHhGqAvrhYR4V929hqedw/C0XKv2FssMNUoRm1zEx2813kWiHJiMDbsHxEwkS6nrzsgkUv6kLoOAucPX3MQtowpWNplL9yPP9oIwnkVGLBvQXfdOTg8N8wu585BIb1vdoXfeF89FRFz5IN7tPOFZqb63gbq6uqR6NCsoKCgoKIwTAkII4bGezsZ4rG86YP1VQ89VVau/2/0lLYwxLDhgIW76w2/+OdwDNm/eIe9Z3N1OPy+DX6hNZvJ4xup1rpwPtwfElYxsMZ8cB1ceiZ/x2RshSV0OoeD28BOQUCTUxVjm/PH3ILg8Piwt2JeZA5LpBUmTPa84oZckZHooskKxpMHvDljLDrVDTs9XVlvdpNJThMDOmgdOKJZzHTynBySXNyTDC+LqZ6uf962CgoKCgoLCKCMgAHDqKaeft+7dd3Ia416yMVhq6PlIwVDniRx5zLHYtH7TacM9YJqmNZu2q83whrfwXrwfmSE+NssMvcrwbnhi/u0sY9Sby9CbwZkjn8EVegMARNNhjQAPSFlZ+TuxpO2Ze67cjAztDu4JvUKWMZ/SU/FUFXOMeL+8mozqWCx7bAHxHfX0ln9CvD8pYD7J8u7wuwzSybNDyXJ5cXoff55z/AHAZFAMREFBQUFBYbwRkJ/8+rerN6x7lxVKNgpRQ/f+vzc19L54MgaDkBjhKMrKK+hnzz//guEcsHg83uImIG7j2N/Yyw6V8sbvu2P+s4xO5mN8uhOoM/JBMo3PIKvgnpHrcznmgcRHPlr3x7a4lfU584REZV0fy1H5yush8IYvsezwLb88HYcwpPMl/NvvNwey5kOWd8bjsfGG3TGfvBAvaeWeucAyyZS7PLHtQz4AwBr+ImgKCgoKCgoKgwzd78Oq2qrH2lqaT6+orAp0kIHwggy3GnoQAnP8shPxyAP33wbgjuEasIsvvjh+0JQKX6NTBLOQdKUpuU05BwgBJ5CfApwTEMJBCEC4HBcnoodwEJ/uzBY5zBbGyyz76ueZyUU+AGYzRKNha7hvCq5pz3cleU7jPtWLTPQrCMAJByckNQKEA4wAhBPZpwDhPEdf8qxSurnyeNzTnDEOkqNoGOOZcyC1zQEi28rk3CDE1VbZznSbg8yD3q+B+yTE+9+uBESjTD2WFRQUFBQUxjZ8Kw5ddsVV56998zVfgjEQauje70eCGnoQAlNVMwXhcNT4/IXnfXo4By1msxzEyZUv4CkHm1ViNSvvI7PalV/ycVY1LO6XaO31tvgLF/rBYkBRUbRruG+Kyy+/3LRpmDGi5zTuGfcPl8r0gGTqquTuyxxj4lNZzA0bQFYMlmc+MLc3wpMwnuHFYvCpepZZiMBbkMAvJM/y9AHz6Z9ctxonFLphWOqxrKCgoKCgMA4JyDnnnNO5a8e2btsuzBYIqobeGynpLwaTnHDOcepZH8YzTz3zl2ElIBZAKO3V6PQrB+sOibF88j7cRqft8/ILy8lpQGclpvsb0W70mDYqKso3jYQbY+FBCx7f1Z7I+b03kT8jqZt5Kl9l6H94k9E9+3nIokMgfI12R6Ckt/sBnpA4DxGxPJoklqdssF8SupVRJSuHUKEPmcrTVCQYR0dHV/irV1x6vHo0KygoKCgojDMCAgDHn3zy595Zu6ZXI3+kqKEPRZleB6XllZgydZp2yoeOeWQ4BqyhoSFKCAEJRXs1OtMJxnCVic00CC13IjTL1qpwCxH6Jib7GK++ngB57nzDtK8ziTlzZ982Em6Miy/72kc3tyZzEj2H7HkVwS3m1VRxCfpxTznePJXFHNLAexlnEdSUH4wjh3ZHurSu5faEsezcD8tDQiyeKwk9m0zlG3tCNazZ2QXKkrjjb3c8s+y4I99Qj2cFBQUFBYVxRkCuu+4P97z15uvcj2jkK7c7GtTQ+0NaTjpzOTZv3Hhaff1/LRrKwTr3nDN+ceUXv9DT1R3D3rb8pZK5N0TIL1yKZVe/sjj38XJ4SUjminlGcro7cZrlX/kGABMU6/bH8M7ad35w829+UzncN0ZdXV1syrSpjTs78nsBmacClOXVVMkbguUfHpev33gf5jHj8A//yqp6llmAILsYgU+SPfOSsGBjb2sGXtrRCRCGiaU6ppdTvP3220tOPOawd9UjWkFBQUFBYRwREACYPLn2sXfWvtmLgZtfDZ1zPuBq6LnaMFREhTGOD3/047j95lveevDBB8NDMVCnnXjMU0+tevpbVREbc2vCeHtXO3qsYP2UsfrtJR4+1a8ywmuyYv9zlGJ1hxa5jM9A5jHV8NK2DkyrMLB7x7ba7/3of5sv+3zdsuG+ORYddPAfXtzWjlWbO7C+OYF9PTa6LQLmk/jNe+nnXCFtWbki8rcsIKfgIvu9T9fGeWbZXbfAoMXg8XDkIqIe3Rh5HK+4oGd5AhY0dFoEO7s4XtuTwBPrmhDRgbKIqIBFCcG0Mh1vv/3+gZ/+xPKvqse0goKCgoLC2EKv1ktDQ0PoO1d9LXHFlV8HB2BZVupl23bGu99n7nfn5d7X/Zl7mzEGzjkopdA0DZTSAd3u62+8eH/ta3j37bdib23YVkwIGTT9gk/XfeS/Hn7osZ9OK9egyaRjDqClx0JFJIQ5NaUoojbA7eADL4o3CdLoTASSOSGIx8DO2HZVQYKnGlYh6LQoXt/Zgcooha6JM3YnGbrtMC798pVafX39sFRFOvOkDz744iuvnVkRISgNUxAIle6ExZCwOUzGoQEI6RoMSmFoBBGDIqxThDQKTaPQiDCmNQIQKtg+lZ1NQUCd/iMAAQEBA/UMAnX/N1WhioOBYmNzArUlBkojOighAFhGVSwODsLsvj0UMs5LACLIgaNczyBzX9yhZIzDtBlMxpE0GRK2jYTFkbAZTIvDlPe1oREYlMDQCUIagZ4jkb4nyRAnUbZ1T5OqzaugoKCgoDBeCAgAnH7ycY8Vl0w45ahjjw9EQLxEI9fnjLEs4uHezyEgg0VCBoKAAMALqx5FS2tL02tvr68ZjAGqr6+nN/3+OrvcMBE1sttg2hwdcRtJm0MnBGGDIqJrCOsUUYMiGtIQ0akw9ggRBq2HqHgNTuKeGiSTdXAfEhIUnFCYDOhKcLT0JLC3MwkQoDKqwev02tVu4vAjDn/goSeeXz7UN8WFF55/6v3/uv/RGeU6DC24l4kxLg3zbC8Al2FwvR+D93pLsjy5FG6RQt/+z/G9Tv2L+TreGAKASpKgyX0pcbyeSBFYjRJoVByPEqTIcn+wo93GJVddOfvn9T/fqh7XCgoKCgoKYwN6vh0eeeK5U0/+4Afebd7feGD5hMzQ/MFUQ88V2z7SSvMed/IZ+NddK6uXHX/Es6uefXXAq/dsXv/ud5PJOKJFhu/3hkZQVewdRg4GG+1xCy0xwLQZLJuDgaSqNRFJIjQqxsNZqaeEgFK5LQ1Ixok0qHmKfRDCM8iHxYQ/xAk9ctwhttSU4NJQ1SmBoRFEDYqq4twL25VFGt5/b8NZw3FTvPLscw9URmhg8gFpkFNnf42oJ8tAPaAIw/OPPPJnACer3lBQUFBQUBgnBAQAnlj98qJkMtH5oVPOKglFonnV0P2Ihh/ZGEw19MEgLX5gjOFjn/wM/vqnG48bjAFa8/or3y4N0YJ/RyQ5MQBE9L5GsHDPe74zDpzhHTUo9rf30Pr6ejrUYVhNre2h6eVUPR1GAAyNoLWlbYHqCQUFBQUFhbGDwFbWV7/5/YonH3kg1tnR5m9+9uIJGQ419MEiLX6wGUc4GiX19fUDbrX29MSLwzoZt5Nz0aJFRUN5zttvv30awGROhcJwgzFA10hc9YSCgoKCgsI4JCB1dXX2c6+uLX7h6Sda9+3eOW7V0HOhKBrFokWLBrwiFuEc49cWZojH40NKQAghKoBqBCHJOGbOWfAX1RMKCgoKCgrjkIBI44yvfmVN5c5tGx584+UXwTnz22dMq6HnQldXJ6+rq4sN9AAZkVAiYbFxOTk5CKZPn94ylOc0DGMnB4XNuHo6DDf95BycaLjgs5//meoNBQUFBQWFcUpAHPznsWc/vHDm7A88/uB9duOe3b0SjLGohu5FPNYFAmIOxgAtXLTwvq7E+CMgNuPQNB3Lli2zhvK8dXV1dnVVRaItxtTTYZixv8vGnFkz99TV1dmqNxQUFBQUFMY5AQGAX//pT6+89tY6vaOzccVLzz3NO9rbAhGPsaKG7saLzz6DJUuXfn8wBuiccy+8jGohJO3xtSLfEWeoranqGo5zf+jU08/sSHAkLUVChgtdCQZoIXzje/UqAV1BQUFBQUERkEzce99jX/zJNb8O7d6xftUbLz3PW/bvy9qnL2rohWA4icqu7VsQ6+5sveOe+341GAP02c9+tnvJkkOf2ttpYbxQEMaBLpPj5NOWnTsc57/ppltWHX30EX/f1WFjf5elwrGGEJwDzd0WOk0NZ5zz0Q/W1dV1qV5RUFBQUFBQBCQLy5Ytsx598sWTTl/+UR1W/M8vP/cU275lE8xkoiAdkL56Qfpm6PSfhDTu2YVXX3wu+eFzP1U9mIP08Krnls2YOb19V5s55o1hzoHdHSZmz5q569rrb3l0uNrx0OPPfvKzF13yoeKKyvjODoZtrUk099iImaxXsT+FwmHaHK09Fna2JbG5OYloeVXy8iuvnvznP//lOdU7CgoKCgoKYw+DVvDnl7/8yaH/uOOOR+NJq7ayupaUVkwAQFIK6KNZDZ0xG++seQPbt2xsefWtddWEkEG3SDnnZNkxh69b+87784sMoCyiITJGyvMmbY7uBENXkoFxgvlzZ+164Y13pw9FvwbBqlWr9D/d+Nv/evfttVe1trRXdMfihNk2NAqENCGsSIkUIyRCDZxI1XkKgAyQKviYGGuLIW5xxC2OhMXBOIGu6ygvK01Omzn9zY999BOXfvXqq99SPaWgoKCgoKAISL9w1VWXL1+96uk/J+JWdaSohBSVlEI3QuBABhFxExDGGBhjgUjBUJEQANi1bQvWvvk6nzK15k/3P/zM5UM9YN//ztdOeOTBh/65Z29jVSyeBAVDxCCIGgQRvTD17uGAxTjiJkfcYoiZDCAawuEwr6ys6Jo1d95/PnLRJ758ad2lLSP9xrnjjjsmPvHIv7+wceP687s6OiZZCTOSMM0ws5hmMZtalk1sMYeJbTMZPsdFOCI4OAeo/JSkvkWGQj0glekdgfXUZ0i9U0JACHz3IUgTocEG42JsLcZh2Rw2E54Ni3GI9CUCEAojZPCykuJEVW3V1kMOXnzTCSef+dcLLrigST2KFRQUFBQUFAEZNKxcubL2zttW3LZ9+85lICSsh6JED4VBNA2Oh4QxliIig+XJCO7x4GhvbcH2rVuwZ+cONmX6xIceeuy55SNhdf7WW2+NvPjs4597e+3ab+zf3zyjs6s7ZFqm0A4BQ1inCGkEIZ1Ap+I1FJoiFuMwbY6kxZG0xYtzgBMKXTdQWhI1a2trdxz+geN+duoZZ92xfPnynvF24916662RUCgUNQyjyDTNMJLJspfffGlusqdzSmtrx4xYT8eURMysSibilUnLLraSyRLLtkM2YyFmWbrNmWaZls45CGc2tW1OGOeE2TbhACzbJuCilC1jrmR6zoRLhnNBTOR8YDaHW/GeQ4TDAWJ397RJfUeIFGwkACHQNQpd11kkFGLh4mjPhPKy3eWVE9cce8Lxt82de8BrdXV1+9UjV0FBQUFBQWHYl8sbGhrK77v7b9/auGH951raOidRQignFJyDMBBougHd0GHoBjRdh67rA0ZI0vkoHMy2EI/FkYjHEOvpQU93F2Ldnby7p9ueXFvz1mknnfmp7/z4x+tG+oByzsmNN9644LlnHvnSzq3bT2trbZvW1d0TjScSNGlahKeMUSYGn3PoGoFGSWoyELmy7oaTe8Jd24BY+eZcaHaAEBBCETJ0Ho2E7Ug0migtK90zY+aMx046/aybKipq3q2rq0uq225k4cEHHwy3trYWeeZRMSEklHpQENLBOc8oh2sYBqurq2tXPaigoKCgoKAwqgiIH1asWGEUFxcvfOCfd162c/uOU1vb26bF42aEMUZ1w0A4FOZG2OCGEWaGYYBqGtc1Cko1UF3nBARUozL8hDgWFUAIsSyTWGaSxnpiiPXEaCIe4+DMiobDnWUTyrbOmDnj0aOOOu2uAxcf+O5Qa1AMBerr6+miRYuqTNOs2Lhu7YKtWzYvbWnaf0h3d2y6ZSZLLMvUGeOwTEunGtUJwCjVYlQnthGKxkEI1ww9GTbC+2tqKt+pnTL31cMOO+y9ZDLZFolEmpVmg4KCgoKCgoKCQm/4f3sTxhtew3a0AAAAJXRFWHRkYXRlOmNyZWF0ZQAyMDIxLTA0LTE3VDEyOjA1OjU1KzAwOjAwiSGCXAAAACV0RVh0ZGF0ZTptb2RpZnkAMjAyMS0wNC0xN1QxMjowNTo1NSswMDowMPh8OuAAAAAASUVORK5CYII=;" vertex="1" parent="1">
          <mxGeometry x="830" y="1100" width="185.19" height="100" as="geometry" />
        </mxCell>
        <mxCell id="m6WEReeCqeJL14BGaEDR-5" value="&lt;font color=&quot;#ffffff&quot; style=&quot;font-size: 20px;&quot;&gt;zookeeper-01&lt;/font&gt;" style="rounded=1;whiteSpace=wrap;html=1;fillColor=#00994D;strokeColor=#0e8088;align=center;" vertex="1" parent="1">
          <mxGeometry x="840" y="1220" width="135" height="44.37" as="geometry" />
        </mxCell>
        <mxCell id="m6WEReeCqeJL14BGaEDR-6" value="&lt;font color=&quot;#ffffff&quot; style=&quot;font-size: 20px;&quot;&gt;zookeeper-02&lt;/font&gt;" style="rounded=1;whiteSpace=wrap;html=1;fillColor=#00994D;strokeColor=#0e8088;align=center;" vertex="1" parent="1">
          <mxGeometry x="991.79" y="1220" width="135" height="44.37" as="geometry" />
        </mxCell>
        <mxCell id="m6WEReeCqeJL14BGaEDR-7" value="&lt;font color=&quot;#ffffff&quot; style=&quot;font-size: 20px;&quot;&gt;zookeeper-03&lt;/font&gt;" style="rounded=1;whiteSpace=wrap;html=1;fillColor=#00994D;strokeColor=#0e8088;align=center;" vertex="1" parent="1">
          <mxGeometry x="1140" y="1220" width="135" height="44.37" as="geometry" />
        </mxCell>
        <mxCell id="m6WEReeCqeJL14BGaEDR-8" value="" style="endArrow=none;html=1;rounded=0;fillColor=#b0e3e6;strokeColor=#0e8088;strokeWidth=3;endFill=0;jumpSize=5;startArrow=classic;startFill=1;" edge="1" parent="1">
          <mxGeometry width="50" height="50" relative="1" as="geometry">
            <mxPoint x="1099.5" y="900" as="sourcePoint" />
            <mxPoint x="1099.5" y="1080" as="targetPoint" />
          </mxGeometry>
        </mxCell>
        <mxCell id="m6WEReeCqeJL14BGaEDR-9" value="" style="endArrow=classic;html=1;rounded=0;fillColor=#b0e3e6;strokeColor=#0e8088;strokeWidth=3;endFill=1;jumpSize=5;" edge="1" parent="1">
          <mxGeometry width="50" height="50" relative="1" as="geometry">
            <mxPoint x="979.5" y="900" as="sourcePoint" />
            <mxPoint x="979.5" y="1085" as="targetPoint" />
          </mxGeometry>
        </mxCell>
        <mxCell id="Jn_WsU0XJ25JbZvKuPca-1" value="&lt;font style=&quot;&quot;&gt;&lt;font style=&quot;font-size: 24px;&quot; color=&quot;#99004d&quot;&gt;Eg: &lt;b style=&quot;&quot;&gt;Send&lt;/b&gt; some messages with topic &quot;insert-a-category&quot;, &quot;get-all-categories&quot;&lt;/font&gt;&lt;br&gt;&lt;/font&gt;" style="rounded=1;whiteSpace=wrap;html=1;fillColor=none;strokeColor=none;fontColor=#00331A;align=left;" vertex="1" parent="1">
          <mxGeometry x="420" y="870" width="450" height="60" as="geometry" />
        </mxCell>
        <mxCell id="Jn_WsU0XJ25JbZvKuPca-2" value="&lt;font style=&quot;&quot;&gt;&lt;font style=&quot;font-size: 24px;&quot; color=&quot;#99004d&quot;&gt;Eg: &lt;b&gt;Receive&lt;/b&gt;&amp;nbsp;messages&lt;/font&gt;&lt;br&gt;&lt;/font&gt;" style="rounded=1;whiteSpace=wrap;html=1;fillColor=none;strokeColor=none;fontColor=#00331A;align=left;" vertex="1" parent="1">
          <mxGeometry x="1450" y="900.75" width="270" height="60" as="geometry" />
        </mxCell>
        <mxCell id="Jn_WsU0XJ25JbZvKuPca-5" value="&lt;font style=&quot;font-size: 20px;&quot;&gt;Consumer Group&lt;/font&gt;" style="rounded=1;whiteSpace=wrap;html=1;fillColor=none;strokeColor=none;fontColor=#00331A;align=left;" vertex="1" parent="1">
          <mxGeometry x="1495" y="530" width="200" height="40" as="geometry" />
        </mxCell>
        <mxCell id="Jn_WsU0XJ25JbZvKuPca-7" value="&amp;nbsp;" style="rounded=1;whiteSpace=wrap;html=1;fillColor=none;strokeColor=#009900;arcSize=3;strokeWidth=3;" vertex="1" parent="1">
          <mxGeometry x="1355" y="1430" width="205" height="330" as="geometry" />
        </mxCell>
        <mxCell id="Jn_WsU0XJ25JbZvKuPca-8" value="&lt;font face=&quot;Comic Sans MS&quot; style=&quot;font-size: 20px;&quot;&gt;Consumer Group: eg, groupA&lt;/font&gt;" style="rounded=1;whiteSpace=wrap;html=1;fillColor=none;strokeColor=none;fontColor=#00331A;align=left;" vertex="1" parent="1">
          <mxGeometry x="1355" y="1380" width="275" height="40" as="geometry" />
        </mxCell>
        <mxCell id="Jn_WsU0XJ25JbZvKuPca-12" value="&lt;font style=&quot;font-size: 18px;&quot;&gt;0&lt;/font&gt;" style="rounded=0;whiteSpace=wrap;html=1;fillColor=#f8cecc;strokeColor=#b85450;" vertex="1" parent="1">
          <mxGeometry x="800" y="1600" width="40" height="40" as="geometry" />
        </mxCell>
        <mxCell id="Jn_WsU0XJ25JbZvKuPca-13" value="&lt;font style=&quot;font-size: 18px;&quot;&gt;2&lt;/font&gt;" style="rounded=0;whiteSpace=wrap;html=1;fillColor=#f8cecc;strokeColor=#b85450;" vertex="1" parent="1">
          <mxGeometry x="880" y="1600" width="40" height="40" as="geometry" />
        </mxCell>
        <mxCell id="Jn_WsU0XJ25JbZvKuPca-14" value="&lt;span style=&quot;font-size: 18px;&quot;&gt;1&lt;/span&gt;" style="rounded=0;whiteSpace=wrap;html=1;fillColor=#f8cecc;strokeColor=#b85450;" vertex="1" parent="1">
          <mxGeometry x="840" y="1600" width="40" height="40" as="geometry" />
        </mxCell>
        <mxCell id="Jn_WsU0XJ25JbZvKuPca-15" value="&lt;font style=&quot;font-size: 18px;&quot;&gt;3&lt;/font&gt;" style="rounded=0;whiteSpace=wrap;html=1;" vertex="1" parent="1">
          <mxGeometry x="920" y="1600" width="40" height="40" as="geometry" />
        </mxCell>
        <mxCell id="Jn_WsU0XJ25JbZvKuPca-16" value="&lt;font style=&quot;font-size: 18px;&quot;&gt;5&lt;/font&gt;" style="rounded=0;whiteSpace=wrap;html=1;" vertex="1" parent="1">
          <mxGeometry x="1000" y="1600" width="40" height="40" as="geometry" />
        </mxCell>
        <mxCell id="Jn_WsU0XJ25JbZvKuPca-17" value="&lt;font style=&quot;font-size: 18px;&quot;&gt;4&lt;/font&gt;" style="rounded=0;whiteSpace=wrap;html=1;" vertex="1" parent="1">
          <mxGeometry x="960" y="1600" width="40" height="40" as="geometry" />
        </mxCell>
        <mxCell id="Jn_WsU0XJ25JbZvKuPca-18" value="&lt;font style=&quot;font-size: 18px;&quot;&gt;6&lt;/font&gt;" style="rounded=0;whiteSpace=wrap;html=1;" vertex="1" parent="1">
          <mxGeometry x="1040" y="1600" width="40" height="40" as="geometry" />
        </mxCell>
        <mxCell id="Jn_WsU0XJ25JbZvKuPca-21" value="&lt;font style=&quot;font-size: 18px;&quot;&gt;Partition 0&lt;/font&gt;" style="rounded=1;whiteSpace=wrap;html=1;fillColor=none;strokeColor=none;fontColor=#00331A;align=left;" vertex="1" parent="1">
          <mxGeometry x="705" y="1600" width="95" height="40" as="geometry" />
        </mxCell>
        <mxCell id="Jn_WsU0XJ25JbZvKuPca-22" value="&lt;font style=&quot;font-size: 18px;&quot;&gt;0&lt;/font&gt;" style="rounded=0;whiteSpace=wrap;html=1;fillColor=#f8cecc;strokeColor=#b85450;" vertex="1" parent="1">
          <mxGeometry x="800" y="1670" width="40" height="40" as="geometry" />
        </mxCell>
        <mxCell id="Jn_WsU0XJ25JbZvKuPca-23" value="&lt;font style=&quot;font-size: 18px;&quot;&gt;2&lt;/font&gt;" style="rounded=0;whiteSpace=wrap;html=1;fillColor=#f8cecc;strokeColor=#b85450;" vertex="1" parent="1">
          <mxGeometry x="880" y="1670" width="40" height="40" as="geometry" />
        </mxCell>
        <mxCell id="Jn_WsU0XJ25JbZvKuPca-24" value="&lt;span style=&quot;font-size: 18px;&quot;&gt;1&lt;/span&gt;" style="rounded=0;whiteSpace=wrap;html=1;fillColor=#f8cecc;strokeColor=#b85450;" vertex="1" parent="1">
          <mxGeometry x="840" y="1670" width="40" height="40" as="geometry" />
        </mxCell>
        <mxCell id="Jn_WsU0XJ25JbZvKuPca-25" value="&lt;font style=&quot;font-size: 18px;&quot;&gt;3&lt;/font&gt;" style="rounded=0;whiteSpace=wrap;html=1;fillColor=#f8cecc;strokeColor=#b85450;" vertex="1" parent="1">
          <mxGeometry x="920" y="1670" width="40" height="40" as="geometry" />
        </mxCell>
        <mxCell id="Jn_WsU0XJ25JbZvKuPca-26" value="&lt;font style=&quot;font-size: 18px;&quot;&gt;5&lt;/font&gt;" style="rounded=0;whiteSpace=wrap;html=1;fillColor=#f8cecc;strokeColor=#b85450;" vertex="1" parent="1">
          <mxGeometry x="1000" y="1670" width="40" height="40" as="geometry" />
        </mxCell>
        <mxCell id="Jn_WsU0XJ25JbZvKuPca-27" value="&lt;font style=&quot;font-size: 18px;&quot;&gt;4&lt;/font&gt;" style="rounded=0;whiteSpace=wrap;html=1;fillColor=#f8cecc;strokeColor=#b85450;" vertex="1" parent="1">
          <mxGeometry x="960" y="1670" width="40" height="40" as="geometry" />
        </mxCell>
        <mxCell id="Jn_WsU0XJ25JbZvKuPca-28" value="&lt;font style=&quot;font-size: 18px;&quot;&gt;6&lt;/font&gt;" style="rounded=0;whiteSpace=wrap;html=1;" vertex="1" parent="1">
          <mxGeometry x="1040" y="1670" width="40" height="40" as="geometry" />
        </mxCell>
        <mxCell id="Jn_WsU0XJ25JbZvKuPca-29" value="&lt;font style=&quot;font-size: 18px;&quot;&gt;8&lt;/font&gt;" style="rounded=0;whiteSpace=wrap;html=1;" vertex="1" parent="1">
          <mxGeometry x="1120" y="1670" width="40" height="40" as="geometry" />
        </mxCell>
        <mxCell id="Jn_WsU0XJ25JbZvKuPca-30" value="&lt;font style=&quot;font-size: 18px;&quot;&gt;7&lt;/font&gt;" style="rounded=0;whiteSpace=wrap;html=1;" vertex="1" parent="1">
          <mxGeometry x="1080" y="1670" width="40" height="40" as="geometry" />
        </mxCell>
        <mxCell id="Jn_WsU0XJ25JbZvKuPca-31" value="&lt;font style=&quot;font-size: 18px;&quot;&gt;Partition 1&lt;/font&gt;" style="rounded=1;whiteSpace=wrap;html=1;fillColor=none;strokeColor=none;fontColor=#00331A;align=left;" vertex="1" parent="1">
          <mxGeometry x="705" y="1670" width="95" height="40" as="geometry" />
        </mxCell>
        <mxCell id="Jn_WsU0XJ25JbZvKuPca-42" value="&lt;font style=&quot;font-size: 18px;&quot;&gt;0&lt;/font&gt;" style="rounded=0;whiteSpace=wrap;html=1;fillColor=#f8cecc;strokeColor=#b85450;" vertex="1" parent="1">
          <mxGeometry x="800" y="1740" width="40" height="40" as="geometry" />
        </mxCell>
        <mxCell id="Jn_WsU0XJ25JbZvKuPca-43" value="&lt;font style=&quot;font-size: 18px;&quot;&gt;2&lt;/font&gt;" style="rounded=0;whiteSpace=wrap;html=1;fillColor=#f8cecc;strokeColor=#b85450;" vertex="1" parent="1">
          <mxGeometry x="880" y="1740" width="40" height="40" as="geometry" />
        </mxCell>
        <mxCell id="Jn_WsU0XJ25JbZvKuPca-44" value="&lt;span style=&quot;font-size: 18px;&quot;&gt;1&lt;/span&gt;" style="rounded=0;whiteSpace=wrap;html=1;fillColor=#f8cecc;strokeColor=#b85450;" vertex="1" parent="1">
          <mxGeometry x="840" y="1740" width="40" height="40" as="geometry" />
        </mxCell>
        <mxCell id="Jn_WsU0XJ25JbZvKuPca-45" value="&lt;font style=&quot;font-size: 18px;&quot;&gt;3&lt;/font&gt;" style="rounded=0;whiteSpace=wrap;html=1;fillColor=#f8cecc;strokeColor=#b85450;" vertex="1" parent="1">
          <mxGeometry x="920" y="1740" width="40" height="40" as="geometry" />
        </mxCell>
        <mxCell id="Jn_WsU0XJ25JbZvKuPca-46" value="&lt;font style=&quot;font-size: 18px;&quot;&gt;5&lt;/font&gt;" style="rounded=0;whiteSpace=wrap;html=1;" vertex="1" parent="1">
          <mxGeometry x="1000" y="1740" width="40" height="40" as="geometry" />
        </mxCell>
        <mxCell id="Jn_WsU0XJ25JbZvKuPca-47" value="&lt;font style=&quot;font-size: 18px;&quot;&gt;4&lt;/font&gt;" style="rounded=0;whiteSpace=wrap;html=1;fillColor=#f8cecc;strokeColor=#b85450;" vertex="1" parent="1">
          <mxGeometry x="960" y="1740" width="40" height="40" as="geometry" />
        </mxCell>
        <mxCell id="Jn_WsU0XJ25JbZvKuPca-51" value="&lt;font style=&quot;font-size: 18px;&quot;&gt;Partition 2&lt;/font&gt;" style="rounded=1;whiteSpace=wrap;html=1;fillColor=none;strokeColor=none;fontColor=#00331A;align=left;" vertex="1" parent="1">
          <mxGeometry x="705" y="1740" width="95" height="40" as="geometry" />
        </mxCell>
        <mxCell id="Jn_WsU0XJ25JbZvKuPca-52" value="" style="endArrow=classic;html=1;rounded=0;strokeWidth=2;dashed=1;" edge="1" parent="1">
          <mxGeometry width="50" height="50" relative="1" as="geometry">
            <mxPoint x="920" y="1600" as="sourcePoint" />
            <mxPoint x="1389" y="1477" as="targetPoint" />
          </mxGeometry>
        </mxCell>
        <mxCell id="Jn_WsU0XJ25JbZvKuPca-53" value="&lt;font style=&quot;font-size: 18px;&quot;&gt;&lt;font face=&quot;Comic Sans MS&quot;&gt;Consumer1&lt;br&gt;&lt;i&gt;partition 0&lt;/i&gt;&lt;/font&gt;&lt;br&gt;&lt;/font&gt;" style="rounded=1;whiteSpace=wrap;html=1;align=center;fillColor=#fff2cc;strokeColor=#d6b656;" vertex="1" parent="1">
          <mxGeometry x="1400" y="1450" width="120" height="50" as="geometry" />
        </mxCell>
        <mxCell id="Jn_WsU0XJ25JbZvKuPca-54" value="&lt;font style=&quot;font-size: 18px;&quot;&gt;&lt;font face=&quot;Comic Sans MS&quot;&gt;Consumer2&lt;br&gt;&lt;i&gt;partition1,2&lt;/i&gt;&lt;/font&gt;&lt;br&gt;&lt;/font&gt;" style="rounded=1;whiteSpace=wrap;html=1;align=center;fillColor=#fff2cc;strokeColor=#d6b656;" vertex="1" parent="1">
          <mxGeometry x="1400" y="1530" width="120" height="50" as="geometry" />
        </mxCell>
        <mxCell id="Jn_WsU0XJ25JbZvKuPca-55" value="&lt;font face=&quot;Comic Sans MS&quot; style=&quot;font-size: 18px;&quot;&gt;offset = 3&lt;/font&gt;" style="rounded=1;whiteSpace=wrap;html=1;align=center;" vertex="1" parent="1">
          <mxGeometry x="1105" y="1520" width="95" height="40" as="geometry" />
        </mxCell>
        <mxCell id="Jn_WsU0XJ25JbZvKuPca-56" value="" style="endArrow=classic;html=1;rounded=0;strokeWidth=2;dashed=1;" edge="1" parent="1">
          <mxGeometry width="50" height="50" relative="1" as="geometry">
            <mxPoint x="1040" y="1670" as="sourcePoint" />
            <mxPoint x="1386" y="1561" as="targetPoint" />
          </mxGeometry>
        </mxCell>
        <mxCell id="Jn_WsU0XJ25JbZvKuPca-57" value="&lt;font style=&quot;font-size: 18px;&quot;&gt;offset = 6&lt;/font&gt;" style="rounded=1;whiteSpace=wrap;html=1;align=center;" vertex="1" parent="1">
          <mxGeometry x="1168" y="1591" width="95" height="40" as="geometry" />
        </mxCell>
        <mxCell id="Jn_WsU0XJ25JbZvKuPca-61" value="" style="curved=1;endArrow=classic;html=1;rounded=0;strokeWidth=2;dashed=1;exitX=1;exitY=1;exitDx=0;exitDy=0;" edge="1" parent="1" source="Jn_WsU0XJ25JbZvKuPca-47">
          <mxGeometry width="50" height="50" relative="1" as="geometry">
            <mxPoint x="1040" y="1760" as="sourcePoint" />
            <mxPoint x="1439" y="1591" as="targetPoint" />
            <Array as="points">
              <mxPoint x="1090" y="1880" />
              <mxPoint x="1260" y="1740" />
              <mxPoint x="1390" y="1660" />
            </Array>
          </mxGeometry>
        </mxCell>
        <mxCell id="Jn_WsU0XJ25JbZvKuPca-62" value="&lt;font style=&quot;font-size: 18px;&quot;&gt;offset = 5&lt;/font&gt;" style="rounded=1;whiteSpace=wrap;html=1;align=center;" vertex="1" parent="1">
          <mxGeometry x="1180" y="1750" width="95" height="40" as="geometry" />
        </mxCell>
        <mxCell id="Jn_WsU0XJ25JbZvKuPca-63" value="&lt;font style=&quot;font-size: 18px;&quot;&gt;&lt;font face=&quot;Comic Sans MS&quot;&gt;Other comsumers...&lt;/font&gt;&lt;br&gt;&lt;/font&gt;" style="rounded=1;whiteSpace=wrap;html=1;align=center;fillColor=#fff2cc;strokeColor=#d6b656;" vertex="1" parent="1">
          <mxGeometry x="1400" y="1670" width="120" height="50" as="geometry" />
        </mxCell>
        <mxCell id="Jn_WsU0XJ25JbZvKuPca-66" value="&lt;font face=&quot;Comic Sans MS&quot; color=&quot;#99004d&quot; style=&quot;font-size: 24px;&quot;&gt;Topic: &quot;insert-a-category&quot;, &quot;get-all-categories&quot;&lt;/font&gt;" style="rounded=1;whiteSpace=wrap;html=1;fillColor=none;strokeColor=none;fontColor=#00331A;align=left;" vertex="1" parent="1">
          <mxGeometry x="701.25" y="1450" width="557.5" height="40" as="geometry" />
        </mxCell>
        <mxCell id="Jn_WsU0XJ25JbZvKuPca-67" value="" style="endArrow=block;html=1;rounded=0;fillColor=#b0e3e6;strokeColor=#99004D;strokeWidth=4;endFill=1;" edge="1" parent="1">
          <mxGeometry width="50" height="50" relative="1" as="geometry">
            <mxPoint x="690" y="1920.25" as="sourcePoint" />
            <mxPoint x="1290" y="1920" as="targetPoint" />
          </mxGeometry>
        </mxCell>
        <mxCell id="Jn_WsU0XJ25JbZvKuPca-68" value="&lt;font face=&quot;Comic Sans MS&quot; color=&quot;#99004d&quot; style=&quot;font-size: 20px;&quot;&gt;Older&lt;/font&gt;" style="rounded=1;whiteSpace=wrap;html=1;fillColor=none;strokeColor=none;fontColor=#00331A;align=left;" vertex="1" parent="1">
          <mxGeometry x="730" y="1880" width="80" height="40" as="geometry" />
        </mxCell>
        <mxCell id="Jn_WsU0XJ25JbZvKuPca-69" value="&lt;font face=&quot;Comic Sans MS&quot; color=&quot;#99004d&quot; style=&quot;font-size: 20px;&quot;&gt;Newer&lt;/font&gt;" style="rounded=1;whiteSpace=wrap;html=1;fillColor=none;strokeColor=none;fontColor=#00331A;align=left;" vertex="1" parent="1">
          <mxGeometry x="1168" y="1880" width="80" height="40" as="geometry" />
        </mxCell>
        <mxCell id="Jn_WsU0XJ25JbZvKuPca-72" value="&lt;font style=&quot;font-size: 18px;&quot;&gt;Committed offsets&lt;/font&gt;" style="rounded=0;whiteSpace=wrap;html=1;fillColor=#f8cecc;strokeColor=default;dashed=1;" vertex="1" parent="1">
          <mxGeometry x="800" y="1800" width="200" height="40" as="geometry" />
        </mxCell>
        <mxCell id="gf-m8cDERvLFtjT4WnaM-1" value="" style="endArrow=none;html=1;rounded=0;fillColor=#b0e3e6;strokeColor=#0e8088;strokeWidth=3;endFill=0;startArrow=openThin;startFill=0;" edge="1" parent="1">
          <mxGeometry width="50" height="50" relative="1" as="geometry">
            <mxPoint x="1220" y="810.5" as="sourcePoint" />
            <mxPoint x="1440" y="810" as="targetPoint" />
          </mxGeometry>
        </mxCell>
        <mxCell id="gf-m8cDERvLFtjT4WnaM-2" value="&lt;font style=&quot;font-size: 17px;&quot;&gt;Connect/request Metadata&lt;/font&gt;" style="rounded=1;whiteSpace=wrap;html=1;fillColor=none;strokeColor=none;fontColor=#00331A;align=left;" vertex="1" parent="1">
          <mxGeometry x="1240" y="770" width="212" height="40" as="geometry" />
        </mxCell>
        <mxCell id="gf-m8cDERvLFtjT4WnaM-3" value="&lt;span style=&quot;font-size: 17px;&quot;&gt;response: all brokers&lt;/span&gt;" style="rounded=1;whiteSpace=wrap;html=1;fillColor=none;strokeColor=none;fontColor=#00331A;align=left;" vertex="1" parent="1">
          <mxGeometry x="1240" y="700" width="212" height="40" as="geometry" />
        </mxCell>
        <mxCell id="gf-m8cDERvLFtjT4WnaM-4" value="&lt;font style=&quot;font-size: 18px;&quot;&gt;&lt;font style=&quot;font-size: 18px;&quot; color=&quot;#009900&quot;&gt;Leader Election: Leader writes data, follower read data&amp;nbsp;&lt;br&gt;Node number: 3,5,7,...&lt;/font&gt;&lt;br&gt;&lt;/font&gt;" style="rounded=1;whiteSpace=wrap;html=1;fillColor=none;strokeColor=none;fontColor=#00331A;align=left;" vertex="1" parent="1">
          <mxGeometry x="820" y="1290" width="450" height="50" as="geometry" />
        </mxCell>
        <mxCell id="gf-m8cDERvLFtjT4WnaM-5" value="&lt;font style=&quot;font-size: 19px;&quot;&gt;Manage Kafka brokers, metadata,...&lt;/font&gt;" style="rounded=1;whiteSpace=wrap;html=1;fillColor=none;strokeColor=none;fontColor=#00331A;align=left;" vertex="1" parent="1">
          <mxGeometry x="1109.5" y="930" width="212" height="40" as="geometry" />
        </mxCell>
        <mxCell id="gf-m8cDERvLFtjT4WnaM-6" value="&lt;font color=&quot;#006666&quot; style=&quot;font-size: 19px;&quot;&gt;&lt;span style=&quot;font-size: 19px;&quot;&gt;&quot;Group&#39;s Id&quot;, eg: groupA&lt;/span&gt;&lt;br style=&quot;font-size: 19px;&quot;&gt;&lt;/font&gt;" style="rounded=1;whiteSpace=wrap;html=1;fillColor=none;strokeColor=none;fontColor=#00331A;align=left;fontFamily=Comic Sans MS;fontSize=19;" vertex="1" parent="1">
          <mxGeometry x="1495" y="580" width="160" height="59.25" as="geometry" />
        </mxCell>
      </root>
    </mxGraphModel>
  </diagram>
</mxfile>
